<?xml version="1.0" encoding="utf-8" standalone="no"?>
<!DOCTYPE svg PUBLIC "-//W3C//DTD SVG 1.1//EN"
  "http://www.w3.org/Graphics/SVG/1.1/DTD/svg11.dtd">
<svg xmlns:xlink="http://www.w3.org/1999/xlink" width="460.8pt" height="345.6pt" viewBox="0 0 460.8 345.6" xmlns="http://www.w3.org/2000/svg" version="1.1">
 <metadata>
  <rdf:RDF xmlns:dc="http://purl.org/dc/elements/1.1/" xmlns:cc="http://creativecommons.org/ns#" xmlns:rdf="http://www.w3.org/1999/02/22-rdf-syntax-ns#">
   <cc:Work>
    <dc:type rdf:resource="http://purl.org/dc/dcmitype/StillImage"/>
    <dc:date>2024-10-29T20:52:44.797611</dc:date>
    <dc:format>image/svg+xml</dc:format>
    <dc:creator>
     <cc:Agent>
      <dc:title>Matplotlib v3.9.2, https://matplotlib.org/</dc:title>
     </cc:Agent>
    </dc:creator>
   </cc:Work>
  </rdf:RDF>
 </metadata>
 <defs>
  <style type="text/css">*{stroke-linejoin: round; stroke-linecap: butt}</style>
 </defs>
 <g id="figure_1">
  <g id="patch_1">
   <path d="M 0 345.6
L 460.8 345.6
L 460.8 0
L 0 0
z
" style="fill: #212946"/>
  </g>
  <g id="axes_1">
   <g id="patch_2">
    <path d="M 57.6 307.584
L 414.72 307.584
L 414.72 41.472
L 57.6 41.472
z
" style="fill: #212946"/>
   </g>
   <g id="matplotlib.axis_1">
    <g id="xtick_1">
     <g id="line2d_1">
      <path d="M 72.709355 307.584
L 72.709355 41.472
" clip-path="url(#pad8c4dd46e)" style="fill: none; stroke: #2a3459; stroke-width: 0.8; stroke-linecap: round"/>
     </g>
     <g id="line2d_2"/>
     <g id="text_1">
      <!-- 0 -->
      <g style="fill: #e6e6e6" transform="translate(69.928886 318.330875) scale(0.1 -0.1)">
       <defs>
        <path id="LiberationSans-30" d="M 3309 2203
Q 3309 1100 2920 518
Q 2531 -63 1772 -63
Q 1013 -63 631 515
Q 250 1094 250 2203
Q 250 3338 620 3903
Q 991 4469 1791 4469
Q 2569 4469 2939 3897
Q 3309 3325 3309 2203
z
M 2738 2203
Q 2738 3156 2517 3584
Q 2297 4013 1791 4013
Q 1272 4013 1045 3591
Q 819 3169 819 2203
Q 819 1266 1048 831
Q 1278 397 1778 397
Q 2275 397 2506 840
Q 2738 1284 2738 2203
z
" transform="scale(0.015625)"/>
       </defs>
       <use xlink:href="#LiberationSans-30"/>
      </g>
     </g>
    </g>
    <g id="xtick_2">
     <g id="line2d_3">
      <path d="M 117.64424 307.584
L 117.64424 41.472
" clip-path="url(#pad8c4dd46e)" style="fill: none; stroke: #2a3459; stroke-width: 0.8; stroke-linecap: round"/>
     </g>
     <g id="line2d_4"/>
     <g id="text_2">
      <!-- 200 -->
      <g style="fill: #e6e6e6" transform="translate(109.302834 318.330875) scale(0.1 -0.1)">
       <defs>
        <path id="LiberationSans-32" d="M 322 0
L 322 397
Q 481 763 711 1042
Q 941 1322 1194 1548
Q 1447 1775 1695 1969
Q 1944 2163 2144 2356
Q 2344 2550 2467 2762
Q 2591 2975 2591 3244
Q 2591 3606 2378 3806
Q 2166 4006 1788 4006
Q 1428 4006 1195 3811
Q 963 3616 922 3263
L 347 3316
Q 409 3844 795 4156
Q 1181 4469 1788 4469
Q 2453 4469 2811 4155
Q 3169 3841 3169 3263
Q 3169 3006 3051 2753
Q 2934 2500 2703 2247
Q 2472 1994 1819 1463
Q 1459 1169 1246 933
Q 1034 697 941 478
L 3238 478
L 3238 0
L 322 0
z
" transform="scale(0.015625)"/>
       </defs>
       <use xlink:href="#LiberationSans-32"/>
       <use xlink:href="#LiberationSans-30" x="55.615234"/>
       <use xlink:href="#LiberationSans-30" x="111.230469"/>
      </g>
     </g>
    </g>
    <g id="xtick_3">
     <g id="line2d_5">
      <path d="M 162.579126 307.584
L 162.579126 41.472
" clip-path="url(#pad8c4dd46e)" style="fill: none; stroke: #2a3459; stroke-width: 0.8; stroke-linecap: round"/>
     </g>
     <g id="line2d_6"/>
     <g id="text_3">
      <!-- 400 -->
      <g style="fill: #e6e6e6" transform="translate(154.237719 318.330875) scale(0.1 -0.1)">
       <defs>
        <path id="LiberationSans-34" d="M 2753 997
L 2753 0
L 2222 0
L 2222 997
L 147 997
L 147 1434
L 2163 4403
L 2753 4403
L 2753 1441
L 3372 1441
L 3372 997
L 2753 997
z
M 2222 3769
Q 2216 3750 2134 3603
Q 2053 3456 2013 3397
L 884 1734
L 716 1503
L 666 1441
L 2222 1441
L 2222 3769
z
" transform="scale(0.015625)"/>
       </defs>
       <use xlink:href="#LiberationSans-34"/>
       <use xlink:href="#LiberationSans-30" x="55.615234"/>
       <use xlink:href="#LiberationSans-30" x="111.230469"/>
      </g>
     </g>
    </g>
    <g id="xtick_4">
     <g id="line2d_7">
      <path d="M 207.514011 307.584
L 207.514011 41.472
" clip-path="url(#pad8c4dd46e)" style="fill: none; stroke: #2a3459; stroke-width: 0.8; stroke-linecap: round"/>
     </g>
     <g id="line2d_8"/>
     <g id="text_4">
      <!-- 600 -->
      <g style="fill: #e6e6e6" transform="translate(199.172604 318.330875) scale(0.1 -0.1)">
       <defs>
        <path id="LiberationSans-36" d="M 3278 1441
Q 3278 744 2900 340
Q 2522 -63 1856 -63
Q 1113 -63 719 490
Q 325 1044 325 2100
Q 325 3244 734 3856
Q 1144 4469 1900 4469
Q 2897 4469 3156 3572
L 2619 3475
Q 2453 4013 1894 4013
Q 1413 4013 1148 3564
Q 884 3116 884 2266
Q 1038 2550 1316 2698
Q 1594 2847 1953 2847
Q 2563 2847 2920 2465
Q 3278 2084 3278 1441
z
M 2706 1416
Q 2706 1894 2472 2153
Q 2238 2413 1819 2413
Q 1425 2413 1183 2183
Q 941 1953 941 1550
Q 941 1041 1192 716
Q 1444 391 1838 391
Q 2244 391 2475 664
Q 2706 938 2706 1416
z
" transform="scale(0.015625)"/>
       </defs>
       <use xlink:href="#LiberationSans-36"/>
       <use xlink:href="#LiberationSans-30" x="55.615234"/>
       <use xlink:href="#LiberationSans-30" x="111.230469"/>
      </g>
     </g>
    </g>
    <g id="xtick_5">
     <g id="line2d_9">
      <path d="M 252.448896 307.584
L 252.448896 41.472
" clip-path="url(#pad8c4dd46e)" style="fill: none; stroke: #2a3459; stroke-width: 0.8; stroke-linecap: round"/>
     </g>
     <g id="line2d_10"/>
     <g id="text_5">
      <!-- 800 -->
      <g style="fill: #e6e6e6" transform="translate(244.10749 318.330875) scale(0.1 -0.1)">
       <defs>
        <path id="LiberationSans-38" d="M 3281 1228
Q 3281 619 2893 278
Q 2506 -63 1781 -63
Q 1075 -63 676 271
Q 278 606 278 1222
Q 278 1653 525 1947
Q 772 2241 1156 2303
L 1156 2316
Q 797 2400 589 2681
Q 381 2963 381 3341
Q 381 3844 757 4156
Q 1134 4469 1769 4469
Q 2419 4469 2795 4162
Q 3172 3856 3172 3334
Q 3172 2956 2962 2675
Q 2753 2394 2391 2322
L 2391 2309
Q 2813 2241 3047 1952
Q 3281 1663 3281 1228
z
M 2588 3303
Q 2588 4050 1769 4050
Q 1372 4050 1164 3862
Q 956 3675 956 3303
Q 956 2925 1170 2726
Q 1384 2528 1775 2528
Q 2172 2528 2380 2711
Q 2588 2894 2588 3303
z
M 2697 1281
Q 2697 1691 2453 1898
Q 2209 2106 1769 2106
Q 1341 2106 1100 1882
Q 859 1659 859 1269
Q 859 359 1788 359
Q 2247 359 2472 579
Q 2697 800 2697 1281
z
" transform="scale(0.015625)"/>
       </defs>
       <use xlink:href="#LiberationSans-38"/>
       <use xlink:href="#LiberationSans-30" x="55.615234"/>
       <use xlink:href="#LiberationSans-30" x="111.230469"/>
      </g>
     </g>
    </g>
    <g id="xtick_6">
     <g id="line2d_11">
      <path d="M 297.383781 307.584
L 297.383781 41.472
" clip-path="url(#pad8c4dd46e)" style="fill: none; stroke: #2a3459; stroke-width: 0.8; stroke-linecap: round"/>
     </g>
     <g id="line2d_12"/>
     <g id="text_6">
      <!-- 1000 -->
      <g style="fill: #e6e6e6" transform="translate(286.261906 318.330875) scale(0.1 -0.1)">
       <defs>
        <path id="LiberationSans-31" d="M 488 0
L 488 478
L 1609 478
L 1609 3866
L 616 3156
L 616 3688
L 1656 4403
L 2175 4403
L 2175 478
L 3247 478
L 3247 0
L 488 0
z
" transform="scale(0.015625)"/>
       </defs>
       <use xlink:href="#LiberationSans-31"/>
       <use xlink:href="#LiberationSans-30" x="55.615234"/>
       <use xlink:href="#LiberationSans-30" x="111.230469"/>
       <use xlink:href="#LiberationSans-30" x="166.845703"/>
      </g>
     </g>
    </g>
    <g id="xtick_7">
     <g id="line2d_13">
      <path d="M 342.318666 307.584
L 342.318666 41.472
" clip-path="url(#pad8c4dd46e)" style="fill: none; stroke: #2a3459; stroke-width: 0.8; stroke-linecap: round"/>
     </g>
     <g id="line2d_14"/>
     <g id="text_7">
      <!-- 1200 -->
      <g style="fill: #e6e6e6" transform="translate(331.196791 318.330875) scale(0.1 -0.1)">
       <use xlink:href="#LiberationSans-31"/>
       <use xlink:href="#LiberationSans-32" x="55.615234"/>
       <use xlink:href="#LiberationSans-30" x="111.230469"/>
       <use xlink:href="#LiberationSans-30" x="166.845703"/>
      </g>
     </g>
    </g>
    <g id="xtick_8">
     <g id="line2d_15">
      <path d="M 387.253551 307.584
L 387.253551 41.472
" clip-path="url(#pad8c4dd46e)" style="fill: none; stroke: #2a3459; stroke-width: 0.8; stroke-linecap: round"/>
     </g>
     <g id="line2d_16"/>
     <g id="text_8">
      <!-- 1400 -->
      <g style="fill: #e6e6e6" transform="translate(376.131676 318.330875) scale(0.1 -0.1)">
       <use xlink:href="#LiberationSans-31"/>
       <use xlink:href="#LiberationSans-34" x="55.615234"/>
       <use xlink:href="#LiberationSans-30" x="111.230469"/>
       <use xlink:href="#LiberationSans-30" x="166.845703"/>
      </g>
     </g>
    </g>
    <g id="text_9">
     <!-- Размер текста -->
     <g style="fill: #e6e6e6" transform="translate(202.817813 331.65275) scale(0.1 -0.1)">
      <defs>
       <path id="LiberationSans-420" d="M 3931 3078
Q 3931 2453 3523 2084
Q 3116 1716 2416 1716
L 1122 1716
L 1122 0
L 525 0
L 525 4403
L 2378 4403
Q 3119 4403 3525 4056
Q 3931 3709 3931 3078
z
M 3331 3072
Q 3331 3925 2306 3925
L 1122 3925
L 1122 2188
L 2331 2188
Q 3331 2188 3331 3072
z
" transform="scale(0.015625)"/>
       <path id="LiberationSans-430" d="M 1294 -63
Q 784 -63 528 206
Q 272 475 272 944
Q 272 1469 617 1750
Q 963 2031 1731 2050
L 2491 2063
L 2491 2247
Q 2491 2659 2316 2837
Q 2141 3016 1766 3016
Q 1388 3016 1216 2887
Q 1044 2759 1009 2478
L 422 2531
Q 566 3444 1778 3444
Q 2416 3444 2737 3151
Q 3059 2859 3059 2306
L 3059 850
Q 3059 600 3125 473
Q 3191 347 3375 347
Q 3456 347 3559 369
L 3559 19
Q 3347 -31 3125 -31
Q 2813 -31 2670 133
Q 2528 297 2509 647
L 2491 647
Q 2275 259 1989 98
Q 1703 -63 1294 -63
z
M 1422 359
Q 1731 359 1972 500
Q 2213 641 2352 886
Q 2491 1131 2491 1391
L 2491 1669
L 1875 1656
Q 1478 1650 1273 1575
Q 1069 1500 959 1344
Q 850 1188 850 934
Q 850 659 998 509
Q 1147 359 1422 359
z
" transform="scale(0.015625)"/>
       <path id="LiberationSans-437" d="M 1431 -63
Q 909 -63 601 132
Q 294 328 153 731
L 650 869
Q 816 356 1444 356
Q 1744 356 1920 503
Q 2097 650 2097 934
Q 2097 1559 1063 1559
L 1063 1988
Q 1566 1988 1803 2119
Q 2041 2250 2041 2525
Q 2041 2756 1886 2890
Q 1731 3025 1441 3025
Q 1163 3025 986 2909
Q 809 2794 772 2575
L 266 2638
Q 409 3444 1444 3444
Q 1969 3444 2291 3195
Q 2613 2947 2613 2553
Q 2613 2238 2386 2025
Q 2159 1813 1838 1784
L 1838 1778
Q 2216 1738 2455 1514
Q 2694 1291 2694 950
Q 2694 475 2358 206
Q 2022 -63 1431 -63
z
" transform="scale(0.015625)"/>
       <path id="LiberationSans-43c" d="M 2459 0
L 1981 0
L 969 2972
Q 988 2484 988 2263
L 988 0
L 444 0
L 444 3381
L 1319 3381
L 2006 1316
Q 2169 869 2219 422
Q 2288 925 2431 1316
L 3119 3381
L 3959 3381
L 3959 0
L 3419 0
L 3419 2263
L 3428 2619
L 3444 2978
L 2459 0
z
" transform="scale(0.015625)"/>
       <path id="LiberationSans-435" d="M 863 1572
Q 863 991 1103 675
Q 1344 359 1806 359
Q 2172 359 2392 506
Q 2613 653 2691 878
L 3184 738
Q 2881 -63 1806 -63
Q 1056 -63 664 384
Q 272 831 272 1713
Q 272 2550 664 2997
Q 1056 3444 1784 3444
Q 3275 3444 3275 1647
L 3275 1572
L 863 1572
z
M 2694 2003
Q 2647 2538 2422 2783
Q 2197 3028 1775 3028
Q 1366 3028 1127 2754
Q 888 2481 869 2003
L 2694 2003
z
" transform="scale(0.015625)"/>
       <path id="LiberationSans-440" d="M 3291 1706
Q 3291 -63 2047 -63
Q 1266 -63 997 525
L 981 525
Q 994 500 994 -6
L 994 -1328
L 431 -1328
L 431 2691
Q 431 3213 413 3381
L 956 3381
Q 959 3369 965 3292
Q 972 3216 980 3056
Q 988 2897 988 2838
L 1000 2838
Q 1150 3150 1397 3295
Q 1644 3441 2047 3441
Q 2672 3441 2981 3022
Q 3291 2603 3291 1706
z
M 2700 1694
Q 2700 2400 2509 2703
Q 2319 3006 1903 3006
Q 1569 3006 1380 2865
Q 1191 2725 1092 2426
Q 994 2128 994 1650
Q 994 984 1206 668
Q 1419 353 1897 353
Q 2316 353 2508 661
Q 2700 969 2700 1694
z
" transform="scale(0.015625)"/>
       <path id="LiberationSans-20" transform="scale(0.015625)"/>
       <path id="LiberationSans-442" d="M 109 3381
L 2822 3381
L 2822 2972
L 1747 2972
L 1747 0
L 1184 0
L 1184 2972
L 109 2972
L 109 3381
z
" transform="scale(0.015625)"/>
       <path id="LiberationSans-43a" d="M 431 3381
L 994 3381
L 994 1900
Q 1088 1900 1163 1925
Q 1238 1950 1319 2029
Q 1400 2109 1503 2253
Q 1606 2397 2216 3381
L 2803 3381
L 2128 2366
Q 1838 1941 1728 1850
L 2831 0
L 2206 0
L 1338 1553
Q 1278 1528 1176 1509
Q 1075 1491 994 1491
L 994 0
L 431 0
L 431 3381
z
" transform="scale(0.015625)"/>
       <path id="LiberationSans-441" d="M 859 1706
Q 859 1031 1071 706
Q 1284 381 1713 381
Q 2013 381 2214 543
Q 2416 706 2463 1044
L 3031 1006
Q 2966 519 2616 228
Q 2266 -63 1728 -63
Q 1019 -63 645 385
Q 272 834 272 1694
Q 272 2547 647 2995
Q 1022 3444 1722 3444
Q 2241 3444 2583 3175
Q 2925 2906 3013 2434
L 2434 2391
Q 2391 2672 2212 2837
Q 2034 3003 1706 3003
Q 1259 3003 1059 2706
Q 859 2409 859 1706
z
" transform="scale(0.015625)"/>
      </defs>
      <use xlink:href="#LiberationSans-420"/>
      <use xlink:href="#LiberationSans-430" x="63.324219"/>
      <use xlink:href="#LiberationSans-437" x="117.814453"/>
      <use xlink:href="#LiberationSans-43c" x="163.664062"/>
      <use xlink:href="#LiberationSans-435" x="232.414062"/>
      <use xlink:href="#LiberationSans-440" x="288.029297"/>
      <use xlink:href="#LiberationSans-20" x="343.644531"/>
      <use xlink:href="#LiberationSans-442" x="371.427734"/>
      <use xlink:href="#LiberationSans-435" x="416.103516"/>
      <use xlink:href="#LiberationSans-43a" x="471.71875"/>
      <use xlink:href="#LiberationSans-441" x="516.59375"/>
      <use xlink:href="#LiberationSans-442" x="566.59375"/>
      <use xlink:href="#LiberationSans-430" x="611.269531"/>
     </g>
    </g>
   </g>
   <g id="matplotlib.axis_2">
    <g id="ytick_1">
     <g id="line2d_17">
      <path d="M 57.6 257.639989
L 414.72 257.639989
" clip-path="url(#pad8c4dd46e)" style="fill: none; stroke: #2a3459; stroke-width: 0.8; stroke-linecap: round"/>
     </g>
     <g id="line2d_18"/>
     <g id="text_10">
      <!-- 0.5 -->
      <g style="fill: #e6e6e6" transform="translate(40.2 261.263426) scale(0.1 -0.1)">
       <defs>
        <path id="LiberationSans-2e" d="M 584 0
L 584 684
L 1194 684
L 1194 0
L 584 0
z
" transform="scale(0.015625)"/>
        <path id="LiberationSans-35" d="M 3291 1434
Q 3291 738 2877 337
Q 2463 -63 1728 -63
Q 1113 -63 734 206
Q 356 475 256 984
L 825 1050
Q 1003 397 1741 397
Q 2194 397 2450 670
Q 2706 944 2706 1422
Q 2706 1838 2448 2094
Q 2191 2350 1753 2350
Q 1525 2350 1328 2278
Q 1131 2206 934 2034
L 384 2034
L 531 4403
L 3034 4403
L 3034 3925
L 1044 3925
L 959 2528
Q 1325 2809 1869 2809
Q 2519 2809 2905 2428
Q 3291 2047 3291 1434
z
" transform="scale(0.015625)"/>
       </defs>
       <use xlink:href="#LiberationSans-30"/>
       <use xlink:href="#LiberationSans-2e" x="55.615234"/>
       <use xlink:href="#LiberationSans-35" x="83.398438"/>
      </g>
     </g>
    </g>
    <g id="ytick_2">
     <g id="line2d_19">
      <path d="M 57.6 206.494092
L 414.72 206.494092
" clip-path="url(#pad8c4dd46e)" style="fill: none; stroke: #2a3459; stroke-width: 0.8; stroke-linecap: round"/>
     </g>
     <g id="line2d_20"/>
     <g id="text_11">
      <!-- 1.0 -->
      <g style="fill: #e6e6e6" transform="translate(40.2 210.117529) scale(0.1 -0.1)">
       <use xlink:href="#LiberationSans-31"/>
       <use xlink:href="#LiberationSans-2e" x="55.615234"/>
       <use xlink:href="#LiberationSans-30" x="83.398438"/>
      </g>
     </g>
    </g>
    <g id="ytick_3">
     <g id="line2d_21">
      <path d="M 57.6 155.348195
L 414.72 155.348195
" clip-path="url(#pad8c4dd46e)" style="fill: none; stroke: #2a3459; stroke-width: 0.8; stroke-linecap: round"/>
     </g>
     <g id="line2d_22"/>
     <g id="text_12">
      <!-- 1.5 -->
      <g style="fill: #e6e6e6" transform="translate(40.2 158.971632) scale(0.1 -0.1)">
       <use xlink:href="#LiberationSans-31"/>
       <use xlink:href="#LiberationSans-2e" x="55.615234"/>
       <use xlink:href="#LiberationSans-35" x="83.398438"/>
      </g>
     </g>
    </g>
    <g id="ytick_4">
     <g id="line2d_23">
      <path d="M 57.6 104.202297
L 414.72 104.202297
" clip-path="url(#pad8c4dd46e)" style="fill: none; stroke: #2a3459; stroke-width: 0.8; stroke-linecap: round"/>
     </g>
     <g id="line2d_24"/>
     <g id="text_13">
      <!-- 2.0 -->
      <g style="fill: #e6e6e6" transform="translate(40.2 107.825735) scale(0.1 -0.1)">
       <use xlink:href="#LiberationSans-32"/>
       <use xlink:href="#LiberationSans-2e" x="55.615234"/>
       <use xlink:href="#LiberationSans-30" x="83.398438"/>
      </g>
     </g>
    </g>
    <g id="ytick_5">
     <g id="line2d_25">
      <path d="M 57.6 53.0564
L 414.72 53.0564
" clip-path="url(#pad8c4dd46e)" style="fill: none; stroke: #2a3459; stroke-width: 0.8; stroke-linecap: round"/>
     </g>
     <g id="line2d_26"/>
     <g id="text_14">
      <!-- 2.5 -->
      <g style="fill: #e6e6e6" transform="translate(40.2 56.679838) scale(0.1 -0.1)">
       <use xlink:href="#LiberationSans-32"/>
       <use xlink:href="#LiberationSans-2e" x="55.615234"/>
       <use xlink:href="#LiberationSans-35" x="83.398438"/>
      </g>
     </g>
    </g>
    <g id="text_15">
     <!-- Время, с -->
     <g style="fill: #e6e6e6" transform="translate(34.125 194.847531) rotate(-90) scale(0.1 -0.1)">
      <defs>
       <path id="LiberationSans-412" d="M 3931 1241
Q 3931 653 3503 326
Q 3075 0 2313 0
L 525 0
L 525 4403
L 2125 4403
Q 3675 4403 3675 3334
Q 3675 2944 3456 2678
Q 3238 2413 2838 2322
Q 3363 2259 3647 1970
Q 3931 1681 3931 1241
z
M 3075 3263
Q 3075 3619 2831 3772
Q 2588 3925 2125 3925
L 1122 3925
L 1122 2531
L 2125 2531
Q 2603 2531 2839 2711
Q 3075 2891 3075 3263
z
M 3328 1288
Q 3328 2066 2234 2066
L 1122 2066
L 1122 478
L 2281 478
Q 2828 478 3078 681
Q 3328 884 3328 1288
z
" transform="scale(0.015625)"/>
       <path id="LiberationSans-44f" d="M 1672 1431
L 688 0
L 53 0
L 1128 1472
Q 350 1631 350 2447
Q 350 2913 687 3147
Q 1025 3381 1672 3381
L 3022 3381
L 3022 0
L 2459 0
L 2459 1431
L 1672 1431
z
M 2459 2984
L 1728 2984
Q 1322 2984 1134 2840
Q 947 2697 947 2406
Q 947 2113 1114 1967
Q 1281 1822 1669 1822
L 2459 1822
L 2459 2984
z
" transform="scale(0.015625)"/>
       <path id="LiberationSans-2c" d="M 1203 684
L 1203 159
Q 1203 -172 1143 -394
Q 1084 -616 959 -819
L 575 -819
Q 869 -394 869 0
L 594 0
L 594 684
L 1203 684
z
" transform="scale(0.015625)"/>
      </defs>
      <use xlink:href="#LiberationSans-412"/>
      <use xlink:href="#LiberationSans-440" x="66.699219"/>
      <use xlink:href="#LiberationSans-435" x="122.314453"/>
      <use xlink:href="#LiberationSans-43c" x="177.929688"/>
      <use xlink:href="#LiberationSans-44f" x="246.679688"/>
      <use xlink:href="#LiberationSans-2c" x="300.830078"/>
      <use xlink:href="#LiberationSans-20" x="328.613281"/>
      <use xlink:href="#LiberationSans-441" x="356.396484"/>
     </g>
    </g>
    <g id="text_16">
     <!-- 1e−6 -->
     <g style="fill: #e6e6e6" transform="translate(57.6 38.472) scale(0.1 -0.1)">
      <defs>
       <path id="LiberationSans-65" d="M 863 1572
Q 863 991 1103 675
Q 1344 359 1806 359
Q 2172 359 2392 506
Q 2613 653 2691 878
L 3184 738
Q 2881 -63 1806 -63
Q 1056 -63 664 384
Q 272 831 272 1713
Q 272 2550 664 2997
Q 1056 3444 1784 3444
Q 3275 3444 3275 1647
L 3275 1572
L 863 1572
z
M 2694 2003
Q 2647 2538 2422 2783
Q 2197 3028 1775 3028
Q 1366 3028 1127 2754
Q 888 2481 869 2003
L 2694 2003
z
" transform="scale(0.015625)"/>
       <path id="LiberationSans-2212" d="M 316 1900
L 316 2356
L 3425 2356
L 3425 1900
L 316 1900
z
" transform="scale(0.015625)"/>
      </defs>
      <use xlink:href="#LiberationSans-31"/>
      <use xlink:href="#LiberationSans-65" x="55.615234"/>
      <use xlink:href="#LiberationSans-2212" x="111.230469"/>
      <use xlink:href="#LiberationSans-36" x="169.628906"/>
     </g>
    </g>
   </g>
   <g id="line2d_27">
    <path d="M 73.832727 276.973148
L 74.282076 276.973148
L 74.731425 277.995777
L 75.180774 276.973148
L 75.630123 276.973148
L 76.079472 277.995777
L 76.52882 275.950148
L 76.978169 276.052486
L 77.202844 275.950148
L 78.326216 275.029485
L 79.449588 275.029485
L 80.57296 272.983857
L 81.696332 274.927148
L 82.819704 272.983857
L 83.943076 272.88152
L 86.189821 271.85852
L 88.436565 269.914857
L 90.683309 267.766891
L 92.930053 267.766891
L 95.176798 265.823228
L 97.423542 265.721263
L 99.670286 263.7776
L 101.917031 262.652263
L 104.163775 258.560634
L 106.410519 256.514634
L 112.02738 252.423005
L 117.64424 246.285749
L 123.261101 245.160411
L 128.877962 248.331377
L 134.494822 244.239748
L 140.111683 240.14812
L 145.728544 236.056491
L 151.345404 223.781234
L 156.962265 230.839526
L 162.579126 227.873234
L 168.195986 224.804234
L 173.812847 221.633268
L 179.429707 218.56464
L 185.046568 214.473012
L 196.280289 208.335383
L 207.514011 201.174754
L 218.747732 195.037125
L 229.981453 187.876868
L 241.215175 181.739239
L 252.448896 175.499645
L 263.682617 169.464354
L 274.916338 112.078846
L 286.15006 155.041131
L 297.383781 131.513988
L 308.617502 106.86188
L 319.851224 90.494994
L 331.084945 53.568
L 342.318666 120.159765
L 353.552388 113.101474
L 364.786109 104.816252
L 376.01983 98.678251
L 387.253551 92.540994
L 398.487273 86.403737
" clip-path="url(#pad8c4dd46e)" style="fill: none; stroke-dasharray: 5.55,2.4; stroke-dashoffset: 0; stroke: #18c0c4; stroke-width: 1.5"/>
   </g>
   <g id="line2d_28">
    <path d="M 73.832727 277.995777
L 74.282076 278.098486
L 74.731425 279.019149
L 75.180774 278.098486
L 75.630123 277.995777
L 76.079472 279.121486
L 76.52882 280.041777
L 76.978169 279.019149
L 77.202844 279.121114
L 78.326216 279.019149
L 79.449588 279.121114
L 80.57296 279.019149
L 81.696332 279.019149
L 82.819704 279.018777
L 83.943076 278.098114
L 86.189821 277.996149
L 88.436565 277.996149
L 90.683309 277.075486
L 92.930053 276.973148
L 95.176798 276.973148
L 97.423542 276.973148
L 99.670286 276.052486
L 101.917031 276.052486
L 104.163775 275.95052
L 106.410519 275.950148
L 112.02738 272.88152
L 117.64424 274.92752
L 123.261101 273.90452
L 128.877962 273.904148
L 134.494822 272.983857
L 140.111683 272.88152
L 145.728544 271.85852
L 151.345404 268.789892
L 156.962265 269.812892
L 162.579126 268.789892
L 168.195986 268.789892
L 173.812847 268.789892
L 179.429707 267.766891
L 185.046568 266.846228
L 196.280289 265.720891
L 207.514011 264.698263
L 218.747732 262.652263
L 229.981453 262.652263
L 241.215175 260.606635
L 252.448896 259.583634
L 263.682617 258.560634
L 274.916338 256.515006
L 286.15006 255.492006
L 297.383781 255.491634
L 308.617502 253.446006
L 319.851224 252.423005
L 331.084945 251.400005
L 342.318666 250.377005
L 353.552388 247.308749
L 364.786109 247.308377
L 376.01983 246.285377
L 387.253551 245.262376
L 398.487273 243.216748
" clip-path="url(#pad8c4dd46e)" style="fill: none; stroke: #f62196; stroke-width: 1.5; stroke-linecap: round"/>
   </g>
   <g id="line2d_29">
    <path d="M 73.832727 255.492006
L 74.282076 257.537634
L 74.731425 255.492006
L 75.180774 256.616971
L 75.630123 257.537634
L 76.079472 256.515006
L 76.52882 257.538006
L 76.978169 256.514634
L 77.202844 256.515006
L 78.326216 255.491634
L 79.449588 257.537634
L 80.57296 256.515006
L 81.696332 256.515006
L 82.819704 254.469006
L 83.943076 255.492006
L 86.189821 254.469006
L 88.436565 254.469006
L 90.683309 252.423378
L 92.930053 253.446006
L 95.176798 251.400005
L 97.423542 251.29804
L 99.670286 251.400005
L 101.917031 250.377377
L 104.163775 250.27504
L 106.410519 250.377377
L 112.02738 248.331377
L 117.64424 247.308377
L 123.261101 245.262376
L 128.877962 244.239748
L 134.494822 243.21712
L 140.111683 240.14812
L 145.728544 240.14812
L 151.345404 239.125492
L 156.962265 237.999782
L 162.579126 236.056491
L 168.195986 235.954154
L 173.812847 232.987491
L 179.429707 234.010863
L 185.046568 231.964863
L 196.280289 228.895862
L 207.514011 227.770897
L 218.747732 225.724897
L 229.981453 221.633268
L 241.215175 219.587268
L 252.448896 217.54164
L 263.682617 214.472639
L 274.916338 210.483348
L 286.15006 209.358011
L 297.383781 206.289382
L 308.617502 204.243754
L 319.851224 202.197754
L 331.084945 198.106125
L 342.318666 197.083125
L 353.552388 194.93516
L 364.786109 192.991497
L 376.01983 188.899868
L 387.253551 186.85424
L 398.487273 184.705903
" clip-path="url(#pad8c4dd46e)" style="fill: none; stroke: #a267f5; stroke-width: 1.5; stroke-linecap: round"/>
   </g>
   <g id="line2d_30">
    <path d="M 73.832727 263.675263
L 74.282076 263.675263
L 74.731425 263.675263
L 75.180774 263.675263
L 75.630123 262.652263
L 76.079472 264.698263
L 76.52882 264.697891
L 76.978169 262.652263
L 77.202844 262.7546
L 78.326216 263.675263
L 79.449588 262.652635
L 80.57296 261.629635
L 81.696332 261.629263
L 82.819704 260.606635
L 83.943076 261.629635
L 86.189821 260.606635
L 88.436565 259.583262
L 90.683309 259.583634
L 92.930053 259.583634
L 95.176798 257.537634
L 97.423542 257.537634
L 99.670286 256.514634
L 101.917031 256.514634
L 104.163775 256.514634
L 106.410519 255.492006
L 112.02738 254.469006
L 117.64424 252.423005
L 123.261101 251.400005
L 128.877962 250.377005
L 134.494822 248.331377
L 140.111683 247.308749
L 145.728544 246.285749
L 151.345404 245.262749
L 156.962265 243.21712
L 162.579126 242.19412
L 168.195986 241.17112
L 173.812847 239.12512
L 179.429707 237.079119
L 185.046568 237.079492
L 196.280289 235.033491
L 207.514011 232.885154
L 218.747732 229.918863
L 229.981453 226.747897
L 241.215175 222.758606
L 252.448896 220.712605
L 263.682617 216.620977
L 274.916338 215.49564
L 286.15006 212.427011
L 297.383781 210.381011
L 308.617502 205.266382
L 319.851224 205.266382
L 331.084945 201.175126
L 342.318666 198.106125
L 353.552388 196.060497
L 364.786109 192.991497
L 376.01983 191.968497
L 387.253551 189.820531
L 398.487273 185.83124
" clip-path="url(#pad8c4dd46e)" style="fill: none; stroke: #f3907e; stroke-width: 1.5; stroke-linecap: round"/>
   </g>
   <g id="line2d_31">
    <path d="M 73.832727 294.362663
L 74.282076 293.442
L 74.731425 294.465
L 75.180774 294.465
L 75.630123 293.442
L 76.079472 294.465
L 76.52882 295.488
L 76.978169 295.487628
L 77.202844 295.487628
L 78.326216 295.385663
L 79.449588 295.385663
L 80.57296 295.487628
L 81.696332 295.385663
L 82.819704 295.487628
L 83.943076 295.487628
L 86.189821 295.487628
L 88.436565 295.385663
L 90.683309 295.488
L 92.930053 295.488
L 95.176798 295.385663
L 97.423542 295.385663
L 99.670286 295.488
L 101.917031 295.487628
L 104.163775 295.385663
L 106.410519 295.488
L 112.02738 294.465
L 117.64424 295.385663
L 123.261101 295.385663
L 128.877962 294.465
L 134.494822 295.487628
L 140.111683 295.385663
L 145.728544 294.362663
L 151.345404 294.363035
L 156.962265 295.385663
L 162.579126 294.465
L 168.195986 294.465
L 173.812847 295.385663
L 179.429707 294.465
L 185.046568 294.363035
L 196.280289 294.465
L 207.514011 295.385291
L 218.747732 294.465
L 229.981453 294.465
L 241.215175 294.362663
L 252.448896 295.385663
L 263.682617 294.362663
L 274.916338 294.465
L 286.15006 294.465372
L 297.383781 294.465
L 308.617502 294.465
L 319.851224 294.362663
L 331.084945 294.362663
L 342.318666 294.363035
L 353.552388 294.362663
L 364.786109 294.363035
L 376.01983 294.465
L 387.253551 294.362663
L 398.487273 294.465
" clip-path="url(#pad8c4dd46e)" style="fill: none; stroke-dasharray: 5.55,2.4; stroke-dashoffset: 0; stroke: #ffe46b; stroke-width: 1.5"/>
   </g>
   <g id="patch_3">
    <path d="M 57.6 307.584
L 57.6 41.472
" style="fill: none"/>
   </g>
   <g id="patch_4">
    <path d="M 414.72 307.584
L 414.72 41.472
" style="fill: none"/>
   </g>
   <g id="patch_5">
    <path d="M 57.6 307.584
L 414.72 307.584
" style="fill: none"/>
   </g>
   <g id="patch_6">
    <path d="M 57.6 41.472
L 414.72 41.472
" style="fill: none"/>
   </g>
   <g id="legend_1">
    <g id="line2d_32">
     <path d="M 66.6 54.218875
L 76.6 54.218875
L 86.6 54.218875
" style="fill: none; stroke-dasharray: 5.55,2.4; stroke-dashoffset: 0; stroke: #18c0c4; stroke-width: 1.5"/>
    </g>
    <g id="text_17">
     <!-- re2 -->
     <g style="fill: #e6e6e6" transform="translate(94.6 57.718875) scale(0.1 -0.1)">
      <defs>
       <path id="LiberationSans-72" d="M 444 0
L 444 2594
Q 444 2950 425 3381
L 956 3381
Q 981 2806 981 2691
L 994 2691
Q 1128 3125 1303 3284
Q 1478 3444 1797 3444
Q 1909 3444 2025 3413
L 2025 2897
Q 1913 2928 1725 2928
Q 1375 2928 1190 2626
Q 1006 2325 1006 1763
L 1006 0
L 444 0
z
" transform="scale(0.015625)"/>
      </defs>
      <use xlink:href="#LiberationSans-72"/>
      <use xlink:href="#LiberationSans-65" x="33.300781"/>
      <use xlink:href="#LiberationSans-32" x="88.916016"/>
     </g>
    </g>
    <g id="line2d_33">
     <path d="M 66.6 68.54075
L 76.6 68.54075
L 86.6 68.54075
" style="fill: none; stroke: #f62196; stroke-width: 1.5; stroke-linecap: round"/>
    </g>
    <g id="text_18">
     <!-- regex -->
     <g style="fill: #e6e6e6" transform="translate(94.6 72.04075) scale(0.1 -0.1)">
      <defs>
       <path id="LiberationSans-67" d="M 1713 -1328
Q 1159 -1328 831 -1111
Q 503 -894 409 -494
L 975 -413
Q 1031 -647 1223 -773
Q 1416 -900 1728 -900
Q 2569 -900 2569 84
L 2569 628
L 2563 628
Q 2403 303 2125 139
Q 1847 -25 1475 -25
Q 853 -25 561 387
Q 269 800 269 1684
Q 269 2581 583 3007
Q 897 3434 1538 3434
Q 1897 3434 2161 3270
Q 2425 3106 2569 2803
L 2575 2803
Q 2575 2897 2587 3128
Q 2600 3359 2613 3381
L 3147 3381
Q 3128 3213 3128 2681
L 3128 97
Q 3128 -1328 1713 -1328
z
M 2569 1691
Q 2569 2103 2456 2401
Q 2344 2700 2139 2858
Q 1934 3016 1675 3016
Q 1244 3016 1047 2703
Q 850 2391 850 1691
Q 850 997 1034 694
Q 1219 391 1666 391
Q 1931 391 2137 547
Q 2344 703 2456 995
Q 2569 1288 2569 1691
z
" transform="scale(0.015625)"/>
       <path id="LiberationSans-78" d="M 2503 0
L 1594 1388
L 678 0
L 72 0
L 1275 1738
L 128 3381
L 750 3381
L 1594 2066
L 2431 3381
L 3059 3381
L 1913 1744
L 3131 0
L 2503 0
z
" transform="scale(0.015625)"/>
      </defs>
      <use xlink:href="#LiberationSans-72"/>
      <use xlink:href="#LiberationSans-65" x="33.300781"/>
      <use xlink:href="#LiberationSans-67" x="88.916016"/>
      <use xlink:href="#LiberationSans-65" x="144.53125"/>
      <use xlink:href="#LiberationSans-78" x="200.146484"/>
     </g>
    </g>
    <g id="line2d_34">
     <path d="M 66.6 82.862625
L 76.6 82.862625
L 86.6 82.862625
" style="fill: none; stroke: #a267f5; stroke-width: 1.5; stroke-linecap: round"/>
    </g>
    <g id="text_19">
     <!-- pcre2 -->
     <g style="fill: #e6e6e6" transform="translate(94.6 86.362625) scale(0.1 -0.1)">
      <defs>
       <path id="LiberationSans-70" d="M 3291 1706
Q 3291 -63 2047 -63
Q 1266 -63 997 525
L 981 525
Q 994 500 994 -6
L 994 -1328
L 431 -1328
L 431 2691
Q 431 3213 413 3381
L 956 3381
Q 959 3369 965 3292
Q 972 3216 980 3056
Q 988 2897 988 2838
L 1000 2838
Q 1150 3150 1397 3295
Q 1644 3441 2047 3441
Q 2672 3441 2981 3022
Q 3291 2603 3291 1706
z
M 2700 1694
Q 2700 2400 2509 2703
Q 2319 3006 1903 3006
Q 1569 3006 1380 2865
Q 1191 2725 1092 2426
Q 994 2128 994 1650
Q 994 984 1206 668
Q 1419 353 1897 353
Q 2316 353 2508 661
Q 2700 969 2700 1694
z
" transform="scale(0.015625)"/>
       <path id="LiberationSans-63" d="M 859 1706
Q 859 1031 1071 706
Q 1284 381 1713 381
Q 2013 381 2214 543
Q 2416 706 2463 1044
L 3031 1006
Q 2966 519 2616 228
Q 2266 -63 1728 -63
Q 1019 -63 645 385
Q 272 834 272 1694
Q 272 2547 647 2995
Q 1022 3444 1722 3444
Q 2241 3444 2583 3175
Q 2925 2906 3013 2434
L 2434 2391
Q 2391 2672 2212 2837
Q 2034 3003 1706 3003
Q 1259 3003 1059 2706
Q 859 2409 859 1706
z
" transform="scale(0.015625)"/>
      </defs>
      <use xlink:href="#LiberationSans-70"/>
      <use xlink:href="#LiberationSans-63" x="55.615234"/>
      <use xlink:href="#LiberationSans-72" x="105.615234"/>
      <use xlink:href="#LiberationSans-65" x="138.916016"/>
      <use xlink:href="#LiberationSans-32" x="194.53125"/>
     </g>
    </g>
    <g id="line2d_35">
     <path d="M 66.6 97.1845
L 76.6 97.1845
L 86.6 97.1845
" style="fill: none; stroke: #f3907e; stroke-width: 1.5; stroke-linecap: round"/>
    </g>
    <g id="text_20">
     <!-- pcre2+JIT -->
     <g style="fill: #e6e6e6" transform="translate(94.6 100.6845) scale(0.1 -0.1)">
      <defs>
       <path id="LiberationSans-2b" d="M 2097 1900
L 2097 563
L 1638 563
L 1638 1900
L 313 1900
L 313 2356
L 1638 2356
L 1638 3694
L 2097 3694
L 2097 2356
L 3422 2356
L 3422 1900
L 2097 1900
z
" transform="scale(0.015625)"/>
       <path id="LiberationSans-4a" d="M 1428 -63
Q 309 -63 100 1094
L 684 1191
Q 741 828 937 625
Q 1134 422 1431 422
Q 1756 422 1943 645
Q 2131 869 2131 1300
L 2131 3916
L 1284 3916
L 1284 4403
L 2725 4403
L 2725 1313
Q 2725 672 2378 304
Q 2031 -63 1428 -63
z
" transform="scale(0.015625)"/>
       <path id="LiberationSans-49" d="M 591 0
L 591 4403
L 1188 4403
L 1188 0
L 591 0
z
" transform="scale(0.015625)"/>
       <path id="LiberationSans-54" d="M 2250 3916
L 2250 0
L 1656 0
L 1656 3916
L 144 3916
L 144 4403
L 3763 4403
L 3763 3916
L 2250 3916
z
" transform="scale(0.015625)"/>
      </defs>
      <use xlink:href="#LiberationSans-70"/>
      <use xlink:href="#LiberationSans-63" x="55.615234"/>
      <use xlink:href="#LiberationSans-72" x="105.615234"/>
      <use xlink:href="#LiberationSans-65" x="138.916016"/>
      <use xlink:href="#LiberationSans-32" x="194.53125"/>
      <use xlink:href="#LiberationSans-2b" x="250.146484"/>
      <use xlink:href="#LiberationSans-4a" x="308.544922"/>
      <use xlink:href="#LiberationSans-49" x="358.544922"/>
      <use xlink:href="#LiberationSans-54" x="386.328125"/>
     </g>
    </g>
    <g id="line2d_36">
     <path d="M 66.6 111.506375
L 76.6 111.506375
L 86.6 111.506375
" style="fill: none; stroke-dasharray: 5.55,2.4; stroke-dashoffset: 0; stroke: #ffe46b; stroke-width: 1.5"/>
    </g>
    <g id="text_21">
     <!-- flpc -->
     <g style="fill: #e6e6e6" transform="translate(94.6 115.006375) scale(0.1 -0.1)">
      <defs>
       <path id="LiberationSans-66" d="M 1128 2972
L 1128 0
L 566 0
L 566 2972
L 91 2972
L 91 3381
L 566 3381
L 566 3763
Q 566 4225 769 4428
Q 972 4631 1391 4631
Q 1625 4631 1788 4594
L 1788 4166
Q 1647 4191 1538 4191
Q 1322 4191 1225 4081
Q 1128 3972 1128 3684
L 1128 3381
L 1788 3381
L 1788 2972
L 1128 2972
z
" transform="scale(0.015625)"/>
       <path id="LiberationSans-6c" d="M 431 0
L 431 4638
L 994 4638
L 994 0
L 431 0
z
" transform="scale(0.015625)"/>
      </defs>
      <use xlink:href="#LiberationSans-66"/>
      <use xlink:href="#LiberationSans-6c" x="27.783203"/>
      <use xlink:href="#LiberationSans-70" x="50"/>
      <use xlink:href="#LiberationSans-63" x="105.615234"/>
     </g>
    </g>
   </g>
  </g>
 </g>
 <defs>
  <clipPath id="pad8c4dd46e">
   <rect x="57.6" y="41.472" width="357.12" height="266.112"/>
  </clipPath>
 </defs>
</svg>
