<?xml version="1.0" encoding="utf-8" standalone="no"?>
<!DOCTYPE svg PUBLIC "-//W3C//DTD SVG 1.1//EN"
  "http://www.w3.org/Graphics/SVG/1.1/DTD/svg11.dtd">
<svg xmlns:xlink="http://www.w3.org/1999/xlink" width="460.8pt" height="345.6pt" viewBox="0 0 460.8 345.6" xmlns="http://www.w3.org/2000/svg" version="1.1">
 <metadata>
  <rdf:RDF xmlns:dc="http://purl.org/dc/elements/1.1/" xmlns:cc="http://creativecommons.org/ns#" xmlns:rdf="http://www.w3.org/1999/02/22-rdf-syntax-ns#">
   <cc:Work>
    <dc:type rdf:resource="http://purl.org/dc/dcmitype/StillImage"/>
    <dc:date>2024-10-29T20:54:59.920628</dc:date>
    <dc:format>image/svg+xml</dc:format>
    <dc:creator>
     <cc:Agent>
      <dc:title>Matplotlib v3.9.2, https://matplotlib.org/</dc:title>
     </cc:Agent>
    </dc:creator>
   </cc:Work>
  </rdf:RDF>
 </metadata>
 <defs>
  <style type="text/css">*{stroke-linejoin: round; stroke-linecap: butt}</style>
 </defs>
 <g id="figure_1">
  <g id="patch_1">
   <path d="M 0 345.6
L 460.8 345.6
L 460.8 0
L 0 0
z
" style="fill: #212946"/>
  </g>
  <g id="axes_1">
   <g id="patch_2">
    <path d="M 57.6 307.584
L 414.72 307.584
L 414.72 41.472
L 57.6 41.472
z
" style="fill: #212946"/>
   </g>
   <g id="matplotlib.axis_1">
    <g id="xtick_1">
     <g id="line2d_1">
      <path d="M 73.832727 307.584
L 73.832727 41.472
" clip-path="url(#p90297c90af)" style="fill: none; stroke: #2a3459; stroke-width: 0.8; stroke-linecap: round"/>
     </g>
     <g id="line2d_2"/>
     <g id="text_1">
      <!-- 10 -->
      <g style="fill: #e6e6e6" transform="translate(68.27179 318.330875) scale(0.1 -0.1)">
       <defs>
        <path id="LiberationSans-31" d="M 488 0
L 488 478
L 1609 478
L 1609 3866
L 616 3156
L 616 3688
L 1656 4403
L 2175 4403
L 2175 478
L 3247 478
L 3247 0
L 488 0
z
" transform="scale(0.015625)"/>
        <path id="LiberationSans-30" d="M 3309 2203
Q 3309 1100 2920 518
Q 2531 -63 1772 -63
Q 1013 -63 631 515
Q 250 1094 250 2203
Q 250 3338 620 3903
Q 991 4469 1791 4469
Q 2569 4469 2939 3897
Q 3309 3325 3309 2203
z
M 2738 2203
Q 2738 3156 2517 3584
Q 2297 4013 1791 4013
Q 1272 4013 1045 3591
Q 819 3169 819 2203
Q 819 1266 1048 831
Q 1278 397 1778 397
Q 2275 397 2506 840
Q 2738 1284 2738 2203
z
" transform="scale(0.015625)"/>
       </defs>
       <use xlink:href="#LiberationSans-31"/>
       <use xlink:href="#LiberationSans-30" x="55.615234"/>
      </g>
     </g>
    </g>
    <g id="xtick_2">
     <g id="line2d_3">
      <path d="M 117.12 307.584
L 117.12 41.472
" clip-path="url(#p90297c90af)" style="fill: none; stroke: #2a3459; stroke-width: 0.8; stroke-linecap: round"/>
     </g>
     <g id="line2d_4"/>
     <g id="text_2">
      <!-- 12 -->
      <g style="fill: #e6e6e6" transform="translate(111.559063 318.330875) scale(0.1 -0.1)">
       <defs>
        <path id="LiberationSans-32" d="M 322 0
L 322 397
Q 481 763 711 1042
Q 941 1322 1194 1548
Q 1447 1775 1695 1969
Q 1944 2163 2144 2356
Q 2344 2550 2467 2762
Q 2591 2975 2591 3244
Q 2591 3606 2378 3806
Q 2166 4006 1788 4006
Q 1428 4006 1195 3811
Q 963 3616 922 3263
L 347 3316
Q 409 3844 795 4156
Q 1181 4469 1788 4469
Q 2453 4469 2811 4155
Q 3169 3841 3169 3263
Q 3169 3006 3051 2753
Q 2934 2500 2703 2247
Q 2472 1994 1819 1463
Q 1459 1169 1246 933
Q 1034 697 941 478
L 3238 478
L 3238 0
L 322 0
z
" transform="scale(0.015625)"/>
       </defs>
       <use xlink:href="#LiberationSans-31"/>
       <use xlink:href="#LiberationSans-32" x="55.615234"/>
      </g>
     </g>
    </g>
    <g id="xtick_3">
     <g id="line2d_5">
      <path d="M 160.407273 307.584
L 160.407273 41.472
" clip-path="url(#p90297c90af)" style="fill: none; stroke: #2a3459; stroke-width: 0.8; stroke-linecap: round"/>
     </g>
     <g id="line2d_6"/>
     <g id="text_3">
      <!-- 14 -->
      <g style="fill: #e6e6e6" transform="translate(154.846335 318.330875) scale(0.1 -0.1)">
       <defs>
        <path id="LiberationSans-34" d="M 2753 997
L 2753 0
L 2222 0
L 2222 997
L 147 997
L 147 1434
L 2163 4403
L 2753 4403
L 2753 1441
L 3372 1441
L 3372 997
L 2753 997
z
M 2222 3769
Q 2216 3750 2134 3603
Q 2053 3456 2013 3397
L 884 1734
L 716 1503
L 666 1441
L 2222 1441
L 2222 3769
z
" transform="scale(0.015625)"/>
       </defs>
       <use xlink:href="#LiberationSans-31"/>
       <use xlink:href="#LiberationSans-34" x="55.615234"/>
      </g>
     </g>
    </g>
    <g id="xtick_4">
     <g id="line2d_7">
      <path d="M 203.694545 307.584
L 203.694545 41.472
" clip-path="url(#p90297c90af)" style="fill: none; stroke: #2a3459; stroke-width: 0.8; stroke-linecap: round"/>
     </g>
     <g id="line2d_8"/>
     <g id="text_4">
      <!-- 16 -->
      <g style="fill: #e6e6e6" transform="translate(198.133608 318.330875) scale(0.1 -0.1)">
       <defs>
        <path id="LiberationSans-36" d="M 3278 1441
Q 3278 744 2900 340
Q 2522 -63 1856 -63
Q 1113 -63 719 490
Q 325 1044 325 2100
Q 325 3244 734 3856
Q 1144 4469 1900 4469
Q 2897 4469 3156 3572
L 2619 3475
Q 2453 4013 1894 4013
Q 1413 4013 1148 3564
Q 884 3116 884 2266
Q 1038 2550 1316 2698
Q 1594 2847 1953 2847
Q 2563 2847 2920 2465
Q 3278 2084 3278 1441
z
M 2706 1416
Q 2706 1894 2472 2153
Q 2238 2413 1819 2413
Q 1425 2413 1183 2183
Q 941 1953 941 1550
Q 941 1041 1192 716
Q 1444 391 1838 391
Q 2244 391 2475 664
Q 2706 938 2706 1416
z
" transform="scale(0.015625)"/>
       </defs>
       <use xlink:href="#LiberationSans-31"/>
       <use xlink:href="#LiberationSans-36" x="55.615234"/>
      </g>
     </g>
    </g>
    <g id="xtick_5">
     <g id="line2d_9">
      <path d="M 246.981818 307.584
L 246.981818 41.472
" clip-path="url(#p90297c90af)" style="fill: none; stroke: #2a3459; stroke-width: 0.8; stroke-linecap: round"/>
     </g>
     <g id="line2d_10"/>
     <g id="text_5">
      <!-- 18 -->
      <g style="fill: #e6e6e6" transform="translate(241.420881 318.330875) scale(0.1 -0.1)">
       <defs>
        <path id="LiberationSans-38" d="M 3281 1228
Q 3281 619 2893 278
Q 2506 -63 1781 -63
Q 1075 -63 676 271
Q 278 606 278 1222
Q 278 1653 525 1947
Q 772 2241 1156 2303
L 1156 2316
Q 797 2400 589 2681
Q 381 2963 381 3341
Q 381 3844 757 4156
Q 1134 4469 1769 4469
Q 2419 4469 2795 4162
Q 3172 3856 3172 3334
Q 3172 2956 2962 2675
Q 2753 2394 2391 2322
L 2391 2309
Q 2813 2241 3047 1952
Q 3281 1663 3281 1228
z
M 2588 3303
Q 2588 4050 1769 4050
Q 1372 4050 1164 3862
Q 956 3675 956 3303
Q 956 2925 1170 2726
Q 1384 2528 1775 2528
Q 2172 2528 2380 2711
Q 2588 2894 2588 3303
z
M 2697 1281
Q 2697 1691 2453 1898
Q 2209 2106 1769 2106
Q 1341 2106 1100 1882
Q 859 1659 859 1269
Q 859 359 1788 359
Q 2247 359 2472 579
Q 2697 800 2697 1281
z
" transform="scale(0.015625)"/>
       </defs>
       <use xlink:href="#LiberationSans-31"/>
       <use xlink:href="#LiberationSans-38" x="55.615234"/>
      </g>
     </g>
    </g>
    <g id="xtick_6">
     <g id="line2d_11">
      <path d="M 290.269091 307.584
L 290.269091 41.472
" clip-path="url(#p90297c90af)" style="fill: none; stroke: #2a3459; stroke-width: 0.8; stroke-linecap: round"/>
     </g>
     <g id="line2d_12"/>
     <g id="text_6">
      <!-- 20 -->
      <g style="fill: #e6e6e6" transform="translate(284.708153 318.330875) scale(0.1 -0.1)">
       <use xlink:href="#LiberationSans-32"/>
       <use xlink:href="#LiberationSans-30" x="55.615234"/>
      </g>
     </g>
    </g>
    <g id="xtick_7">
     <g id="line2d_13">
      <path d="M 333.556364 307.584
L 333.556364 41.472
" clip-path="url(#p90297c90af)" style="fill: none; stroke: #2a3459; stroke-width: 0.8; stroke-linecap: round"/>
     </g>
     <g id="line2d_14"/>
     <g id="text_7">
      <!-- 22 -->
      <g style="fill: #e6e6e6" transform="translate(327.995426 318.330875) scale(0.1 -0.1)">
       <use xlink:href="#LiberationSans-32"/>
       <use xlink:href="#LiberationSans-32" x="55.615234"/>
      </g>
     </g>
    </g>
    <g id="xtick_8">
     <g id="line2d_15">
      <path d="M 376.843636 307.584
L 376.843636 41.472
" clip-path="url(#p90297c90af)" style="fill: none; stroke: #2a3459; stroke-width: 0.8; stroke-linecap: round"/>
     </g>
     <g id="line2d_16"/>
     <g id="text_8">
      <!-- 24 -->
      <g style="fill: #e6e6e6" transform="translate(371.282699 318.330875) scale(0.1 -0.1)">
       <use xlink:href="#LiberationSans-32"/>
       <use xlink:href="#LiberationSans-34" x="55.615234"/>
      </g>
     </g>
    </g>
    <g id="text_9">
     <!-- Перцентиль -->
     <g style="fill: #e6e6e6" transform="translate(208.051406 331.65275) scale(0.1 -0.1)">
      <defs>
       <path id="LiberationSans-41f" d="M 3495 0
L 3495 3900
L 1114 3900
L 1114 0
L 517 0
L 517 4403
L 4092 4403
L 4092 0
L 3495 0
z
" transform="scale(0.015625)"/>
       <path id="LiberationSans-435" d="M 863 1572
Q 863 991 1103 675
Q 1344 359 1806 359
Q 2172 359 2392 506
Q 2613 653 2691 878
L 3184 738
Q 2881 -63 1806 -63
Q 1056 -63 664 384
Q 272 831 272 1713
Q 272 2550 664 2997
Q 1056 3444 1784 3444
Q 3275 3444 3275 1647
L 3275 1572
L 863 1572
z
M 2694 2003
Q 2647 2538 2422 2783
Q 2197 3028 1775 3028
Q 1366 3028 1127 2754
Q 888 2481 869 2003
L 2694 2003
z
" transform="scale(0.015625)"/>
       <path id="LiberationSans-440" d="M 3291 1706
Q 3291 -63 2047 -63
Q 1266 -63 997 525
L 981 525
Q 994 500 994 -6
L 994 -1328
L 431 -1328
L 431 2691
Q 431 3213 413 3381
L 956 3381
Q 959 3369 965 3292
Q 972 3216 980 3056
Q 988 2897 988 2838
L 1000 2838
Q 1150 3150 1397 3295
Q 1644 3441 2047 3441
Q 2672 3441 2981 3022
Q 3291 2603 3291 1706
z
M 2700 1694
Q 2700 2400 2509 2703
Q 2319 3006 1903 3006
Q 1569 3006 1380 2865
Q 1191 2725 1092 2426
Q 994 2128 994 1650
Q 994 984 1206 668
Q 1419 353 1897 353
Q 2316 353 2508 661
Q 2700 969 2700 1694
z
" transform="scale(0.015625)"/>
       <path id="LiberationSans-446" d="M 1006 3381
L 1006 409
L 2497 409
L 2497 3381
L 3059 3381
L 3059 409
L 3519 409
L 3519 -1275
L 3009 -1275
L 3009 0
L 444 0
L 444 3381
L 1006 3381
z
" transform="scale(0.015625)"/>
       <path id="LiberationSans-43d" d="M 1006 3381
L 1006 1950
L 2528 1950
L 2528 3381
L 3091 3381
L 3091 0
L 2528 0
L 2528 1541
L 1006 1541
L 1006 0
L 444 0
L 444 3381
L 1006 3381
z
" transform="scale(0.015625)"/>
       <path id="LiberationSans-442" d="M 109 3381
L 2822 3381
L 2822 2972
L 1747 2972
L 1747 0
L 1184 0
L 1184 2972
L 109 2972
L 109 3381
z
" transform="scale(0.015625)"/>
       <path id="LiberationSans-438" d="M 988 3381
L 988 1531
L 956 666
L 2516 3381
L 3131 3381
L 3131 0
L 2594 0
L 2594 2063
Q 2594 2175 2605 2403
Q 2616 2631 2625 2728
L 1044 0
L 444 0
L 444 3381
L 988 3381
z
" transform="scale(0.015625)"/>
       <path id="LiberationSans-43b" d="M 2725 0
L 2725 2972
L 1553 2972
Q 1369 1609 1269 1132
Q 1169 656 1053 412
Q 938 169 767 53
Q 597 -63 328 -63
Q 172 -63 34 -22
L 34 381
Q 113 353 247 353
Q 419 353 523 525
Q 628 697 714 1119
Q 800 1541 909 2366
L 1047 3381
L 3291 3381
L 3291 0
L 2725 0
z
" transform="scale(0.015625)"/>
       <path id="LiberationSans-44c" d="M 1775 1950
Q 2416 1950 2744 1720
Q 3072 1491 3072 994
Q 3072 513 2734 256
Q 2397 0 1778 0
L 444 0
L 444 3381
L 1006 3381
L 1006 1950
L 1775 1950
z
M 1006 397
L 1694 397
Q 2100 397 2287 540
Q 2475 684 2475 994
Q 2475 1288 2294 1423
Q 2113 1559 1697 1559
L 1006 1559
L 1006 397
z
" transform="scale(0.015625)"/>
      </defs>
      <use xlink:href="#LiberationSans-41f"/>
      <use xlink:href="#LiberationSans-435" x="71.875"/>
      <use xlink:href="#LiberationSans-440" x="127.490234"/>
      <use xlink:href="#LiberationSans-446" x="183.105469"/>
      <use xlink:href="#LiberationSans-435" x="239.255859"/>
      <use xlink:href="#LiberationSans-43d" x="294.871094"/>
      <use xlink:href="#LiberationSans-442" x="350.095703"/>
      <use xlink:href="#LiberationSans-438" x="395.896484"/>
      <use xlink:href="#LiberationSans-43b" x="451.755859"/>
      <use xlink:href="#LiberationSans-44c" x="510.105469"/>
     </g>
    </g>
   </g>
   <g id="matplotlib.axis_2">
    <g id="ytick_1">
     <g id="line2d_17">
      <path d="M 57.6 304.680112
L 414.72 304.680112
" clip-path="url(#p90297c90af)" style="fill: none; stroke: #2a3459; stroke-width: 0.8; stroke-linecap: round"/>
     </g>
     <g id="line2d_18"/>
     <g id="text_10">
      <!-- 0.0 -->
      <g style="fill: #e6e6e6" transform="translate(40.2 308.303549) scale(0.1 -0.1)">
       <defs>
        <path id="LiberationSans-2e" d="M 584 0
L 584 684
L 1194 684
L 1194 0
L 584 0
z
" transform="scale(0.015625)"/>
       </defs>
       <use xlink:href="#LiberationSans-30"/>
       <use xlink:href="#LiberationSans-2e" x="55.615234"/>
       <use xlink:href="#LiberationSans-30" x="83.398438"/>
      </g>
     </g>
    </g>
    <g id="ytick_2">
     <g id="line2d_19">
      <path d="M 57.6 266.380403
L 414.72 266.380403
" clip-path="url(#p90297c90af)" style="fill: none; stroke: #2a3459; stroke-width: 0.8; stroke-linecap: round"/>
     </g>
     <g id="line2d_20"/>
     <g id="text_11">
      <!-- 0.5 -->
      <g style="fill: #e6e6e6" transform="translate(40.2 270.00384) scale(0.1 -0.1)">
       <defs>
        <path id="LiberationSans-35" d="M 3291 1434
Q 3291 738 2877 337
Q 2463 -63 1728 -63
Q 1113 -63 734 206
Q 356 475 256 984
L 825 1050
Q 1003 397 1741 397
Q 2194 397 2450 670
Q 2706 944 2706 1422
Q 2706 1838 2448 2094
Q 2191 2350 1753 2350
Q 1525 2350 1328 2278
Q 1131 2206 934 2034
L 384 2034
L 531 4403
L 3034 4403
L 3034 3925
L 1044 3925
L 959 2528
Q 1325 2809 1869 2809
Q 2519 2809 2905 2428
Q 3291 2047 3291 1434
z
" transform="scale(0.015625)"/>
       </defs>
       <use xlink:href="#LiberationSans-30"/>
       <use xlink:href="#LiberationSans-2e" x="55.615234"/>
       <use xlink:href="#LiberationSans-35" x="83.398438"/>
      </g>
     </g>
    </g>
    <g id="ytick_3">
     <g id="line2d_21">
      <path d="M 57.6 228.080694
L 414.72 228.080694
" clip-path="url(#p90297c90af)" style="fill: none; stroke: #2a3459; stroke-width: 0.8; stroke-linecap: round"/>
     </g>
     <g id="line2d_22"/>
     <g id="text_12">
      <!-- 1.0 -->
      <g style="fill: #e6e6e6" transform="translate(40.2 231.704131) scale(0.1 -0.1)">
       <use xlink:href="#LiberationSans-31"/>
       <use xlink:href="#LiberationSans-2e" x="55.615234"/>
       <use xlink:href="#LiberationSans-30" x="83.398438"/>
      </g>
     </g>
    </g>
    <g id="ytick_4">
     <g id="line2d_23">
      <path d="M 57.6 189.780985
L 414.72 189.780985
" clip-path="url(#p90297c90af)" style="fill: none; stroke: #2a3459; stroke-width: 0.8; stroke-linecap: round"/>
     </g>
     <g id="line2d_24"/>
     <g id="text_13">
      <!-- 1.5 -->
      <g style="fill: #e6e6e6" transform="translate(40.2 193.404422) scale(0.1 -0.1)">
       <use xlink:href="#LiberationSans-31"/>
       <use xlink:href="#LiberationSans-2e" x="55.615234"/>
       <use xlink:href="#LiberationSans-35" x="83.398438"/>
      </g>
     </g>
    </g>
    <g id="ytick_5">
     <g id="line2d_25">
      <path d="M 57.6 151.481276
L 414.72 151.481276
" clip-path="url(#p90297c90af)" style="fill: none; stroke: #2a3459; stroke-width: 0.8; stroke-linecap: round"/>
     </g>
     <g id="line2d_26"/>
     <g id="text_14">
      <!-- 2.0 -->
      <g style="fill: #e6e6e6" transform="translate(40.2 155.104713) scale(0.1 -0.1)">
       <use xlink:href="#LiberationSans-32"/>
       <use xlink:href="#LiberationSans-2e" x="55.615234"/>
       <use xlink:href="#LiberationSans-30" x="83.398438"/>
      </g>
     </g>
    </g>
    <g id="ytick_6">
     <g id="line2d_27">
      <path d="M 57.6 113.181567
L 414.72 113.181567
" clip-path="url(#p90297c90af)" style="fill: none; stroke: #2a3459; stroke-width: 0.8; stroke-linecap: round"/>
     </g>
     <g id="line2d_28"/>
     <g id="text_15">
      <!-- 2.5 -->
      <g style="fill: #e6e6e6" transform="translate(40.2 116.805005) scale(0.1 -0.1)">
       <use xlink:href="#LiberationSans-32"/>
       <use xlink:href="#LiberationSans-2e" x="55.615234"/>
       <use xlink:href="#LiberationSans-35" x="83.398438"/>
      </g>
     </g>
    </g>
    <g id="ytick_7">
     <g id="line2d_29">
      <path d="M 57.6 74.881858
L 414.72 74.881858
" clip-path="url(#p90297c90af)" style="fill: none; stroke: #2a3459; stroke-width: 0.8; stroke-linecap: round"/>
     </g>
     <g id="line2d_30"/>
     <g id="text_16">
      <!-- 3.0 -->
      <g style="fill: #e6e6e6" transform="translate(40.2 78.505296) scale(0.1 -0.1)">
       <defs>
        <path id="LiberationSans-33" d="M 3278 1216
Q 3278 606 2890 271
Q 2503 -63 1784 -63
Q 1116 -63 717 239
Q 319 541 244 1131
L 825 1184
Q 938 403 1784 403
Q 2209 403 2451 612
Q 2694 822 2694 1234
Q 2694 1594 2417 1795
Q 2141 1997 1619 1997
L 1300 1997
L 1300 2484
L 1606 2484
Q 2069 2484 2323 2686
Q 2578 2888 2578 3244
Q 2578 3597 2370 3801
Q 2163 4006 1753 4006
Q 1381 4006 1151 3815
Q 922 3625 884 3278
L 319 3322
Q 381 3863 767 4166
Q 1153 4469 1759 4469
Q 2422 4469 2789 4161
Q 3156 3853 3156 3303
Q 3156 2881 2920 2617
Q 2684 2353 2234 2259
L 2234 2247
Q 2728 2194 3003 1916
Q 3278 1638 3278 1216
z
" transform="scale(0.015625)"/>
       </defs>
       <use xlink:href="#LiberationSans-33"/>
       <use xlink:href="#LiberationSans-2e" x="55.615234"/>
       <use xlink:href="#LiberationSans-30" x="83.398438"/>
      </g>
     </g>
    </g>
    <g id="text_17">
     <!-- Время работы, с -->
     <g style="fill: #e6e6e6" transform="translate(34.125 213.213156) rotate(-90) scale(0.1 -0.1)">
      <defs>
       <path id="LiberationSans-412" d="M 3931 1241
Q 3931 653 3503 326
Q 3075 0 2313 0
L 525 0
L 525 4403
L 2125 4403
Q 3675 4403 3675 3334
Q 3675 2944 3456 2678
Q 3238 2413 2838 2322
Q 3363 2259 3647 1970
Q 3931 1681 3931 1241
z
M 3075 3263
Q 3075 3619 2831 3772
Q 2588 3925 2125 3925
L 1122 3925
L 1122 2531
L 2125 2531
Q 2603 2531 2839 2711
Q 3075 2891 3075 3263
z
M 3328 1288
Q 3328 2066 2234 2066
L 1122 2066
L 1122 478
L 2281 478
Q 2828 478 3078 681
Q 3328 884 3328 1288
z
" transform="scale(0.015625)"/>
       <path id="LiberationSans-43c" d="M 2459 0
L 1981 0
L 969 2972
Q 988 2484 988 2263
L 988 0
L 444 0
L 444 3381
L 1319 3381
L 2006 1316
Q 2169 869 2219 422
Q 2288 925 2431 1316
L 3119 3381
L 3959 3381
L 3959 0
L 3419 0
L 3419 2263
L 3428 2619
L 3444 2978
L 2459 0
z
" transform="scale(0.015625)"/>
       <path id="LiberationSans-44f" d="M 1672 1431
L 688 0
L 53 0
L 1128 1472
Q 350 1631 350 2447
Q 350 2913 687 3147
Q 1025 3381 1672 3381
L 3022 3381
L 3022 0
L 2459 0
L 2459 1431
L 1672 1431
z
M 2459 2984
L 1728 2984
Q 1322 2984 1134 2840
Q 947 2697 947 2406
Q 947 2113 1114 1967
Q 1281 1822 1669 1822
L 2459 1822
L 2459 2984
z
" transform="scale(0.015625)"/>
       <path id="LiberationSans-20" transform="scale(0.015625)"/>
       <path id="LiberationSans-430" d="M 1294 -63
Q 784 -63 528 206
Q 272 475 272 944
Q 272 1469 617 1750
Q 963 2031 1731 2050
L 2491 2063
L 2491 2247
Q 2491 2659 2316 2837
Q 2141 3016 1766 3016
Q 1388 3016 1216 2887
Q 1044 2759 1009 2478
L 422 2531
Q 566 3444 1778 3444
Q 2416 3444 2737 3151
Q 3059 2859 3059 2306
L 3059 850
Q 3059 600 3125 473
Q 3191 347 3375 347
Q 3456 347 3559 369
L 3559 19
Q 3347 -31 3125 -31
Q 2813 -31 2670 133
Q 2528 297 2509 647
L 2491 647
Q 2275 259 1989 98
Q 1703 -63 1294 -63
z
M 1422 359
Q 1731 359 1972 500
Q 2213 641 2352 886
Q 2491 1131 2491 1391
L 2491 1669
L 1875 1656
Q 1478 1650 1273 1575
Q 1069 1500 959 1344
Q 850 1188 850 934
Q 850 659 998 509
Q 1147 359 1422 359
z
" transform="scale(0.015625)"/>
       <path id="LiberationSans-431" d="M 2806 1569
Q 2806 2200 2600 2498
Q 2394 2797 1928 2797
Q 1431 2797 1198 2494
Q 966 2191 966 1569
Q 966 963 1183 658
Q 1400 353 1866 353
Q 2369 353 2587 645
Q 2806 938 2806 1569
z
M 2047 3209
Q 2741 3209 3069 2801
Q 3397 2394 3397 1575
Q 3397 747 3006 342
Q 2616 -63 1872 -63
Q 1103 -63 739 440
Q 375 944 375 1988
Q 375 2519 447 2920
Q 519 3322 672 3612
Q 825 3903 1067 4097
Q 1309 4291 1676 4409
Q 2044 4528 3238 4694
L 3238 4191
Q 1928 4022 1542 3869
Q 1156 3716 1000 3381
Q 844 3047 831 2381
Q 966 2772 1281 2990
Q 1597 3209 2047 3209
z
" transform="scale(0.015625)"/>
       <path id="LiberationSans-43e" d="M 3291 1694
Q 3291 806 2900 371
Q 2509 -63 1766 -63
Q 1025 -63 647 389
Q 269 841 269 1694
Q 269 3444 1784 3444
Q 2559 3444 2925 3017
Q 3291 2591 3291 1694
z
M 2700 1694
Q 2700 2394 2492 2711
Q 2284 3028 1794 3028
Q 1300 3028 1079 2704
Q 859 2381 859 1694
Q 859 1025 1076 689
Q 1294 353 1759 353
Q 2266 353 2483 678
Q 2700 1003 2700 1694
z
" transform="scale(0.015625)"/>
       <path id="LiberationSans-44b" d="M 1719 1950
Q 2359 1950 2687 1720
Q 3016 1491 3016 994
Q 3016 513 2678 256
Q 2341 0 1722 0
L 444 0
L 444 3381
L 1006 3381
L 1006 1950
L 1719 1950
z
M 1006 397
L 1638 397
Q 2044 397 2231 540
Q 2419 684 2419 994
Q 2419 1288 2237 1423
Q 2056 1559 1641 1559
L 1006 1559
L 1006 397
z
M 3594 0
L 3594 3381
L 4156 3381
L 4156 0
L 3594 0
z
" transform="scale(0.015625)"/>
       <path id="LiberationSans-2c" d="M 1203 684
L 1203 159
Q 1203 -172 1143 -394
Q 1084 -616 959 -819
L 575 -819
Q 869 -394 869 0
L 594 0
L 594 684
L 1203 684
z
" transform="scale(0.015625)"/>
       <path id="LiberationSans-441" d="M 859 1706
Q 859 1031 1071 706
Q 1284 381 1713 381
Q 2013 381 2214 543
Q 2416 706 2463 1044
L 3031 1006
Q 2966 519 2616 228
Q 2266 -63 1728 -63
Q 1019 -63 645 385
Q 272 834 272 1694
Q 272 2547 647 2995
Q 1022 3444 1722 3444
Q 2241 3444 2583 3175
Q 2925 2906 3013 2434
L 2434 2391
Q 2391 2672 2212 2837
Q 2034 3003 1706 3003
Q 1259 3003 1059 2706
Q 859 2409 859 1706
z
" transform="scale(0.015625)"/>
      </defs>
      <use xlink:href="#LiberationSans-412"/>
      <use xlink:href="#LiberationSans-440" x="66.699219"/>
      <use xlink:href="#LiberationSans-435" x="122.314453"/>
      <use xlink:href="#LiberationSans-43c" x="177.929688"/>
      <use xlink:href="#LiberationSans-44f" x="246.679688"/>
      <use xlink:href="#LiberationSans-20" x="300.830078"/>
      <use xlink:href="#LiberationSans-440" x="328.613281"/>
      <use xlink:href="#LiberationSans-430" x="384.228516"/>
      <use xlink:href="#LiberationSans-431" x="439.84375"/>
      <use xlink:href="#LiberationSans-43e" x="497.119141"/>
      <use xlink:href="#LiberationSans-442" x="550.484375"/>
      <use xlink:href="#LiberationSans-44b" x="596.285156"/>
      <use xlink:href="#LiberationSans-2c" x="668.160156"/>
      <use xlink:href="#LiberationSans-20" x="695.943359"/>
      <use xlink:href="#LiberationSans-441" x="723.726562"/>
     </g>
    </g>
    <g id="text_18">
     <!-- 1e−6 -->
     <g style="fill: #e6e6e6" transform="translate(57.6 38.472) scale(0.1 -0.1)">
      <defs>
       <path id="LiberationSans-65" d="M 863 1572
Q 863 991 1103 675
Q 1344 359 1806 359
Q 2172 359 2392 506
Q 2613 653 2691 878
L 3184 738
Q 2881 -63 1806 -63
Q 1056 -63 664 384
Q 272 831 272 1713
Q 272 2550 664 2997
Q 1056 3444 1784 3444
Q 3275 3444 3275 1647
L 3275 1572
L 863 1572
z
M 2694 2003
Q 2647 2538 2422 2783
Q 2197 3028 1775 3028
Q 1366 3028 1127 2754
Q 888 2481 869 2003
L 2694 2003
z
" transform="scale(0.015625)"/>
       <path id="LiberationSans-2212" d="M 316 1900
L 316 2356
L 3425 2356
L 3425 1900
L 316 1900
z
" transform="scale(0.015625)"/>
      </defs>
      <use xlink:href="#LiberationSans-31"/>
      <use xlink:href="#LiberationSans-65" x="55.615234"/>
      <use xlink:href="#LiberationSans-2212" x="111.230469"/>
      <use xlink:href="#LiberationSans-36" x="169.628906"/>
     </g>
    </g>
   </g>
   <g id="line2d_31">
    <path d="M 73.832727 265.223671
L 95.476364 263.622118
L 117.12 261.487364
L 138.763636 257.619705
L 160.407273 253.194466
L 182.050909 247.295625
L 203.694545 237.609677
L 225.338182 219.63943
L 246.981818 208.011624
L 268.625455 208.011624
L 290.269091 204.472775
L 311.912727 195.448711
L 333.556364 169.724319
L 355.2 121.98586
L 376.843636 82.906299
L 398.487273 53.568
" clip-path="url(#p90297c90af)" style="fill: none; stroke: #18c0c4; stroke-width: 1.5; stroke-linecap: round"/>
   </g>
   <g id="line2d_32">
    <path d="M 73.832727 294.722223
L 95.476364 294.722223
L 117.12 294.722223
L 138.763636 294.722223
L 160.407273 294.722223
L 182.050909 294.722223
L 203.694545 294.722223
L 225.338182 294.722223
L 246.981818 294.722223
L 268.625455 294.722223
L 290.269091 294.722223
L 311.912727 294.722223
L 333.556364 294.722162
L 355.2 294.722019
L 376.843636 294.703619
L 398.487273 294.664678
" clip-path="url(#p90297c90af)" style="fill: none; stroke: #f62196; stroke-width: 1.5; stroke-linecap: round"/>
   </g>
   <g id="line2d_33">
    <path d="M 73.832727 295.488
L 95.476364 295.488
L 117.12 295.488
L 138.763636 295.488
L 160.407273 295.488
L 182.050909 295.488
L 203.694545 295.475783
L 225.338182 295.436842
L 246.981818 295.411645
L 268.625455 295.411645
L 290.269091 295.411645
L 311.912727 295.411645
L 333.556364 295.411584
L 355.2 295.411442
L 376.843636 295.245972
L 398.487273 294.894509
" clip-path="url(#p90297c90af)" style="fill: none; stroke: #a267f5; stroke-width: 1.5; stroke-linecap: round"/>
   </g>
   <g id="line2d_34">
    <path d="M 73.832727 264.695318
L 95.476364 264.304629
L 117.12 263.913941
L 138.763636 263.523253
L 160.407273 263.229083
L 182.050909 263.19
L 203.694545 262.56264
L 225.338182 260.648423
L 246.981818 256.638468
L 268.625455 248.786327
L 290.269091 243.875572
L 311.912727 243.523967
L 333.556364 242.464575
L 355.2 240.472192
L 376.843636 239.25194
L 398.487273 238.900334
" clip-path="url(#p90297c90af)" style="fill: none; stroke: #f3907e; stroke-width: 1.5; stroke-linecap: round"/>
   </g>
   <g id="line2d_35">
    <path d="M 73.832727 270.064842
L 95.476364 269.713379
L 117.12 268.332363
L 138.763636 263.605303
L 160.407273 259.843435
L 182.050909 258.632428
L 203.694545 254.504514
L 225.338182 243.995862
L 246.981818 232.618538
L 268.625455 219.648649
L 290.269091 210.70795
L 311.912727 208.012499
L 333.556364 205.451799
L 355.2 203.068728
L 376.843636 201.439395
L 398.487273 200.658018
" clip-path="url(#p90297c90af)" style="fill: none; stroke-dasharray: 5.55,2.4; stroke-dashoffset: 0; stroke: #ffe46b; stroke-width: 1.5"/>
   </g>
   <g id="line2d_36">
    <path d="M 73.832727 290.892223
L 95.476364 290.892223
L 117.12 290.892223
L 138.763636 290.892223
L 160.407273 290.892223
L 182.050909 290.892223
L 203.694545 290.892223
L 225.338182 290.892223
L 246.981818 290.878429
L 268.625455 290.839346
L 290.269091 290.815589
L 311.912727 290.815589
L 333.556364 290.663917
L 355.2 290.312311
L 376.843636 290.107775
L 398.487273 290.068692
" clip-path="url(#p90297c90af)" style="fill: none; stroke-dasharray: 5.55,2.4; stroke-dashoffset: 0; stroke: #fefeff; stroke-width: 1.5"/>
   </g>
   <g id="patch_3">
    <path d="M 57.6 307.584
L 57.6 41.472
" style="fill: none"/>
   </g>
   <g id="patch_4">
    <path d="M 414.72 307.584
L 414.72 41.472
" style="fill: none"/>
   </g>
   <g id="patch_5">
    <path d="M 57.6 307.584
L 414.72 307.584
" style="fill: none"/>
   </g>
   <g id="patch_6">
    <path d="M 57.6 41.472
L 414.72 41.472
" style="fill: none"/>
   </g>
   <g id="legend_1">
    <g id="line2d_37">
     <path d="M 66.6 54.218875
L 76.6 54.218875
L 86.6 54.218875
" style="fill: none; stroke: #18c0c4; stroke-width: 1.5; stroke-linecap: round"/>
    </g>
    <g id="text_19">
     <!-- re-search -->
     <g style="fill: #e6e6e6" transform="translate(94.6 57.718875) scale(0.1 -0.1)">
      <defs>
       <path id="LiberationSans-72" d="M 444 0
L 444 2594
Q 444 2950 425 3381
L 956 3381
Q 981 2806 981 2691
L 994 2691
Q 1128 3125 1303 3284
Q 1478 3444 1797 3444
Q 1909 3444 2025 3413
L 2025 2897
Q 1913 2928 1725 2928
Q 1375 2928 1190 2626
Q 1006 2325 1006 1763
L 1006 0
L 444 0
z
" transform="scale(0.015625)"/>
       <path id="LiberationSans-2d" d="M 284 1450
L 284 1950
L 1847 1950
L 1847 1450
L 284 1450
z
" transform="scale(0.015625)"/>
       <path id="LiberationSans-73" d="M 2969 934
Q 2969 456 2608 196
Q 2247 -63 1597 -63
Q 966 -63 623 145
Q 281 353 178 794
L 675 891
Q 747 619 972 492
Q 1197 366 1597 366
Q 2025 366 2223 497
Q 2422 628 2422 891
Q 2422 1091 2284 1216
Q 2147 1341 1841 1422
L 1438 1528
Q 953 1653 748 1773
Q 544 1894 428 2066
Q 313 2238 313 2488
Q 313 2950 642 3192
Q 972 3434 1603 3434
Q 2163 3434 2492 3237
Q 2822 3041 2909 2606
L 2403 2544
Q 2356 2769 2151 2889
Q 1947 3009 1603 3009
Q 1222 3009 1040 2893
Q 859 2778 859 2544
Q 859 2400 934 2306
Q 1009 2213 1156 2147
Q 1303 2081 1775 1966
Q 2222 1853 2419 1758
Q 2616 1663 2730 1547
Q 2844 1431 2906 1279
Q 2969 1128 2969 934
z
" transform="scale(0.015625)"/>
       <path id="LiberationSans-61" d="M 1294 -63
Q 784 -63 528 206
Q 272 475 272 944
Q 272 1469 617 1750
Q 963 2031 1731 2050
L 2491 2063
L 2491 2247
Q 2491 2659 2316 2837
Q 2141 3016 1766 3016
Q 1388 3016 1216 2887
Q 1044 2759 1009 2478
L 422 2531
Q 566 3444 1778 3444
Q 2416 3444 2737 3151
Q 3059 2859 3059 2306
L 3059 850
Q 3059 600 3125 473
Q 3191 347 3375 347
Q 3456 347 3559 369
L 3559 19
Q 3347 -31 3125 -31
Q 2813 -31 2670 133
Q 2528 297 2509 647
L 2491 647
Q 2275 259 1989 98
Q 1703 -63 1294 -63
z
M 1422 359
Q 1731 359 1972 500
Q 2213 641 2352 886
Q 2491 1131 2491 1391
L 2491 1669
L 1875 1656
Q 1478 1650 1273 1575
Q 1069 1500 959 1344
Q 850 1188 850 934
Q 850 659 998 509
Q 1147 359 1422 359
z
" transform="scale(0.015625)"/>
       <path id="LiberationSans-63" d="M 859 1706
Q 859 1031 1071 706
Q 1284 381 1713 381
Q 2013 381 2214 543
Q 2416 706 2463 1044
L 3031 1006
Q 2966 519 2616 228
Q 2266 -63 1728 -63
Q 1019 -63 645 385
Q 272 834 272 1694
Q 272 2547 647 2995
Q 1022 3444 1722 3444
Q 2241 3444 2583 3175
Q 2925 2906 3013 2434
L 2434 2391
Q 2391 2672 2212 2837
Q 2034 3003 1706 3003
Q 1259 3003 1059 2706
Q 859 2409 859 1706
z
" transform="scale(0.015625)"/>
       <path id="LiberationSans-68" d="M 991 2803
Q 1172 3134 1426 3289
Q 1681 3444 2072 3444
Q 2622 3444 2883 3170
Q 3144 2897 3144 2253
L 3144 0
L 2578 0
L 2578 2144
Q 2578 2500 2512 2673
Q 2447 2847 2297 2928
Q 2147 3009 1881 3009
Q 1484 3009 1245 2734
Q 1006 2459 1006 1994
L 1006 0
L 444 0
L 444 4638
L 1006 4638
L 1006 3431
Q 1006 3241 995 3037
Q 984 2834 981 2803
L 991 2803
z
" transform="scale(0.015625)"/>
      </defs>
      <use xlink:href="#LiberationSans-72"/>
      <use xlink:href="#LiberationSans-65" x="33.300781"/>
      <use xlink:href="#LiberationSans-2d" x="88.916016"/>
      <use xlink:href="#LiberationSans-73" x="122.216797"/>
      <use xlink:href="#LiberationSans-65" x="172.216797"/>
      <use xlink:href="#LiberationSans-61" x="227.832031"/>
      <use xlink:href="#LiberationSans-72" x="283.447266"/>
      <use xlink:href="#LiberationSans-63" x="316.748047"/>
      <use xlink:href="#LiberationSans-68" x="366.748047"/>
     </g>
    </g>
    <g id="line2d_38">
     <path d="M 66.6 68.54075
L 76.6 68.54075
L 86.6 68.54075
" style="fill: none; stroke: #f62196; stroke-width: 1.5; stroke-linecap: round"/>
    </g>
    <g id="text_20">
     <!-- pcre2-search -->
     <g style="fill: #e6e6e6" transform="translate(94.6 72.04075) scale(0.1 -0.1)">
      <defs>
       <path id="LiberationSans-70" d="M 3291 1706
Q 3291 -63 2047 -63
Q 1266 -63 997 525
L 981 525
Q 994 500 994 -6
L 994 -1328
L 431 -1328
L 431 2691
Q 431 3213 413 3381
L 956 3381
Q 959 3369 965 3292
Q 972 3216 980 3056
Q 988 2897 988 2838
L 1000 2838
Q 1150 3150 1397 3295
Q 1644 3441 2047 3441
Q 2672 3441 2981 3022
Q 3291 2603 3291 1706
z
M 2700 1694
Q 2700 2400 2509 2703
Q 2319 3006 1903 3006
Q 1569 3006 1380 2865
Q 1191 2725 1092 2426
Q 994 2128 994 1650
Q 994 984 1206 668
Q 1419 353 1897 353
Q 2316 353 2508 661
Q 2700 969 2700 1694
z
" transform="scale(0.015625)"/>
      </defs>
      <use xlink:href="#LiberationSans-70"/>
      <use xlink:href="#LiberationSans-63" x="55.615234"/>
      <use xlink:href="#LiberationSans-72" x="105.615234"/>
      <use xlink:href="#LiberationSans-65" x="138.916016"/>
      <use xlink:href="#LiberationSans-32" x="194.53125"/>
      <use xlink:href="#LiberationSans-2d" x="250.146484"/>
      <use xlink:href="#LiberationSans-73" x="283.447266"/>
      <use xlink:href="#LiberationSans-65" x="333.447266"/>
      <use xlink:href="#LiberationSans-61" x="389.0625"/>
      <use xlink:href="#LiberationSans-72" x="444.677734"/>
      <use xlink:href="#LiberationSans-63" x="477.978516"/>
      <use xlink:href="#LiberationSans-68" x="527.978516"/>
     </g>
    </g>
    <g id="line2d_39">
     <path d="M 66.6 82.862625
L 76.6 82.862625
L 86.6 82.862625
" style="fill: none; stroke: #a267f5; stroke-width: 1.5; stroke-linecap: round"/>
    </g>
    <g id="text_21">
     <!-- pcre2+JIT-search -->
     <g style="fill: #e6e6e6" transform="translate(94.6 86.362625) scale(0.1 -0.1)">
      <defs>
       <path id="LiberationSans-2b" d="M 2097 1900
L 2097 563
L 1638 563
L 1638 1900
L 313 1900
L 313 2356
L 1638 2356
L 1638 3694
L 2097 3694
L 2097 2356
L 3422 2356
L 3422 1900
L 2097 1900
z
" transform="scale(0.015625)"/>
       <path id="LiberationSans-4a" d="M 1428 -63
Q 309 -63 100 1094
L 684 1191
Q 741 828 937 625
Q 1134 422 1431 422
Q 1756 422 1943 645
Q 2131 869 2131 1300
L 2131 3916
L 1284 3916
L 1284 4403
L 2725 4403
L 2725 1313
Q 2725 672 2378 304
Q 2031 -63 1428 -63
z
" transform="scale(0.015625)"/>
       <path id="LiberationSans-49" d="M 591 0
L 591 4403
L 1188 4403
L 1188 0
L 591 0
z
" transform="scale(0.015625)"/>
       <path id="LiberationSans-54" d="M 2250 3916
L 2250 0
L 1656 0
L 1656 3916
L 144 3916
L 144 4403
L 3763 4403
L 3763 3916
L 2250 3916
z
" transform="scale(0.015625)"/>
      </defs>
      <use xlink:href="#LiberationSans-70"/>
      <use xlink:href="#LiberationSans-63" x="55.615234"/>
      <use xlink:href="#LiberationSans-72" x="105.615234"/>
      <use xlink:href="#LiberationSans-65" x="138.916016"/>
      <use xlink:href="#LiberationSans-32" x="194.53125"/>
      <use xlink:href="#LiberationSans-2b" x="250.146484"/>
      <use xlink:href="#LiberationSans-4a" x="308.544922"/>
      <use xlink:href="#LiberationSans-49" x="358.544922"/>
      <use xlink:href="#LiberationSans-54" x="386.328125"/>
      <use xlink:href="#LiberationSans-2d" x="441.912109"/>
      <use xlink:href="#LiberationSans-73" x="475.212891"/>
      <use xlink:href="#LiberationSans-65" x="525.212891"/>
      <use xlink:href="#LiberationSans-61" x="580.828125"/>
      <use xlink:href="#LiberationSans-72" x="636.443359"/>
      <use xlink:href="#LiberationSans-63" x="669.744141"/>
      <use xlink:href="#LiberationSans-68" x="719.744141"/>
     </g>
    </g>
    <g id="line2d_40">
     <path d="M 66.6 97.1845
L 76.6 97.1845
L 86.6 97.1845
" style="fill: none; stroke: #f3907e; stroke-width: 1.5; stroke-linecap: round"/>
    </g>
    <g id="text_22">
     <!-- regex-search -->
     <g style="fill: #e6e6e6" transform="translate(94.6 100.6845) scale(0.1 -0.1)">
      <defs>
       <path id="LiberationSans-67" d="M 1713 -1328
Q 1159 -1328 831 -1111
Q 503 -894 409 -494
L 975 -413
Q 1031 -647 1223 -773
Q 1416 -900 1728 -900
Q 2569 -900 2569 84
L 2569 628
L 2563 628
Q 2403 303 2125 139
Q 1847 -25 1475 -25
Q 853 -25 561 387
Q 269 800 269 1684
Q 269 2581 583 3007
Q 897 3434 1538 3434
Q 1897 3434 2161 3270
Q 2425 3106 2569 2803
L 2575 2803
Q 2575 2897 2587 3128
Q 2600 3359 2613 3381
L 3147 3381
Q 3128 3213 3128 2681
L 3128 97
Q 3128 -1328 1713 -1328
z
M 2569 1691
Q 2569 2103 2456 2401
Q 2344 2700 2139 2858
Q 1934 3016 1675 3016
Q 1244 3016 1047 2703
Q 850 2391 850 1691
Q 850 997 1034 694
Q 1219 391 1666 391
Q 1931 391 2137 547
Q 2344 703 2456 995
Q 2569 1288 2569 1691
z
" transform="scale(0.015625)"/>
       <path id="LiberationSans-78" d="M 2503 0
L 1594 1388
L 678 0
L 72 0
L 1275 1738
L 128 3381
L 750 3381
L 1594 2066
L 2431 3381
L 3059 3381
L 1913 1744
L 3131 0
L 2503 0
z
" transform="scale(0.015625)"/>
      </defs>
      <use xlink:href="#LiberationSans-72"/>
      <use xlink:href="#LiberationSans-65" x="33.300781"/>
      <use xlink:href="#LiberationSans-67" x="88.916016"/>
      <use xlink:href="#LiberationSans-65" x="144.53125"/>
      <use xlink:href="#LiberationSans-78" x="200.146484"/>
      <use xlink:href="#LiberationSans-2d" x="250.146484"/>
      <use xlink:href="#LiberationSans-73" x="283.447266"/>
      <use xlink:href="#LiberationSans-65" x="333.447266"/>
      <use xlink:href="#LiberationSans-61" x="389.0625"/>
      <use xlink:href="#LiberationSans-72" x="444.677734"/>
      <use xlink:href="#LiberationSans-63" x="477.978516"/>
      <use xlink:href="#LiberationSans-68" x="527.978516"/>
     </g>
    </g>
    <g id="line2d_41">
     <path d="M 66.6 111.506375
L 76.6 111.506375
L 86.6 111.506375
" style="fill: none; stroke-dasharray: 5.55,2.4; stroke-dashoffset: 0; stroke: #ffe46b; stroke-width: 1.5"/>
    </g>
    <g id="text_23">
     <!-- re2-search -->
     <g style="fill: #e6e6e6" transform="translate(94.6 115.006375) scale(0.1 -0.1)">
      <use xlink:href="#LiberationSans-72"/>
      <use xlink:href="#LiberationSans-65" x="33.300781"/>
      <use xlink:href="#LiberationSans-32" x="88.916016"/>
      <use xlink:href="#LiberationSans-2d" x="144.53125"/>
      <use xlink:href="#LiberationSans-73" x="177.832031"/>
      <use xlink:href="#LiberationSans-65" x="227.832031"/>
      <use xlink:href="#LiberationSans-61" x="283.447266"/>
      <use xlink:href="#LiberationSans-72" x="339.0625"/>
      <use xlink:href="#LiberationSans-63" x="372.363281"/>
      <use xlink:href="#LiberationSans-68" x="422.363281"/>
     </g>
    </g>
    <g id="line2d_42">
     <path d="M 66.6 125.82825
L 76.6 125.82825
L 86.6 125.82825
" style="fill: none; stroke-dasharray: 5.55,2.4; stroke-dashoffset: 0; stroke: #fefeff; stroke-width: 1.5"/>
    </g>
    <g id="text_24">
     <!-- flpc-search -->
     <g style="fill: #e6e6e6" transform="translate(94.6 129.32825) scale(0.1 -0.1)">
      <defs>
       <path id="LiberationSans-66" d="M 1128 2972
L 1128 0
L 566 0
L 566 2972
L 91 2972
L 91 3381
L 566 3381
L 566 3763
Q 566 4225 769 4428
Q 972 4631 1391 4631
Q 1625 4631 1788 4594
L 1788 4166
Q 1647 4191 1538 4191
Q 1322 4191 1225 4081
Q 1128 3972 1128 3684
L 1128 3381
L 1788 3381
L 1788 2972
L 1128 2972
z
" transform="scale(0.015625)"/>
       <path id="LiberationSans-6c" d="M 431 0
L 431 4638
L 994 4638
L 994 0
L 431 0
z
" transform="scale(0.015625)"/>
      </defs>
      <use xlink:href="#LiberationSans-66"/>
      <use xlink:href="#LiberationSans-6c" x="27.783203"/>
      <use xlink:href="#LiberationSans-70" x="50"/>
      <use xlink:href="#LiberationSans-63" x="105.615234"/>
      <use xlink:href="#LiberationSans-2d" x="155.615234"/>
      <use xlink:href="#LiberationSans-73" x="188.916016"/>
      <use xlink:href="#LiberationSans-65" x="238.916016"/>
      <use xlink:href="#LiberationSans-61" x="294.53125"/>
      <use xlink:href="#LiberationSans-72" x="350.146484"/>
      <use xlink:href="#LiberationSans-63" x="383.447266"/>
      <use xlink:href="#LiberationSans-68" x="433.447266"/>
     </g>
    </g>
   </g>
  </g>
 </g>
 <defs>
  <clipPath id="p90297c90af">
   <rect x="57.6" y="41.472" width="357.12" height="266.112"/>
  </clipPath>
 </defs>
</svg>
