<?xml version="1.0" encoding="utf-8" standalone="no"?>
<!DOCTYPE svg PUBLIC "-//W3C//DTD SVG 1.1//EN"
  "http://www.w3.org/Graphics/SVG/1.1/DTD/svg11.dtd">
<svg xmlns:xlink="http://www.w3.org/1999/xlink" width="460.8pt" height="345.6pt" viewBox="0 0 460.8 345.6" xmlns="http://www.w3.org/2000/svg" version="1.1">
 <metadata>
  <rdf:RDF xmlns:dc="http://purl.org/dc/elements/1.1/" xmlns:cc="http://creativecommons.org/ns#" xmlns:rdf="http://www.w3.org/1999/02/22-rdf-syntax-ns#">
   <cc:Work>
    <dc:type rdf:resource="http://purl.org/dc/dcmitype/StillImage"/>
    <dc:date>2024-10-29T20:57:34.355125</dc:date>
    <dc:format>image/svg+xml</dc:format>
    <dc:creator>
     <cc:Agent>
      <dc:title>Matplotlib v3.9.2, https://matplotlib.org/</dc:title>
     </cc:Agent>
    </dc:creator>
   </cc:Work>
  </rdf:RDF>
 </metadata>
 <defs>
  <style type="text/css">*{stroke-linejoin: round; stroke-linecap: butt}</style>
 </defs>
 <g id="figure_1">
  <g id="patch_1">
   <path d="M 0 345.6
L 460.8 345.6
L 460.8 0
L 0 0
z
" style="fill: #212946"/>
  </g>
  <g id="axes_1">
   <g id="patch_2">
    <path d="M 57.6 307.584
L 414.72 307.584
L 414.72 41.472
L 57.6 41.472
z
" style="fill: #212946"/>
   </g>
   <g id="matplotlib.axis_1">
    <g id="xtick_1">
     <g id="line2d_1">
      <path d="M 73.832727 307.584
L 73.832727 41.472
" clip-path="url(#pea092df257)" style="fill: none; stroke: #2a3459; stroke-width: 0.8; stroke-linecap: round"/>
     </g>
     <g id="line2d_2"/>
     <g id="text_1">
      <!-- 70.0 -->
      <g style="fill: #e6e6e6" transform="translate(64.102259 318.330875) scale(0.1 -0.1)">
       <defs>
        <path id="LiberationSans-37" d="M 3238 3947
Q 2563 2916 2284 2331
Q 2006 1747 1867 1178
Q 1728 609 1728 0
L 1141 0
Q 1141 844 1498 1776
Q 1856 2709 2694 3925
L 328 3925
L 328 4403
L 3238 4403
L 3238 3947
z
" transform="scale(0.015625)"/>
        <path id="LiberationSans-30" d="M 3309 2203
Q 3309 1100 2920 518
Q 2531 -63 1772 -63
Q 1013 -63 631 515
Q 250 1094 250 2203
Q 250 3338 620 3903
Q 991 4469 1791 4469
Q 2569 4469 2939 3897
Q 3309 3325 3309 2203
z
M 2738 2203
Q 2738 3156 2517 3584
Q 2297 4013 1791 4013
Q 1272 4013 1045 3591
Q 819 3169 819 2203
Q 819 1266 1048 831
Q 1278 397 1778 397
Q 2275 397 2506 840
Q 2738 1284 2738 2203
z
" transform="scale(0.015625)"/>
        <path id="LiberationSans-2e" d="M 584 0
L 584 684
L 1194 684
L 1194 0
L 584 0
z
" transform="scale(0.015625)"/>
       </defs>
       <use xlink:href="#LiberationSans-37"/>
       <use xlink:href="#LiberationSans-30" x="55.615234"/>
       <use xlink:href="#LiberationSans-2e" x="111.230469"/>
       <use xlink:href="#LiberationSans-30" x="139.013672"/>
      </g>
     </g>
    </g>
    <g id="xtick_2">
     <g id="line2d_3">
      <path d="M 114.414545 307.584
L 114.414545 41.472
" clip-path="url(#pea092df257)" style="fill: none; stroke: #2a3459; stroke-width: 0.8; stroke-linecap: round"/>
     </g>
     <g id="line2d_4"/>
     <g id="text_2">
      <!-- 72.5 -->
      <g style="fill: #e6e6e6" transform="translate(104.684077 318.330875) scale(0.1 -0.1)">
       <defs>
        <path id="LiberationSans-32" d="M 322 0
L 322 397
Q 481 763 711 1042
Q 941 1322 1194 1548
Q 1447 1775 1695 1969
Q 1944 2163 2144 2356
Q 2344 2550 2467 2762
Q 2591 2975 2591 3244
Q 2591 3606 2378 3806
Q 2166 4006 1788 4006
Q 1428 4006 1195 3811
Q 963 3616 922 3263
L 347 3316
Q 409 3844 795 4156
Q 1181 4469 1788 4469
Q 2453 4469 2811 4155
Q 3169 3841 3169 3263
Q 3169 3006 3051 2753
Q 2934 2500 2703 2247
Q 2472 1994 1819 1463
Q 1459 1169 1246 933
Q 1034 697 941 478
L 3238 478
L 3238 0
L 322 0
z
" transform="scale(0.015625)"/>
        <path id="LiberationSans-35" d="M 3291 1434
Q 3291 738 2877 337
Q 2463 -63 1728 -63
Q 1113 -63 734 206
Q 356 475 256 984
L 825 1050
Q 1003 397 1741 397
Q 2194 397 2450 670
Q 2706 944 2706 1422
Q 2706 1838 2448 2094
Q 2191 2350 1753 2350
Q 1525 2350 1328 2278
Q 1131 2206 934 2034
L 384 2034
L 531 4403
L 3034 4403
L 3034 3925
L 1044 3925
L 959 2528
Q 1325 2809 1869 2809
Q 2519 2809 2905 2428
Q 3291 2047 3291 1434
z
" transform="scale(0.015625)"/>
       </defs>
       <use xlink:href="#LiberationSans-37"/>
       <use xlink:href="#LiberationSans-32" x="55.615234"/>
       <use xlink:href="#LiberationSans-2e" x="111.230469"/>
       <use xlink:href="#LiberationSans-35" x="139.013672"/>
      </g>
     </g>
    </g>
    <g id="xtick_3">
     <g id="line2d_5">
      <path d="M 154.996364 307.584
L 154.996364 41.472
" clip-path="url(#pea092df257)" style="fill: none; stroke: #2a3459; stroke-width: 0.8; stroke-linecap: round"/>
     </g>
     <g id="line2d_6"/>
     <g id="text_3">
      <!-- 75.0 -->
      <g style="fill: #e6e6e6" transform="translate(145.265895 318.330875) scale(0.1 -0.1)">
       <use xlink:href="#LiberationSans-37"/>
       <use xlink:href="#LiberationSans-35" x="55.615234"/>
       <use xlink:href="#LiberationSans-2e" x="111.230469"/>
       <use xlink:href="#LiberationSans-30" x="139.013672"/>
      </g>
     </g>
    </g>
    <g id="xtick_4">
     <g id="line2d_7">
      <path d="M 195.578182 307.584
L 195.578182 41.472
" clip-path="url(#pea092df257)" style="fill: none; stroke: #2a3459; stroke-width: 0.8; stroke-linecap: round"/>
     </g>
     <g id="line2d_8"/>
     <g id="text_4">
      <!-- 77.5 -->
      <g style="fill: #e6e6e6" transform="translate(185.847713 318.330875) scale(0.1 -0.1)">
       <use xlink:href="#LiberationSans-37"/>
       <use xlink:href="#LiberationSans-37" x="55.615234"/>
       <use xlink:href="#LiberationSans-2e" x="111.230469"/>
       <use xlink:href="#LiberationSans-35" x="139.013672"/>
      </g>
     </g>
    </g>
    <g id="xtick_5">
     <g id="line2d_9">
      <path d="M 236.16 307.584
L 236.16 41.472
" clip-path="url(#pea092df257)" style="fill: none; stroke: #2a3459; stroke-width: 0.8; stroke-linecap: round"/>
     </g>
     <g id="line2d_10"/>
     <g id="text_5">
      <!-- 80.0 -->
      <g style="fill: #e6e6e6" transform="translate(226.429531 318.330875) scale(0.1 -0.1)">
       <defs>
        <path id="LiberationSans-38" d="M 3281 1228
Q 3281 619 2893 278
Q 2506 -63 1781 -63
Q 1075 -63 676 271
Q 278 606 278 1222
Q 278 1653 525 1947
Q 772 2241 1156 2303
L 1156 2316
Q 797 2400 589 2681
Q 381 2963 381 3341
Q 381 3844 757 4156
Q 1134 4469 1769 4469
Q 2419 4469 2795 4162
Q 3172 3856 3172 3334
Q 3172 2956 2962 2675
Q 2753 2394 2391 2322
L 2391 2309
Q 2813 2241 3047 1952
Q 3281 1663 3281 1228
z
M 2588 3303
Q 2588 4050 1769 4050
Q 1372 4050 1164 3862
Q 956 3675 956 3303
Q 956 2925 1170 2726
Q 1384 2528 1775 2528
Q 2172 2528 2380 2711
Q 2588 2894 2588 3303
z
M 2697 1281
Q 2697 1691 2453 1898
Q 2209 2106 1769 2106
Q 1341 2106 1100 1882
Q 859 1659 859 1269
Q 859 359 1788 359
Q 2247 359 2472 579
Q 2697 800 2697 1281
z
" transform="scale(0.015625)"/>
       </defs>
       <use xlink:href="#LiberationSans-38"/>
       <use xlink:href="#LiberationSans-30" x="55.615234"/>
       <use xlink:href="#LiberationSans-2e" x="111.230469"/>
       <use xlink:href="#LiberationSans-30" x="139.013672"/>
      </g>
     </g>
    </g>
    <g id="xtick_6">
     <g id="line2d_11">
      <path d="M 276.741818 307.584
L 276.741818 41.472
" clip-path="url(#pea092df257)" style="fill: none; stroke: #2a3459; stroke-width: 0.8; stroke-linecap: round"/>
     </g>
     <g id="line2d_12"/>
     <g id="text_6">
      <!-- 82.5 -->
      <g style="fill: #e6e6e6" transform="translate(267.011349 318.330875) scale(0.1 -0.1)">
       <use xlink:href="#LiberationSans-38"/>
       <use xlink:href="#LiberationSans-32" x="55.615234"/>
       <use xlink:href="#LiberationSans-2e" x="111.230469"/>
       <use xlink:href="#LiberationSans-35" x="139.013672"/>
      </g>
     </g>
    </g>
    <g id="xtick_7">
     <g id="line2d_13">
      <path d="M 317.323636 307.584
L 317.323636 41.472
" clip-path="url(#pea092df257)" style="fill: none; stroke: #2a3459; stroke-width: 0.8; stroke-linecap: round"/>
     </g>
     <g id="line2d_14"/>
     <g id="text_7">
      <!-- 85.0 -->
      <g style="fill: #e6e6e6" transform="translate(307.593168 318.330875) scale(0.1 -0.1)">
       <use xlink:href="#LiberationSans-38"/>
       <use xlink:href="#LiberationSans-35" x="55.615234"/>
       <use xlink:href="#LiberationSans-2e" x="111.230469"/>
       <use xlink:href="#LiberationSans-30" x="139.013672"/>
      </g>
     </g>
    </g>
    <g id="xtick_8">
     <g id="line2d_15">
      <path d="M 357.905455 307.584
L 357.905455 41.472
" clip-path="url(#pea092df257)" style="fill: none; stroke: #2a3459; stroke-width: 0.8; stroke-linecap: round"/>
     </g>
     <g id="line2d_16"/>
     <g id="text_8">
      <!-- 87.5 -->
      <g style="fill: #e6e6e6" transform="translate(348.174986 318.330875) scale(0.1 -0.1)">
       <use xlink:href="#LiberationSans-38"/>
       <use xlink:href="#LiberationSans-37" x="55.615234"/>
       <use xlink:href="#LiberationSans-2e" x="111.230469"/>
       <use xlink:href="#LiberationSans-35" x="139.013672"/>
      </g>
     </g>
    </g>
    <g id="xtick_9">
     <g id="line2d_17">
      <path d="M 398.487273 307.584
L 398.487273 41.472
" clip-path="url(#pea092df257)" style="fill: none; stroke: #2a3459; stroke-width: 0.8; stroke-linecap: round"/>
     </g>
     <g id="line2d_18"/>
     <g id="text_9">
      <!-- 90.0 -->
      <g style="fill: #e6e6e6" transform="translate(388.756804 318.330875) scale(0.1 -0.1)">
       <defs>
        <path id="LiberationSans-39" d="M 3256 2291
Q 3256 1156 2842 546
Q 2428 -63 1663 -63
Q 1147 -63 836 154
Q 525 372 391 856
L 928 941
Q 1097 391 1672 391
Q 2156 391 2422 841
Q 2688 1291 2700 2125
Q 2575 1844 2272 1673
Q 1969 1503 1606 1503
Q 1013 1503 656 1909
Q 300 2316 300 2988
Q 300 3678 687 4073
Q 1075 4469 1766 4469
Q 2500 4469 2878 3925
Q 3256 3381 3256 2291
z
M 2644 2834
Q 2644 3366 2400 3689
Q 2156 4013 1747 4013
Q 1341 4013 1106 3736
Q 872 3459 872 2988
Q 872 2506 1106 2226
Q 1341 1947 1741 1947
Q 1984 1947 2193 2058
Q 2403 2169 2523 2372
Q 2644 2575 2644 2834
z
" transform="scale(0.015625)"/>
       </defs>
       <use xlink:href="#LiberationSans-39"/>
       <use xlink:href="#LiberationSans-30" x="55.615234"/>
       <use xlink:href="#LiberationSans-2e" x="111.230469"/>
       <use xlink:href="#LiberationSans-30" x="139.013672"/>
      </g>
     </g>
    </g>
    <g id="text_10">
     <!-- Перцентиль -->
     <g style="fill: #e6e6e6" transform="translate(208.051406 331.65275) scale(0.1 -0.1)">
      <defs>
       <path id="LiberationSans-41f" d="M 3495 0
L 3495 3900
L 1114 3900
L 1114 0
L 517 0
L 517 4403
L 4092 4403
L 4092 0
L 3495 0
z
" transform="scale(0.015625)"/>
       <path id="LiberationSans-435" d="M 863 1572
Q 863 991 1103 675
Q 1344 359 1806 359
Q 2172 359 2392 506
Q 2613 653 2691 878
L 3184 738
Q 2881 -63 1806 -63
Q 1056 -63 664 384
Q 272 831 272 1713
Q 272 2550 664 2997
Q 1056 3444 1784 3444
Q 3275 3444 3275 1647
L 3275 1572
L 863 1572
z
M 2694 2003
Q 2647 2538 2422 2783
Q 2197 3028 1775 3028
Q 1366 3028 1127 2754
Q 888 2481 869 2003
L 2694 2003
z
" transform="scale(0.015625)"/>
       <path id="LiberationSans-440" d="M 3291 1706
Q 3291 -63 2047 -63
Q 1266 -63 997 525
L 981 525
Q 994 500 994 -6
L 994 -1328
L 431 -1328
L 431 2691
Q 431 3213 413 3381
L 956 3381
Q 959 3369 965 3292
Q 972 3216 980 3056
Q 988 2897 988 2838
L 1000 2838
Q 1150 3150 1397 3295
Q 1644 3441 2047 3441
Q 2672 3441 2981 3022
Q 3291 2603 3291 1706
z
M 2700 1694
Q 2700 2400 2509 2703
Q 2319 3006 1903 3006
Q 1569 3006 1380 2865
Q 1191 2725 1092 2426
Q 994 2128 994 1650
Q 994 984 1206 668
Q 1419 353 1897 353
Q 2316 353 2508 661
Q 2700 969 2700 1694
z
" transform="scale(0.015625)"/>
       <path id="LiberationSans-446" d="M 1006 3381
L 1006 409
L 2497 409
L 2497 3381
L 3059 3381
L 3059 409
L 3519 409
L 3519 -1275
L 3009 -1275
L 3009 0
L 444 0
L 444 3381
L 1006 3381
z
" transform="scale(0.015625)"/>
       <path id="LiberationSans-43d" d="M 1006 3381
L 1006 1950
L 2528 1950
L 2528 3381
L 3091 3381
L 3091 0
L 2528 0
L 2528 1541
L 1006 1541
L 1006 0
L 444 0
L 444 3381
L 1006 3381
z
" transform="scale(0.015625)"/>
       <path id="LiberationSans-442" d="M 109 3381
L 2822 3381
L 2822 2972
L 1747 2972
L 1747 0
L 1184 0
L 1184 2972
L 109 2972
L 109 3381
z
" transform="scale(0.015625)"/>
       <path id="LiberationSans-438" d="M 988 3381
L 988 1531
L 956 666
L 2516 3381
L 3131 3381
L 3131 0
L 2594 0
L 2594 2063
Q 2594 2175 2605 2403
Q 2616 2631 2625 2728
L 1044 0
L 444 0
L 444 3381
L 988 3381
z
" transform="scale(0.015625)"/>
       <path id="LiberationSans-43b" d="M 2725 0
L 2725 2972
L 1553 2972
Q 1369 1609 1269 1132
Q 1169 656 1053 412
Q 938 169 767 53
Q 597 -63 328 -63
Q 172 -63 34 -22
L 34 381
Q 113 353 247 353
Q 419 353 523 525
Q 628 697 714 1119
Q 800 1541 909 2366
L 1047 3381
L 3291 3381
L 3291 0
L 2725 0
z
" transform="scale(0.015625)"/>
       <path id="LiberationSans-44c" d="M 1775 1950
Q 2416 1950 2744 1720
Q 3072 1491 3072 994
Q 3072 513 2734 256
Q 2397 0 1778 0
L 444 0
L 444 3381
L 1006 3381
L 1006 1950
L 1775 1950
z
M 1006 397
L 1694 397
Q 2100 397 2287 540
Q 2475 684 2475 994
Q 2475 1288 2294 1423
Q 2113 1559 1697 1559
L 1006 1559
L 1006 397
z
" transform="scale(0.015625)"/>
      </defs>
      <use xlink:href="#LiberationSans-41f"/>
      <use xlink:href="#LiberationSans-435" x="71.875"/>
      <use xlink:href="#LiberationSans-440" x="127.490234"/>
      <use xlink:href="#LiberationSans-446" x="183.105469"/>
      <use xlink:href="#LiberationSans-435" x="239.255859"/>
      <use xlink:href="#LiberationSans-43d" x="294.871094"/>
      <use xlink:href="#LiberationSans-442" x="350.095703"/>
      <use xlink:href="#LiberationSans-438" x="395.896484"/>
      <use xlink:href="#LiberationSans-43b" x="451.755859"/>
      <use xlink:href="#LiberationSans-44c" x="510.105469"/>
     </g>
    </g>
   </g>
   <g id="matplotlib.axis_2">
    <g id="ytick_1">
     <g id="line2d_19">
      <path d="M 57.6 295.489179
L 414.72 295.489179
" clip-path="url(#pea092df257)" style="fill: none; stroke: #2a3459; stroke-width: 0.8; stroke-linecap: round"/>
     </g>
     <g id="line2d_20"/>
     <g id="text_11">
      <!-- 0.00 -->
      <g style="fill: #e6e6e6" transform="translate(34.639063 299.112617) scale(0.1 -0.1)">
       <use xlink:href="#LiberationSans-30"/>
       <use xlink:href="#LiberationSans-2e" x="55.615234"/>
       <use xlink:href="#LiberationSans-30" x="83.398438"/>
       <use xlink:href="#LiberationSans-30" x="139.013672"/>
      </g>
     </g>
    </g>
    <g id="ytick_2">
     <g id="line2d_21">
      <path d="M 57.6 258.175126
L 414.72 258.175126
" clip-path="url(#pea092df257)" style="fill: none; stroke: #2a3459; stroke-width: 0.8; stroke-linecap: round"/>
     </g>
     <g id="line2d_22"/>
     <g id="text_12">
      <!-- 0.05 -->
      <g style="fill: #e6e6e6" transform="translate(34.639063 261.798563) scale(0.1 -0.1)">
       <use xlink:href="#LiberationSans-30"/>
       <use xlink:href="#LiberationSans-2e" x="55.615234"/>
       <use xlink:href="#LiberationSans-30" x="83.398438"/>
       <use xlink:href="#LiberationSans-35" x="139.013672"/>
      </g>
     </g>
    </g>
    <g id="ytick_3">
     <g id="line2d_23">
      <path d="M 57.6 220.861072
L 414.72 220.861072
" clip-path="url(#pea092df257)" style="fill: none; stroke: #2a3459; stroke-width: 0.8; stroke-linecap: round"/>
     </g>
     <g id="line2d_24"/>
     <g id="text_13">
      <!-- 0.10 -->
      <g style="fill: #e6e6e6" transform="translate(34.639063 224.484509) scale(0.1 -0.1)">
       <defs>
        <path id="LiberationSans-31" d="M 488 0
L 488 478
L 1609 478
L 1609 3866
L 616 3156
L 616 3688
L 1656 4403
L 2175 4403
L 2175 478
L 3247 478
L 3247 0
L 488 0
z
" transform="scale(0.015625)"/>
       </defs>
       <use xlink:href="#LiberationSans-30"/>
       <use xlink:href="#LiberationSans-2e" x="55.615234"/>
       <use xlink:href="#LiberationSans-31" x="83.398438"/>
       <use xlink:href="#LiberationSans-30" x="139.013672"/>
      </g>
     </g>
    </g>
    <g id="ytick_4">
     <g id="line2d_25">
      <path d="M 57.6 183.547018
L 414.72 183.547018
" clip-path="url(#pea092df257)" style="fill: none; stroke: #2a3459; stroke-width: 0.8; stroke-linecap: round"/>
     </g>
     <g id="line2d_26"/>
     <g id="text_14">
      <!-- 0.15 -->
      <g style="fill: #e6e6e6" transform="translate(34.639063 187.170456) scale(0.1 -0.1)">
       <use xlink:href="#LiberationSans-30"/>
       <use xlink:href="#LiberationSans-2e" x="55.615234"/>
       <use xlink:href="#LiberationSans-31" x="83.398438"/>
       <use xlink:href="#LiberationSans-35" x="139.013672"/>
      </g>
     </g>
    </g>
    <g id="ytick_5">
     <g id="line2d_27">
      <path d="M 57.6 146.232965
L 414.72 146.232965
" clip-path="url(#pea092df257)" style="fill: none; stroke: #2a3459; stroke-width: 0.8; stroke-linecap: round"/>
     </g>
     <g id="line2d_28"/>
     <g id="text_15">
      <!-- 0.20 -->
      <g style="fill: #e6e6e6" transform="translate(34.639063 149.856402) scale(0.1 -0.1)">
       <use xlink:href="#LiberationSans-30"/>
       <use xlink:href="#LiberationSans-2e" x="55.615234"/>
       <use xlink:href="#LiberationSans-32" x="83.398438"/>
       <use xlink:href="#LiberationSans-30" x="139.013672"/>
      </g>
     </g>
    </g>
    <g id="ytick_6">
     <g id="line2d_29">
      <path d="M 57.6 108.918911
L 414.72 108.918911
" clip-path="url(#pea092df257)" style="fill: none; stroke: #2a3459; stroke-width: 0.8; stroke-linecap: round"/>
     </g>
     <g id="line2d_30"/>
     <g id="text_16">
      <!-- 0.25 -->
      <g style="fill: #e6e6e6" transform="translate(34.639063 112.542349) scale(0.1 -0.1)">
       <use xlink:href="#LiberationSans-30"/>
       <use xlink:href="#LiberationSans-2e" x="55.615234"/>
       <use xlink:href="#LiberationSans-32" x="83.398438"/>
       <use xlink:href="#LiberationSans-35" x="139.013672"/>
      </g>
     </g>
    </g>
    <g id="ytick_7">
     <g id="line2d_31">
      <path d="M 57.6 71.604858
L 414.72 71.604858
" clip-path="url(#pea092df257)" style="fill: none; stroke: #2a3459; stroke-width: 0.8; stroke-linecap: round"/>
     </g>
     <g id="line2d_32"/>
     <g id="text_17">
      <!-- 0.30 -->
      <g style="fill: #e6e6e6" transform="translate(34.639063 75.228295) scale(0.1 -0.1)">
       <defs>
        <path id="LiberationSans-33" d="M 3278 1216
Q 3278 606 2890 271
Q 2503 -63 1784 -63
Q 1116 -63 717 239
Q 319 541 244 1131
L 825 1184
Q 938 403 1784 403
Q 2209 403 2451 612
Q 2694 822 2694 1234
Q 2694 1594 2417 1795
Q 2141 1997 1619 1997
L 1300 1997
L 1300 2484
L 1606 2484
Q 2069 2484 2323 2686
Q 2578 2888 2578 3244
Q 2578 3597 2370 3801
Q 2163 4006 1753 4006
Q 1381 4006 1151 3815
Q 922 3625 884 3278
L 319 3322
Q 381 3863 767 4166
Q 1153 4469 1759 4469
Q 2422 4469 2789 4161
Q 3156 3853 3156 3303
Q 3156 2881 2920 2617
Q 2684 2353 2234 2259
L 2234 2247
Q 2728 2194 3003 1916
Q 3278 1638 3278 1216
z
" transform="scale(0.015625)"/>
       </defs>
       <use xlink:href="#LiberationSans-30"/>
       <use xlink:href="#LiberationSans-2e" x="55.615234"/>
       <use xlink:href="#LiberationSans-33" x="83.398438"/>
       <use xlink:href="#LiberationSans-30" x="139.013672"/>
      </g>
     </g>
    </g>
    <g id="text_18">
     <!-- Время работы, с -->
     <g style="fill: #e6e6e6" transform="translate(28.564062 213.213156) rotate(-90) scale(0.1 -0.1)">
      <defs>
       <path id="LiberationSans-412" d="M 3931 1241
Q 3931 653 3503 326
Q 3075 0 2313 0
L 525 0
L 525 4403
L 2125 4403
Q 3675 4403 3675 3334
Q 3675 2944 3456 2678
Q 3238 2413 2838 2322
Q 3363 2259 3647 1970
Q 3931 1681 3931 1241
z
M 3075 3263
Q 3075 3619 2831 3772
Q 2588 3925 2125 3925
L 1122 3925
L 1122 2531
L 2125 2531
Q 2603 2531 2839 2711
Q 3075 2891 3075 3263
z
M 3328 1288
Q 3328 2066 2234 2066
L 1122 2066
L 1122 478
L 2281 478
Q 2828 478 3078 681
Q 3328 884 3328 1288
z
" transform="scale(0.015625)"/>
       <path id="LiberationSans-43c" d="M 2459 0
L 1981 0
L 969 2972
Q 988 2484 988 2263
L 988 0
L 444 0
L 444 3381
L 1319 3381
L 2006 1316
Q 2169 869 2219 422
Q 2288 925 2431 1316
L 3119 3381
L 3959 3381
L 3959 0
L 3419 0
L 3419 2263
L 3428 2619
L 3444 2978
L 2459 0
z
" transform="scale(0.015625)"/>
       <path id="LiberationSans-44f" d="M 1672 1431
L 688 0
L 53 0
L 1128 1472
Q 350 1631 350 2447
Q 350 2913 687 3147
Q 1025 3381 1672 3381
L 3022 3381
L 3022 0
L 2459 0
L 2459 1431
L 1672 1431
z
M 2459 2984
L 1728 2984
Q 1322 2984 1134 2840
Q 947 2697 947 2406
Q 947 2113 1114 1967
Q 1281 1822 1669 1822
L 2459 1822
L 2459 2984
z
" transform="scale(0.015625)"/>
       <path id="LiberationSans-20" transform="scale(0.015625)"/>
       <path id="LiberationSans-430" d="M 1294 -63
Q 784 -63 528 206
Q 272 475 272 944
Q 272 1469 617 1750
Q 963 2031 1731 2050
L 2491 2063
L 2491 2247
Q 2491 2659 2316 2837
Q 2141 3016 1766 3016
Q 1388 3016 1216 2887
Q 1044 2759 1009 2478
L 422 2531
Q 566 3444 1778 3444
Q 2416 3444 2737 3151
Q 3059 2859 3059 2306
L 3059 850
Q 3059 600 3125 473
Q 3191 347 3375 347
Q 3456 347 3559 369
L 3559 19
Q 3347 -31 3125 -31
Q 2813 -31 2670 133
Q 2528 297 2509 647
L 2491 647
Q 2275 259 1989 98
Q 1703 -63 1294 -63
z
M 1422 359
Q 1731 359 1972 500
Q 2213 641 2352 886
Q 2491 1131 2491 1391
L 2491 1669
L 1875 1656
Q 1478 1650 1273 1575
Q 1069 1500 959 1344
Q 850 1188 850 934
Q 850 659 998 509
Q 1147 359 1422 359
z
" transform="scale(0.015625)"/>
       <path id="LiberationSans-431" d="M 2806 1569
Q 2806 2200 2600 2498
Q 2394 2797 1928 2797
Q 1431 2797 1198 2494
Q 966 2191 966 1569
Q 966 963 1183 658
Q 1400 353 1866 353
Q 2369 353 2587 645
Q 2806 938 2806 1569
z
M 2047 3209
Q 2741 3209 3069 2801
Q 3397 2394 3397 1575
Q 3397 747 3006 342
Q 2616 -63 1872 -63
Q 1103 -63 739 440
Q 375 944 375 1988
Q 375 2519 447 2920
Q 519 3322 672 3612
Q 825 3903 1067 4097
Q 1309 4291 1676 4409
Q 2044 4528 3238 4694
L 3238 4191
Q 1928 4022 1542 3869
Q 1156 3716 1000 3381
Q 844 3047 831 2381
Q 966 2772 1281 2990
Q 1597 3209 2047 3209
z
" transform="scale(0.015625)"/>
       <path id="LiberationSans-43e" d="M 3291 1694
Q 3291 806 2900 371
Q 2509 -63 1766 -63
Q 1025 -63 647 389
Q 269 841 269 1694
Q 269 3444 1784 3444
Q 2559 3444 2925 3017
Q 3291 2591 3291 1694
z
M 2700 1694
Q 2700 2394 2492 2711
Q 2284 3028 1794 3028
Q 1300 3028 1079 2704
Q 859 2381 859 1694
Q 859 1025 1076 689
Q 1294 353 1759 353
Q 2266 353 2483 678
Q 2700 1003 2700 1694
z
" transform="scale(0.015625)"/>
       <path id="LiberationSans-44b" d="M 1719 1950
Q 2359 1950 2687 1720
Q 3016 1491 3016 994
Q 3016 513 2678 256
Q 2341 0 1722 0
L 444 0
L 444 3381
L 1006 3381
L 1006 1950
L 1719 1950
z
M 1006 397
L 1638 397
Q 2044 397 2231 540
Q 2419 684 2419 994
Q 2419 1288 2237 1423
Q 2056 1559 1641 1559
L 1006 1559
L 1006 397
z
M 3594 0
L 3594 3381
L 4156 3381
L 4156 0
L 3594 0
z
" transform="scale(0.015625)"/>
       <path id="LiberationSans-2c" d="M 1203 684
L 1203 159
Q 1203 -172 1143 -394
Q 1084 -616 959 -819
L 575 -819
Q 869 -394 869 0
L 594 0
L 594 684
L 1203 684
z
" transform="scale(0.015625)"/>
       <path id="LiberationSans-441" d="M 859 1706
Q 859 1031 1071 706
Q 1284 381 1713 381
Q 2013 381 2214 543
Q 2416 706 2463 1044
L 3031 1006
Q 2966 519 2616 228
Q 2266 -63 1728 -63
Q 1019 -63 645 385
Q 272 834 272 1694
Q 272 2547 647 2995
Q 1022 3444 1722 3444
Q 2241 3444 2583 3175
Q 2925 2906 3013 2434
L 2434 2391
Q 2391 2672 2212 2837
Q 2034 3003 1706 3003
Q 1259 3003 1059 2706
Q 859 2409 859 1706
z
" transform="scale(0.015625)"/>
      </defs>
      <use xlink:href="#LiberationSans-412"/>
      <use xlink:href="#LiberationSans-440" x="66.699219"/>
      <use xlink:href="#LiberationSans-435" x="122.314453"/>
      <use xlink:href="#LiberationSans-43c" x="177.929688"/>
      <use xlink:href="#LiberationSans-44f" x="246.679688"/>
      <use xlink:href="#LiberationSans-20" x="300.830078"/>
      <use xlink:href="#LiberationSans-440" x="328.613281"/>
      <use xlink:href="#LiberationSans-430" x="384.228516"/>
      <use xlink:href="#LiberationSans-431" x="439.84375"/>
      <use xlink:href="#LiberationSans-43e" x="497.119141"/>
      <use xlink:href="#LiberationSans-442" x="550.484375"/>
      <use xlink:href="#LiberationSans-44b" x="596.285156"/>
      <use xlink:href="#LiberationSans-2c" x="668.160156"/>
      <use xlink:href="#LiberationSans-20" x="695.943359"/>
      <use xlink:href="#LiberationSans-441" x="723.726562"/>
     </g>
    </g>
   </g>
   <g id="line2d_33">
    <path d="M 73.832727 295.482784
L 90.065455 295.479902
L 106.298182 295.476093
L 122.530909 295.473836
L 138.763636 295.473469
L 154.996364 295.473154
L 171.229091 295.472891
L 187.461818 295.471249
L 203.694545 295.468381
L 219.927273 295.461177
L 236.16 295.450683
L 252.392727 295.446477
L 268.625455 295.446329
L 284.858182 295.445943
L 301.090909 295.445429
L 317.323636 295.444113
L 333.556364 295.442431
L 349.789091 295.437274
L 366.021818 295.430803
L 382.254545 295.263326
L 398.487273 295.046309
" clip-path="url(#pea092df257)" style="fill: none; stroke-dasharray: 5.55,2.4; stroke-dashoffset: 0; stroke: #18c0c4; stroke-width: 1.5"/>
   </g>
   <g id="line2d_34">
    <path d="M 73.832727 295.471229
L 90.065455 295.470595
L 106.298182 295.469984
L 122.530909 295.469425
L 138.763636 295.46893
L 154.996364 295.452927
L 171.229091 295.420796
L 187.461818 295.386816
L 203.694545 295.351193
L 219.927273 295.309077
L 236.16 295.262037
L 252.392727 295.217247
L 268.625455 295.173909
L 284.858182 294.684009
L 301.090909 293.95053
L 317.323636 293.705779
L 333.556364 293.684447
L 349.789091 292.9581
L 366.021818 291.96499
L 382.254545 290.455667
L 398.487273 288.787509
" clip-path="url(#pea092df257)" style="fill: none; stroke: #f62196; stroke-width: 1.5; stroke-linecap: round"/>
   </g>
   <g id="line2d_35">
    <path d="M 73.832727 295.488
L 90.065455 295.487974
L 106.298182 295.487917
L 122.530909 295.487584
L 138.763636 295.486917
L 154.996364 295.486412
L 171.229091 295.486077
L 187.461818 295.485917
L 203.694545 295.485913
L 219.927273 295.485912
L 236.16 295.485911
L 252.392727 295.485909
L 268.625455 295.485905
L 284.858182 295.485901
L 301.090909 295.485898
L 317.323636 295.485839
L 333.556364 295.485755
L 349.789091 295.482993
L 366.021818 295.479219
L 382.254545 295.476896
L 398.487273 295.475019
" clip-path="url(#pea092df257)" style="fill: none; stroke-dasharray: 5.55,2.4; stroke-dashoffset: 0; stroke: #a267f5; stroke-width: 1.5"/>
   </g>
   <g id="line2d_36">
    <path d="M 73.832727 295.352032
L 90.065455 295.326423
L 106.298182 295.313012
L 122.530909 295.224187
L 138.763636 295.043557
L 154.996364 294.8337
L 171.229091 294.593449
L 187.461818 294.438319
L 203.694545 294.358854
L 219.927273 294.21659
L 236.16 294.026686
L 252.392727 293.852853
L 268.625455 293.68939
L 284.858182 293.071441
L 301.090909 292.205592
L 317.323636 285.207305
L 333.556364 275.405618
L 349.789091 250.594979
L 366.021818 220.105278
L 382.254545 143.873831
L 398.487273 53.568
" clip-path="url(#pea092df257)" style="fill: none; stroke: #f3907e; stroke-width: 1.5; stroke-linecap: round"/>
   </g>
   <g id="line2d_37">
    <path d="M 73.832727 295.446263
L 90.065455 295.433617
L 106.298182 295.426898
L 122.530909 295.387592
L 138.763636 295.308616
L 154.996364 295.262233
L 171.229091 295.249749
L 187.461818 295.240738
L 203.694545 295.234816
L 219.927273 295.154885
L 236.16 295.018808
L 252.392727 294.64839
L 268.625455 294.126784
L 284.858182 293.476907
L 301.090909 292.757064
L 317.323636 290.771472
L 333.556364 288.207251
L 349.789091 287.321235
L 366.021818 287.070214
L 382.254545 274.584146
L 398.487273 258.333448
" clip-path="url(#pea092df257)" style="fill: none; stroke: #ffe46b; stroke-width: 1.5; stroke-linecap: round"/>
   </g>
   <g id="line2d_38">
    <path d="M 73.832727 294.394172
L 90.065455 294.232683
L 106.298182 293.854913
L 122.530909 291.022723
L 138.763636 285.202544
L 154.996364 271.700625
L 171.229091 250.209699
L 187.461818 236.542848
L 203.694545 229.830728
L 219.927273 226.336851
L 236.16 225.284399
L 252.392727 216.124921
L 268.625455 201.735104
L 284.858182 192.095674
L 301.090909 185.047364
L 317.323636 176.76015
L 333.556364 167.90658
L 349.789091 162.434253
L 366.021818 158.241316
L 382.254545 151.900924
L 398.487273 144.899777
" clip-path="url(#pea092df257)" style="fill: none; stroke: #fefeff; stroke-width: 1.5; stroke-linecap: round"/>
   </g>
   <g id="patch_3">
    <path d="M 57.6 307.584
L 57.6 41.472
" style="fill: none"/>
   </g>
   <g id="patch_4">
    <path d="M 414.72 307.584
L 414.72 41.472
" style="fill: none"/>
   </g>
   <g id="patch_5">
    <path d="M 57.6 307.584
L 414.72 307.584
" style="fill: none"/>
   </g>
   <g id="patch_6">
    <path d="M 57.6 41.472
L 414.72 41.472
" style="fill: none"/>
   </g>
   <g id="legend_1">
    <g id="line2d_39">
     <path d="M 66.6 54.218875
L 76.6 54.218875
L 86.6 54.218875
" style="fill: none; stroke-dasharray: 5.55,2.4; stroke-dashoffset: 0; stroke: #18c0c4; stroke-width: 1.5"/>
    </g>
    <g id="text_19">
     <!-- re2-match -->
     <g style="fill: #e6e6e6" transform="translate(94.6 57.718875) scale(0.1 -0.1)">
      <defs>
       <path id="LiberationSans-72" d="M 444 0
L 444 2594
Q 444 2950 425 3381
L 956 3381
Q 981 2806 981 2691
L 994 2691
Q 1128 3125 1303 3284
Q 1478 3444 1797 3444
Q 1909 3444 2025 3413
L 2025 2897
Q 1913 2928 1725 2928
Q 1375 2928 1190 2626
Q 1006 2325 1006 1763
L 1006 0
L 444 0
z
" transform="scale(0.015625)"/>
       <path id="LiberationSans-65" d="M 863 1572
Q 863 991 1103 675
Q 1344 359 1806 359
Q 2172 359 2392 506
Q 2613 653 2691 878
L 3184 738
Q 2881 -63 1806 -63
Q 1056 -63 664 384
Q 272 831 272 1713
Q 272 2550 664 2997
Q 1056 3444 1784 3444
Q 3275 3444 3275 1647
L 3275 1572
L 863 1572
z
M 2694 2003
Q 2647 2538 2422 2783
Q 2197 3028 1775 3028
Q 1366 3028 1127 2754
Q 888 2481 869 2003
L 2694 2003
z
" transform="scale(0.015625)"/>
       <path id="LiberationSans-2d" d="M 284 1450
L 284 1950
L 1847 1950
L 1847 1450
L 284 1450
z
" transform="scale(0.015625)"/>
       <path id="LiberationSans-6d" d="M 2400 0
L 2400 2144
Q 2400 2634 2265 2821
Q 2131 3009 1781 3009
Q 1422 3009 1212 2734
Q 1003 2459 1003 1959
L 1003 0
L 444 0
L 444 2659
Q 444 3250 425 3381
L 956 3381
Q 959 3366 962 3297
Q 966 3228 970 3139
Q 975 3050 981 2803
L 991 2803
Q 1172 3163 1406 3303
Q 1641 3444 1978 3444
Q 2363 3444 2586 3291
Q 2809 3138 2897 2803
L 2906 2803
Q 3081 3144 3329 3294
Q 3578 3444 3931 3444
Q 4444 3444 4676 3166
Q 4909 2888 4909 2253
L 4909 0
L 4353 0
L 4353 2144
Q 4353 2634 4218 2821
Q 4084 3009 3734 3009
Q 3366 3009 3161 2736
Q 2956 2463 2956 1959
L 2956 0
L 2400 0
z
" transform="scale(0.015625)"/>
       <path id="LiberationSans-61" d="M 1294 -63
Q 784 -63 528 206
Q 272 475 272 944
Q 272 1469 617 1750
Q 963 2031 1731 2050
L 2491 2063
L 2491 2247
Q 2491 2659 2316 2837
Q 2141 3016 1766 3016
Q 1388 3016 1216 2887
Q 1044 2759 1009 2478
L 422 2531
Q 566 3444 1778 3444
Q 2416 3444 2737 3151
Q 3059 2859 3059 2306
L 3059 850
Q 3059 600 3125 473
Q 3191 347 3375 347
Q 3456 347 3559 369
L 3559 19
Q 3347 -31 3125 -31
Q 2813 -31 2670 133
Q 2528 297 2509 647
L 2491 647
Q 2275 259 1989 98
Q 1703 -63 1294 -63
z
M 1422 359
Q 1731 359 1972 500
Q 2213 641 2352 886
Q 2491 1131 2491 1391
L 2491 1669
L 1875 1656
Q 1478 1650 1273 1575
Q 1069 1500 959 1344
Q 850 1188 850 934
Q 850 659 998 509
Q 1147 359 1422 359
z
" transform="scale(0.015625)"/>
       <path id="LiberationSans-74" d="M 1731 25
Q 1453 -50 1163 -50
Q 488 -50 488 716
L 488 2972
L 97 2972
L 97 3381
L 509 3381
L 675 4138
L 1050 4138
L 1050 3381
L 1675 3381
L 1675 2972
L 1050 2972
L 1050 838
Q 1050 594 1129 495
Q 1209 397 1406 397
Q 1519 397 1731 441
L 1731 25
z
" transform="scale(0.015625)"/>
       <path id="LiberationSans-63" d="M 859 1706
Q 859 1031 1071 706
Q 1284 381 1713 381
Q 2013 381 2214 543
Q 2416 706 2463 1044
L 3031 1006
Q 2966 519 2616 228
Q 2266 -63 1728 -63
Q 1019 -63 645 385
Q 272 834 272 1694
Q 272 2547 647 2995
Q 1022 3444 1722 3444
Q 2241 3444 2583 3175
Q 2925 2906 3013 2434
L 2434 2391
Q 2391 2672 2212 2837
Q 2034 3003 1706 3003
Q 1259 3003 1059 2706
Q 859 2409 859 1706
z
" transform="scale(0.015625)"/>
       <path id="LiberationSans-68" d="M 991 2803
Q 1172 3134 1426 3289
Q 1681 3444 2072 3444
Q 2622 3444 2883 3170
Q 3144 2897 3144 2253
L 3144 0
L 2578 0
L 2578 2144
Q 2578 2500 2512 2673
Q 2447 2847 2297 2928
Q 2147 3009 1881 3009
Q 1484 3009 1245 2734
Q 1006 2459 1006 1994
L 1006 0
L 444 0
L 444 4638
L 1006 4638
L 1006 3431
Q 1006 3241 995 3037
Q 984 2834 981 2803
L 991 2803
z
" transform="scale(0.015625)"/>
      </defs>
      <use xlink:href="#LiberationSans-72"/>
      <use xlink:href="#LiberationSans-65" x="33.300781"/>
      <use xlink:href="#LiberationSans-32" x="88.916016"/>
      <use xlink:href="#LiberationSans-2d" x="144.53125"/>
      <use xlink:href="#LiberationSans-6d" x="177.832031"/>
      <use xlink:href="#LiberationSans-61" x="261.132812"/>
      <use xlink:href="#LiberationSans-74" x="316.748047"/>
      <use xlink:href="#LiberationSans-63" x="344.53125"/>
      <use xlink:href="#LiberationSans-68" x="394.53125"/>
     </g>
    </g>
    <g id="line2d_40">
     <path d="M 66.6 68.54075
L 76.6 68.54075
L 86.6 68.54075
" style="fill: none; stroke: #f62196; stroke-width: 1.5; stroke-linecap: round"/>
    </g>
    <g id="text_20">
     <!-- regex-match -->
     <g style="fill: #e6e6e6" transform="translate(94.6 72.04075) scale(0.1 -0.1)">
      <defs>
       <path id="LiberationSans-67" d="M 1713 -1328
Q 1159 -1328 831 -1111
Q 503 -894 409 -494
L 975 -413
Q 1031 -647 1223 -773
Q 1416 -900 1728 -900
Q 2569 -900 2569 84
L 2569 628
L 2563 628
Q 2403 303 2125 139
Q 1847 -25 1475 -25
Q 853 -25 561 387
Q 269 800 269 1684
Q 269 2581 583 3007
Q 897 3434 1538 3434
Q 1897 3434 2161 3270
Q 2425 3106 2569 2803
L 2575 2803
Q 2575 2897 2587 3128
Q 2600 3359 2613 3381
L 3147 3381
Q 3128 3213 3128 2681
L 3128 97
Q 3128 -1328 1713 -1328
z
M 2569 1691
Q 2569 2103 2456 2401
Q 2344 2700 2139 2858
Q 1934 3016 1675 3016
Q 1244 3016 1047 2703
Q 850 2391 850 1691
Q 850 997 1034 694
Q 1219 391 1666 391
Q 1931 391 2137 547
Q 2344 703 2456 995
Q 2569 1288 2569 1691
z
" transform="scale(0.015625)"/>
       <path id="LiberationSans-78" d="M 2503 0
L 1594 1388
L 678 0
L 72 0
L 1275 1738
L 128 3381
L 750 3381
L 1594 2066
L 2431 3381
L 3059 3381
L 1913 1744
L 3131 0
L 2503 0
z
" transform="scale(0.015625)"/>
      </defs>
      <use xlink:href="#LiberationSans-72"/>
      <use xlink:href="#LiberationSans-65" x="33.300781"/>
      <use xlink:href="#LiberationSans-67" x="88.916016"/>
      <use xlink:href="#LiberationSans-65" x="144.53125"/>
      <use xlink:href="#LiberationSans-78" x="200.146484"/>
      <use xlink:href="#LiberationSans-2d" x="250.146484"/>
      <use xlink:href="#LiberationSans-6d" x="283.447266"/>
      <use xlink:href="#LiberationSans-61" x="366.748047"/>
      <use xlink:href="#LiberationSans-74" x="422.363281"/>
      <use xlink:href="#LiberationSans-63" x="450.146484"/>
      <use xlink:href="#LiberationSans-68" x="500.146484"/>
     </g>
    </g>
    <g id="line2d_41">
     <path d="M 66.6 82.862625
L 76.6 82.862625
L 86.6 82.862625
" style="fill: none; stroke-dasharray: 5.55,2.4; stroke-dashoffset: 0; stroke: #a267f5; stroke-width: 1.5"/>
    </g>
    <g id="text_21">
     <!-- flpc-match -->
     <g style="fill: #e6e6e6" transform="translate(94.6 86.362625) scale(0.1 -0.1)">
      <defs>
       <path id="LiberationSans-66" d="M 1128 2972
L 1128 0
L 566 0
L 566 2972
L 91 2972
L 91 3381
L 566 3381
L 566 3763
Q 566 4225 769 4428
Q 972 4631 1391 4631
Q 1625 4631 1788 4594
L 1788 4166
Q 1647 4191 1538 4191
Q 1322 4191 1225 4081
Q 1128 3972 1128 3684
L 1128 3381
L 1788 3381
L 1788 2972
L 1128 2972
z
" transform="scale(0.015625)"/>
       <path id="LiberationSans-6c" d="M 431 0
L 431 4638
L 994 4638
L 994 0
L 431 0
z
" transform="scale(0.015625)"/>
       <path id="LiberationSans-70" d="M 3291 1706
Q 3291 -63 2047 -63
Q 1266 -63 997 525
L 981 525
Q 994 500 994 -6
L 994 -1328
L 431 -1328
L 431 2691
Q 431 3213 413 3381
L 956 3381
Q 959 3369 965 3292
Q 972 3216 980 3056
Q 988 2897 988 2838
L 1000 2838
Q 1150 3150 1397 3295
Q 1644 3441 2047 3441
Q 2672 3441 2981 3022
Q 3291 2603 3291 1706
z
M 2700 1694
Q 2700 2400 2509 2703
Q 2319 3006 1903 3006
Q 1569 3006 1380 2865
Q 1191 2725 1092 2426
Q 994 2128 994 1650
Q 994 984 1206 668
Q 1419 353 1897 353
Q 2316 353 2508 661
Q 2700 969 2700 1694
z
" transform="scale(0.015625)"/>
      </defs>
      <use xlink:href="#LiberationSans-66"/>
      <use xlink:href="#LiberationSans-6c" x="27.783203"/>
      <use xlink:href="#LiberationSans-70" x="50"/>
      <use xlink:href="#LiberationSans-63" x="105.615234"/>
      <use xlink:href="#LiberationSans-2d" x="155.615234"/>
      <use xlink:href="#LiberationSans-6d" x="188.916016"/>
      <use xlink:href="#LiberationSans-61" x="272.216797"/>
      <use xlink:href="#LiberationSans-74" x="327.832031"/>
      <use xlink:href="#LiberationSans-63" x="355.615234"/>
      <use xlink:href="#LiberationSans-68" x="405.615234"/>
     </g>
    </g>
    <g id="line2d_42">
     <path d="M 66.6 97.1845
L 76.6 97.1845
L 86.6 97.1845
" style="fill: none; stroke: #f3907e; stroke-width: 1.5; stroke-linecap: round"/>
    </g>
    <g id="text_22">
     <!-- pcre2-match -->
     <g style="fill: #e6e6e6" transform="translate(94.6 100.6845) scale(0.1 -0.1)">
      <use xlink:href="#LiberationSans-70"/>
      <use xlink:href="#LiberationSans-63" x="55.615234"/>
      <use xlink:href="#LiberationSans-72" x="105.615234"/>
      <use xlink:href="#LiberationSans-65" x="138.916016"/>
      <use xlink:href="#LiberationSans-32" x="194.53125"/>
      <use xlink:href="#LiberationSans-2d" x="250.146484"/>
      <use xlink:href="#LiberationSans-6d" x="283.447266"/>
      <use xlink:href="#LiberationSans-61" x="366.748047"/>
      <use xlink:href="#LiberationSans-74" x="422.363281"/>
      <use xlink:href="#LiberationSans-63" x="450.146484"/>
      <use xlink:href="#LiberationSans-68" x="500.146484"/>
     </g>
    </g>
    <g id="line2d_43">
     <path d="M 66.6 111.506375
L 76.6 111.506375
L 86.6 111.506375
" style="fill: none; stroke: #ffe46b; stroke-width: 1.5; stroke-linecap: round"/>
    </g>
    <g id="text_23">
     <!-- pcre2+JIT-match -->
     <g style="fill: #e6e6e6" transform="translate(94.6 115.006375) scale(0.1 -0.1)">
      <defs>
       <path id="LiberationSans-2b" d="M 2097 1900
L 2097 563
L 1638 563
L 1638 1900
L 313 1900
L 313 2356
L 1638 2356
L 1638 3694
L 2097 3694
L 2097 2356
L 3422 2356
L 3422 1900
L 2097 1900
z
" transform="scale(0.015625)"/>
       <path id="LiberationSans-4a" d="M 1428 -63
Q 309 -63 100 1094
L 684 1191
Q 741 828 937 625
Q 1134 422 1431 422
Q 1756 422 1943 645
Q 2131 869 2131 1300
L 2131 3916
L 1284 3916
L 1284 4403
L 2725 4403
L 2725 1313
Q 2725 672 2378 304
Q 2031 -63 1428 -63
z
" transform="scale(0.015625)"/>
       <path id="LiberationSans-49" d="M 591 0
L 591 4403
L 1188 4403
L 1188 0
L 591 0
z
" transform="scale(0.015625)"/>
       <path id="LiberationSans-54" d="M 2250 3916
L 2250 0
L 1656 0
L 1656 3916
L 144 3916
L 144 4403
L 3763 4403
L 3763 3916
L 2250 3916
z
" transform="scale(0.015625)"/>
      </defs>
      <use xlink:href="#LiberationSans-70"/>
      <use xlink:href="#LiberationSans-63" x="55.615234"/>
      <use xlink:href="#LiberationSans-72" x="105.615234"/>
      <use xlink:href="#LiberationSans-65" x="138.916016"/>
      <use xlink:href="#LiberationSans-32" x="194.53125"/>
      <use xlink:href="#LiberationSans-2b" x="250.146484"/>
      <use xlink:href="#LiberationSans-4a" x="308.544922"/>
      <use xlink:href="#LiberationSans-49" x="358.544922"/>
      <use xlink:href="#LiberationSans-54" x="386.328125"/>
      <use xlink:href="#LiberationSans-2d" x="441.912109"/>
      <use xlink:href="#LiberationSans-6d" x="475.212891"/>
      <use xlink:href="#LiberationSans-61" x="558.513672"/>
      <use xlink:href="#LiberationSans-74" x="614.128906"/>
      <use xlink:href="#LiberationSans-63" x="641.912109"/>
      <use xlink:href="#LiberationSans-68" x="691.912109"/>
     </g>
    </g>
    <g id="line2d_44">
     <path d="M 66.6 125.82825
L 76.6 125.82825
L 86.6 125.82825
" style="fill: none; stroke: #fefeff; stroke-width: 1.5; stroke-linecap: round"/>
    </g>
    <g id="text_24">
     <!-- re-match -->
     <g style="fill: #e6e6e6" transform="translate(94.6 129.32825) scale(0.1 -0.1)">
      <use xlink:href="#LiberationSans-72"/>
      <use xlink:href="#LiberationSans-65" x="33.300781"/>
      <use xlink:href="#LiberationSans-2d" x="88.916016"/>
      <use xlink:href="#LiberationSans-6d" x="122.216797"/>
      <use xlink:href="#LiberationSans-61" x="205.517578"/>
      <use xlink:href="#LiberationSans-74" x="261.132812"/>
      <use xlink:href="#LiberationSans-63" x="288.916016"/>
      <use xlink:href="#LiberationSans-68" x="338.916016"/>
     </g>
    </g>
   </g>
  </g>
 </g>
 <defs>
  <clipPath id="pea092df257">
   <rect x="57.6" y="41.472" width="357.12" height="266.112"/>
  </clipPath>
 </defs>
</svg>
