<?xml version="1.0" encoding="utf-8" standalone="no"?>
<!DOCTYPE svg PUBLIC "-//W3C//DTD SVG 1.1//EN"
  "http://www.w3.org/Graphics/SVG/1.1/DTD/svg11.dtd">
<svg xmlns:xlink="http://www.w3.org/1999/xlink" width="460.8pt" height="345.6pt" viewBox="0 0 460.8 345.6" xmlns="http://www.w3.org/2000/svg" version="1.1">
 <metadata>
  <rdf:RDF xmlns:dc="http://purl.org/dc/elements/1.1/" xmlns:cc="http://creativecommons.org/ns#" xmlns:rdf="http://www.w3.org/1999/02/22-rdf-syntax-ns#">
   <cc:Work>
    <dc:type rdf:resource="http://purl.org/dc/dcmitype/StillImage"/>
    <dc:date>2024-10-29T20:52:45.001967</dc:date>
    <dc:format>image/svg+xml</dc:format>
    <dc:creator>
     <cc:Agent>
      <dc:title>Matplotlib v3.9.2, https://matplotlib.org/</dc:title>
     </cc:Agent>
    </dc:creator>
   </cc:Work>
  </rdf:RDF>
 </metadata>
 <defs>
  <style type="text/css">*{stroke-linejoin: round; stroke-linecap: butt}</style>
 </defs>
 <g id="figure_1">
  <g id="patch_1">
   <path d="M 0 345.6
L 460.8 345.6
L 460.8 0
L 0 0
z
" style="fill: #212946"/>
  </g>
  <g id="axes_1">
   <g id="patch_2">
    <path d="M 57.6 307.584
L 414.72 307.584
L 414.72 41.472
L 57.6 41.472
z
" style="fill: #212946"/>
   </g>
   <g id="matplotlib.axis_1">
    <g id="xtick_1">
     <g id="line2d_1">
      <path d="M 73.767127 307.584
L 73.767127 41.472
" clip-path="url(#p56447a3114)" style="fill: none; stroke: #2a3459; stroke-width: 0.8; stroke-linecap: round"/>
     </g>
     <g id="line2d_2"/>
     <g id="text_1">
      <!-- 0 -->
      <g style="fill: #e6e6e6" transform="translate(70.986658 318.330875) scale(0.1 -0.1)">
       <defs>
        <path id="LiberationSans-30" d="M 3309 2203
Q 3309 1100 2920 518
Q 2531 -63 1772 -63
Q 1013 -63 631 515
Q 250 1094 250 2203
Q 250 3338 620 3903
Q 991 4469 1791 4469
Q 2569 4469 2939 3897
Q 3309 3325 3309 2203
z
M 2738 2203
Q 2738 3156 2517 3584
Q 2297 4013 1791 4013
Q 1272 4013 1045 3591
Q 819 3169 819 2203
Q 819 1266 1048 831
Q 1278 397 1778 397
Q 2275 397 2506 840
Q 2738 1284 2738 2203
z
" transform="scale(0.015625)"/>
       </defs>
       <use xlink:href="#LiberationSans-30"/>
      </g>
     </g>
    </g>
    <g id="xtick_2">
     <g id="line2d_3">
      <path d="M 139.367157 307.584
L 139.367157 41.472
" clip-path="url(#p56447a3114)" style="fill: none; stroke: #2a3459; stroke-width: 0.8; stroke-linecap: round"/>
     </g>
     <g id="line2d_4"/>
     <g id="text_2">
      <!-- 5000 -->
      <g style="fill: #e6e6e6" transform="translate(128.245282 318.330875) scale(0.1 -0.1)">
       <defs>
        <path id="LiberationSans-35" d="M 3291 1434
Q 3291 738 2877 337
Q 2463 -63 1728 -63
Q 1113 -63 734 206
Q 356 475 256 984
L 825 1050
Q 1003 397 1741 397
Q 2194 397 2450 670
Q 2706 944 2706 1422
Q 2706 1838 2448 2094
Q 2191 2350 1753 2350
Q 1525 2350 1328 2278
Q 1131 2206 934 2034
L 384 2034
L 531 4403
L 3034 4403
L 3034 3925
L 1044 3925
L 959 2528
Q 1325 2809 1869 2809
Q 2519 2809 2905 2428
Q 3291 2047 3291 1434
z
" transform="scale(0.015625)"/>
       </defs>
       <use xlink:href="#LiberationSans-35"/>
       <use xlink:href="#LiberationSans-30" x="55.615234"/>
       <use xlink:href="#LiberationSans-30" x="111.230469"/>
       <use xlink:href="#LiberationSans-30" x="166.845703"/>
      </g>
     </g>
    </g>
    <g id="xtick_3">
     <g id="line2d_5">
      <path d="M 204.967186 307.584
L 204.967186 41.472
" clip-path="url(#p56447a3114)" style="fill: none; stroke: #2a3459; stroke-width: 0.8; stroke-linecap: round"/>
     </g>
     <g id="line2d_6"/>
     <g id="text_3">
      <!-- 10000 -->
      <g style="fill: #e6e6e6" transform="translate(191.064842 318.330875) scale(0.1 -0.1)">
       <defs>
        <path id="LiberationSans-31" d="M 488 0
L 488 478
L 1609 478
L 1609 3866
L 616 3156
L 616 3688
L 1656 4403
L 2175 4403
L 2175 478
L 3247 478
L 3247 0
L 488 0
z
" transform="scale(0.015625)"/>
       </defs>
       <use xlink:href="#LiberationSans-31"/>
       <use xlink:href="#LiberationSans-30" x="55.615234"/>
       <use xlink:href="#LiberationSans-30" x="111.230469"/>
       <use xlink:href="#LiberationSans-30" x="166.845703"/>
       <use xlink:href="#LiberationSans-30" x="222.460938"/>
      </g>
     </g>
    </g>
    <g id="xtick_4">
     <g id="line2d_7">
      <path d="M 270.567215 307.584
L 270.567215 41.472
" clip-path="url(#p56447a3114)" style="fill: none; stroke: #2a3459; stroke-width: 0.8; stroke-linecap: round"/>
     </g>
     <g id="line2d_8"/>
     <g id="text_4">
      <!-- 15000 -->
      <g style="fill: #e6e6e6" transform="translate(256.664872 318.330875) scale(0.1 -0.1)">
       <use xlink:href="#LiberationSans-31"/>
       <use xlink:href="#LiberationSans-35" x="55.615234"/>
       <use xlink:href="#LiberationSans-30" x="111.230469"/>
       <use xlink:href="#LiberationSans-30" x="166.845703"/>
       <use xlink:href="#LiberationSans-30" x="222.460938"/>
      </g>
     </g>
    </g>
    <g id="xtick_5">
     <g id="line2d_9">
      <path d="M 336.167245 307.584
L 336.167245 41.472
" clip-path="url(#p56447a3114)" style="fill: none; stroke: #2a3459; stroke-width: 0.8; stroke-linecap: round"/>
     </g>
     <g id="line2d_10"/>
     <g id="text_5">
      <!-- 20000 -->
      <g style="fill: #e6e6e6" transform="translate(322.264901 318.330875) scale(0.1 -0.1)">
       <defs>
        <path id="LiberationSans-32" d="M 322 0
L 322 397
Q 481 763 711 1042
Q 941 1322 1194 1548
Q 1447 1775 1695 1969
Q 1944 2163 2144 2356
Q 2344 2550 2467 2762
Q 2591 2975 2591 3244
Q 2591 3606 2378 3806
Q 2166 4006 1788 4006
Q 1428 4006 1195 3811
Q 963 3616 922 3263
L 347 3316
Q 409 3844 795 4156
Q 1181 4469 1788 4469
Q 2453 4469 2811 4155
Q 3169 3841 3169 3263
Q 3169 3006 3051 2753
Q 2934 2500 2703 2247
Q 2472 1994 1819 1463
Q 1459 1169 1246 933
Q 1034 697 941 478
L 3238 478
L 3238 0
L 322 0
z
" transform="scale(0.015625)"/>
       </defs>
       <use xlink:href="#LiberationSans-32"/>
       <use xlink:href="#LiberationSans-30" x="55.615234"/>
       <use xlink:href="#LiberationSans-30" x="111.230469"/>
       <use xlink:href="#LiberationSans-30" x="166.845703"/>
       <use xlink:href="#LiberationSans-30" x="222.460938"/>
      </g>
     </g>
    </g>
    <g id="xtick_6">
     <g id="line2d_11">
      <path d="M 401.767274 307.584
L 401.767274 41.472
" clip-path="url(#p56447a3114)" style="fill: none; stroke: #2a3459; stroke-width: 0.8; stroke-linecap: round"/>
     </g>
     <g id="line2d_12"/>
     <g id="text_6">
      <!-- 25000 -->
      <g style="fill: #e6e6e6" transform="translate(387.86493 318.330875) scale(0.1 -0.1)">
       <use xlink:href="#LiberationSans-32"/>
       <use xlink:href="#LiberationSans-35" x="55.615234"/>
       <use xlink:href="#LiberationSans-30" x="111.230469"/>
       <use xlink:href="#LiberationSans-30" x="166.845703"/>
       <use xlink:href="#LiberationSans-30" x="222.460938"/>
      </g>
     </g>
    </g>
    <g id="text_7">
     <!-- Размер текста -->
     <g style="fill: #e6e6e6" transform="translate(202.817813 331.65275) scale(0.1 -0.1)">
      <defs>
       <path id="LiberationSans-420" d="M 3931 3078
Q 3931 2453 3523 2084
Q 3116 1716 2416 1716
L 1122 1716
L 1122 0
L 525 0
L 525 4403
L 2378 4403
Q 3119 4403 3525 4056
Q 3931 3709 3931 3078
z
M 3331 3072
Q 3331 3925 2306 3925
L 1122 3925
L 1122 2188
L 2331 2188
Q 3331 2188 3331 3072
z
" transform="scale(0.015625)"/>
       <path id="LiberationSans-430" d="M 1294 -63
Q 784 -63 528 206
Q 272 475 272 944
Q 272 1469 617 1750
Q 963 2031 1731 2050
L 2491 2063
L 2491 2247
Q 2491 2659 2316 2837
Q 2141 3016 1766 3016
Q 1388 3016 1216 2887
Q 1044 2759 1009 2478
L 422 2531
Q 566 3444 1778 3444
Q 2416 3444 2737 3151
Q 3059 2859 3059 2306
L 3059 850
Q 3059 600 3125 473
Q 3191 347 3375 347
Q 3456 347 3559 369
L 3559 19
Q 3347 -31 3125 -31
Q 2813 -31 2670 133
Q 2528 297 2509 647
L 2491 647
Q 2275 259 1989 98
Q 1703 -63 1294 -63
z
M 1422 359
Q 1731 359 1972 500
Q 2213 641 2352 886
Q 2491 1131 2491 1391
L 2491 1669
L 1875 1656
Q 1478 1650 1273 1575
Q 1069 1500 959 1344
Q 850 1188 850 934
Q 850 659 998 509
Q 1147 359 1422 359
z
" transform="scale(0.015625)"/>
       <path id="LiberationSans-437" d="M 1431 -63
Q 909 -63 601 132
Q 294 328 153 731
L 650 869
Q 816 356 1444 356
Q 1744 356 1920 503
Q 2097 650 2097 934
Q 2097 1559 1063 1559
L 1063 1988
Q 1566 1988 1803 2119
Q 2041 2250 2041 2525
Q 2041 2756 1886 2890
Q 1731 3025 1441 3025
Q 1163 3025 986 2909
Q 809 2794 772 2575
L 266 2638
Q 409 3444 1444 3444
Q 1969 3444 2291 3195
Q 2613 2947 2613 2553
Q 2613 2238 2386 2025
Q 2159 1813 1838 1784
L 1838 1778
Q 2216 1738 2455 1514
Q 2694 1291 2694 950
Q 2694 475 2358 206
Q 2022 -63 1431 -63
z
" transform="scale(0.015625)"/>
       <path id="LiberationSans-43c" d="M 2459 0
L 1981 0
L 969 2972
Q 988 2484 988 2263
L 988 0
L 444 0
L 444 3381
L 1319 3381
L 2006 1316
Q 2169 869 2219 422
Q 2288 925 2431 1316
L 3119 3381
L 3959 3381
L 3959 0
L 3419 0
L 3419 2263
L 3428 2619
L 3444 2978
L 2459 0
z
" transform="scale(0.015625)"/>
       <path id="LiberationSans-435" d="M 863 1572
Q 863 991 1103 675
Q 1344 359 1806 359
Q 2172 359 2392 506
Q 2613 653 2691 878
L 3184 738
Q 2881 -63 1806 -63
Q 1056 -63 664 384
Q 272 831 272 1713
Q 272 2550 664 2997
Q 1056 3444 1784 3444
Q 3275 3444 3275 1647
L 3275 1572
L 863 1572
z
M 2694 2003
Q 2647 2538 2422 2783
Q 2197 3028 1775 3028
Q 1366 3028 1127 2754
Q 888 2481 869 2003
L 2694 2003
z
" transform="scale(0.015625)"/>
       <path id="LiberationSans-440" d="M 3291 1706
Q 3291 -63 2047 -63
Q 1266 -63 997 525
L 981 525
Q 994 500 994 -6
L 994 -1328
L 431 -1328
L 431 2691
Q 431 3213 413 3381
L 956 3381
Q 959 3369 965 3292
Q 972 3216 980 3056
Q 988 2897 988 2838
L 1000 2838
Q 1150 3150 1397 3295
Q 1644 3441 2047 3441
Q 2672 3441 2981 3022
Q 3291 2603 3291 1706
z
M 2700 1694
Q 2700 2400 2509 2703
Q 2319 3006 1903 3006
Q 1569 3006 1380 2865
Q 1191 2725 1092 2426
Q 994 2128 994 1650
Q 994 984 1206 668
Q 1419 353 1897 353
Q 2316 353 2508 661
Q 2700 969 2700 1694
z
" transform="scale(0.015625)"/>
       <path id="LiberationSans-20" transform="scale(0.015625)"/>
       <path id="LiberationSans-442" d="M 109 3381
L 2822 3381
L 2822 2972
L 1747 2972
L 1747 0
L 1184 0
L 1184 2972
L 109 2972
L 109 3381
z
" transform="scale(0.015625)"/>
       <path id="LiberationSans-43a" d="M 431 3381
L 994 3381
L 994 1900
Q 1088 1900 1163 1925
Q 1238 1950 1319 2029
Q 1400 2109 1503 2253
Q 1606 2397 2216 3381
L 2803 3381
L 2128 2366
Q 1838 1941 1728 1850
L 2831 0
L 2206 0
L 1338 1553
Q 1278 1528 1176 1509
Q 1075 1491 994 1491
L 994 0
L 431 0
L 431 3381
z
" transform="scale(0.015625)"/>
       <path id="LiberationSans-441" d="M 859 1706
Q 859 1031 1071 706
Q 1284 381 1713 381
Q 2013 381 2214 543
Q 2416 706 2463 1044
L 3031 1006
Q 2966 519 2616 228
Q 2266 -63 1728 -63
Q 1019 -63 645 385
Q 272 834 272 1694
Q 272 2547 647 2995
Q 1022 3444 1722 3444
Q 2241 3444 2583 3175
Q 2925 2906 3013 2434
L 2434 2391
Q 2391 2672 2212 2837
Q 2034 3003 1706 3003
Q 1259 3003 1059 2706
Q 859 2409 859 1706
z
" transform="scale(0.015625)"/>
      </defs>
      <use xlink:href="#LiberationSans-420"/>
      <use xlink:href="#LiberationSans-430" x="63.324219"/>
      <use xlink:href="#LiberationSans-437" x="117.814453"/>
      <use xlink:href="#LiberationSans-43c" x="163.664062"/>
      <use xlink:href="#LiberationSans-435" x="232.414062"/>
      <use xlink:href="#LiberationSans-440" x="288.029297"/>
      <use xlink:href="#LiberationSans-20" x="343.644531"/>
      <use xlink:href="#LiberationSans-442" x="371.427734"/>
      <use xlink:href="#LiberationSans-435" x="416.103516"/>
      <use xlink:href="#LiberationSans-43a" x="471.71875"/>
      <use xlink:href="#LiberationSans-441" x="516.59375"/>
      <use xlink:href="#LiberationSans-442" x="566.59375"/>
      <use xlink:href="#LiberationSans-430" x="611.269531"/>
     </g>
    </g>
   </g>
   <g id="matplotlib.axis_2">
    <g id="ytick_1">
     <g id="line2d_13">
      <path d="M 57.6 269.90255
L 414.72 269.90255
" clip-path="url(#p56447a3114)" style="fill: none; stroke: #2a3459; stroke-width: 0.8; stroke-linecap: round"/>
     </g>
     <g id="line2d_14"/>
     <g id="text_8">
      <!-- 0.2 -->
      <g style="fill: #e6e6e6" transform="translate(40.2 273.525988) scale(0.1 -0.1)">
       <defs>
        <path id="LiberationSans-2e" d="M 584 0
L 584 684
L 1194 684
L 1194 0
L 584 0
z
" transform="scale(0.015625)"/>
       </defs>
       <use xlink:href="#LiberationSans-30"/>
       <use xlink:href="#LiberationSans-2e" x="55.615234"/>
       <use xlink:href="#LiberationSans-32" x="83.398438"/>
      </g>
     </g>
    </g>
    <g id="ytick_2">
     <g id="line2d_15">
      <path d="M 57.6 213.047305
L 414.72 213.047305
" clip-path="url(#p56447a3114)" style="fill: none; stroke: #2a3459; stroke-width: 0.8; stroke-linecap: round"/>
     </g>
     <g id="line2d_16"/>
     <g id="text_9">
      <!-- 0.4 -->
      <g style="fill: #e6e6e6" transform="translate(40.2 216.670743) scale(0.1 -0.1)">
       <defs>
        <path id="LiberationSans-34" d="M 2753 997
L 2753 0
L 2222 0
L 2222 997
L 147 997
L 147 1434
L 2163 4403
L 2753 4403
L 2753 1441
L 3372 1441
L 3372 997
L 2753 997
z
M 2222 3769
Q 2216 3750 2134 3603
Q 2053 3456 2013 3397
L 884 1734
L 716 1503
L 666 1441
L 2222 1441
L 2222 3769
z
" transform="scale(0.015625)"/>
       </defs>
       <use xlink:href="#LiberationSans-30"/>
       <use xlink:href="#LiberationSans-2e" x="55.615234"/>
       <use xlink:href="#LiberationSans-34" x="83.398438"/>
      </g>
     </g>
    </g>
    <g id="ytick_3">
     <g id="line2d_17">
      <path d="M 57.6 156.19206
L 414.72 156.19206
" clip-path="url(#p56447a3114)" style="fill: none; stroke: #2a3459; stroke-width: 0.8; stroke-linecap: round"/>
     </g>
     <g id="line2d_18"/>
     <g id="text_10">
      <!-- 0.6 -->
      <g style="fill: #e6e6e6" transform="translate(40.2 159.815498) scale(0.1 -0.1)">
       <defs>
        <path id="LiberationSans-36" d="M 3278 1441
Q 3278 744 2900 340
Q 2522 -63 1856 -63
Q 1113 -63 719 490
Q 325 1044 325 2100
Q 325 3244 734 3856
Q 1144 4469 1900 4469
Q 2897 4469 3156 3572
L 2619 3475
Q 2453 4013 1894 4013
Q 1413 4013 1148 3564
Q 884 3116 884 2266
Q 1038 2550 1316 2698
Q 1594 2847 1953 2847
Q 2563 2847 2920 2465
Q 3278 2084 3278 1441
z
M 2706 1416
Q 2706 1894 2472 2153
Q 2238 2413 1819 2413
Q 1425 2413 1183 2183
Q 941 1953 941 1550
Q 941 1041 1192 716
Q 1444 391 1838 391
Q 2244 391 2475 664
Q 2706 938 2706 1416
z
" transform="scale(0.015625)"/>
       </defs>
       <use xlink:href="#LiberationSans-30"/>
       <use xlink:href="#LiberationSans-2e" x="55.615234"/>
       <use xlink:href="#LiberationSans-36" x="83.398438"/>
      </g>
     </g>
    </g>
    <g id="ytick_4">
     <g id="line2d_19">
      <path d="M 57.6 99.336815
L 414.72 99.336815
" clip-path="url(#p56447a3114)" style="fill: none; stroke: #2a3459; stroke-width: 0.8; stroke-linecap: round"/>
     </g>
     <g id="line2d_20"/>
     <g id="text_11">
      <!-- 0.8 -->
      <g style="fill: #e6e6e6" transform="translate(40.2 102.960253) scale(0.1 -0.1)">
       <defs>
        <path id="LiberationSans-38" d="M 3281 1228
Q 3281 619 2893 278
Q 2506 -63 1781 -63
Q 1075 -63 676 271
Q 278 606 278 1222
Q 278 1653 525 1947
Q 772 2241 1156 2303
L 1156 2316
Q 797 2400 589 2681
Q 381 2963 381 3341
Q 381 3844 757 4156
Q 1134 4469 1769 4469
Q 2419 4469 2795 4162
Q 3172 3856 3172 3334
Q 3172 2956 2962 2675
Q 2753 2394 2391 2322
L 2391 2309
Q 2813 2241 3047 1952
Q 3281 1663 3281 1228
z
M 2588 3303
Q 2588 4050 1769 4050
Q 1372 4050 1164 3862
Q 956 3675 956 3303
Q 956 2925 1170 2726
Q 1384 2528 1775 2528
Q 2172 2528 2380 2711
Q 2588 2894 2588 3303
z
M 2697 1281
Q 2697 1691 2453 1898
Q 2209 2106 1769 2106
Q 1341 2106 1100 1882
Q 859 1659 859 1269
Q 859 359 1788 359
Q 2247 359 2472 579
Q 2697 800 2697 1281
z
" transform="scale(0.015625)"/>
       </defs>
       <use xlink:href="#LiberationSans-30"/>
       <use xlink:href="#LiberationSans-2e" x="55.615234"/>
       <use xlink:href="#LiberationSans-38" x="83.398438"/>
      </g>
     </g>
    </g>
    <g id="ytick_5">
     <g id="line2d_21">
      <path d="M 57.6 42.48157
L 414.72 42.48157
" clip-path="url(#p56447a3114)" style="fill: none; stroke: #2a3459; stroke-width: 0.8; stroke-linecap: round"/>
     </g>
     <g id="line2d_22"/>
     <g id="text_12">
      <!-- 1.0 -->
      <g style="fill: #e6e6e6" transform="translate(40.2 46.105007) scale(0.1 -0.1)">
       <use xlink:href="#LiberationSans-31"/>
       <use xlink:href="#LiberationSans-2e" x="55.615234"/>
       <use xlink:href="#LiberationSans-30" x="83.398438"/>
      </g>
     </g>
    </g>
    <g id="text_13">
     <!-- Время, с -->
     <g style="fill: #e6e6e6" transform="translate(34.125 194.847531) rotate(-90) scale(0.1 -0.1)">
      <defs>
       <path id="LiberationSans-412" d="M 3931 1241
Q 3931 653 3503 326
Q 3075 0 2313 0
L 525 0
L 525 4403
L 2125 4403
Q 3675 4403 3675 3334
Q 3675 2944 3456 2678
Q 3238 2413 2838 2322
Q 3363 2259 3647 1970
Q 3931 1681 3931 1241
z
M 3075 3263
Q 3075 3619 2831 3772
Q 2588 3925 2125 3925
L 1122 3925
L 1122 2531
L 2125 2531
Q 2603 2531 2839 2711
Q 3075 2891 3075 3263
z
M 3328 1288
Q 3328 2066 2234 2066
L 1122 2066
L 1122 478
L 2281 478
Q 2828 478 3078 681
Q 3328 884 3328 1288
z
" transform="scale(0.015625)"/>
       <path id="LiberationSans-44f" d="M 1672 1431
L 688 0
L 53 0
L 1128 1472
Q 350 1631 350 2447
Q 350 2913 687 3147
Q 1025 3381 1672 3381
L 3022 3381
L 3022 0
L 2459 0
L 2459 1431
L 1672 1431
z
M 2459 2984
L 1728 2984
Q 1322 2984 1134 2840
Q 947 2697 947 2406
Q 947 2113 1114 1967
Q 1281 1822 1669 1822
L 2459 1822
L 2459 2984
z
" transform="scale(0.015625)"/>
       <path id="LiberationSans-2c" d="M 1203 684
L 1203 159
Q 1203 -172 1143 -394
Q 1084 -616 959 -819
L 575 -819
Q 869 -394 869 0
L 594 0
L 594 684
L 1203 684
z
" transform="scale(0.015625)"/>
      </defs>
      <use xlink:href="#LiberationSans-412"/>
      <use xlink:href="#LiberationSans-440" x="66.699219"/>
      <use xlink:href="#LiberationSans-435" x="122.314453"/>
      <use xlink:href="#LiberationSans-43c" x="177.929688"/>
      <use xlink:href="#LiberationSans-44f" x="246.679688"/>
      <use xlink:href="#LiberationSans-2c" x="300.830078"/>
      <use xlink:href="#LiberationSans-20" x="328.613281"/>
      <use xlink:href="#LiberationSans-441" x="356.396484"/>
     </g>
    </g>
    <g id="text_14">
     <!-- 1e−6 -->
     <g style="fill: #e6e6e6" transform="translate(57.6 38.472) scale(0.1 -0.1)">
      <defs>
       <path id="LiberationSans-65" d="M 863 1572
Q 863 991 1103 675
Q 1344 359 1806 359
Q 2172 359 2392 506
Q 2613 653 2691 878
L 3184 738
Q 2881 -63 1806 -63
Q 1056 -63 664 384
Q 272 831 272 1713
Q 272 2550 664 2997
Q 1056 3444 1784 3444
Q 3275 3444 3275 1647
L 3275 1572
L 863 1572
z
M 2694 2003
Q 2647 2538 2422 2783
Q 2197 3028 1775 3028
Q 1366 3028 1127 2754
Q 888 2481 869 2003
L 2694 2003
z
" transform="scale(0.015625)"/>
       <path id="LiberationSans-2212" d="M 316 1900
L 316 2356
L 3425 2356
L 3425 1900
L 316 1900
z
" transform="scale(0.015625)"/>
      </defs>
      <use xlink:href="#LiberationSans-31"/>
      <use xlink:href="#LiberationSans-65" x="55.615234"/>
      <use xlink:href="#LiberationSans-2212" x="111.230469"/>
      <use xlink:href="#LiberationSans-36" x="169.628906"/>
     </g>
    </g>
   </g>
   <g id="line2d_23">
    <path d="M 73.832727 235.504929
L 73.858967 235.504929
L 74.016407 241.19091
L 74.029527 241.475313
L 74.095127 241.19091
L 74.226327 241.19091
L 74.291927 238.632322
L 74.357528 241.475313
L 74.423128 241.19091
L 74.554328 241.19091
L 74.619928 244.032867
L 74.685528 238.347919
L 74.751128 241.19091
L 74.816728 238.347919
L 74.882328 241.19091
L 74.947928 238.632322
L 75.079128 241.475313
L 75.210328 241.19091
L 75.407128 241.19091
L 75.472728 238.347919
L 75.538328 241.475313
L 75.669528 238.632322
L 75.735128 238.632322
L 76.063128 238.347919
L 76.391128 241.19091
L 77.703129 241.19091
L 78.031129 238.632322
L 78.359129 241.474279
L 78.687129 241.19091
L 79.01513 241.19091
L 79.34313 238.632322
L 79.99913 238.632322
L 80.32713 241.475313
L 80.65513 238.632322
L 80.98313 241.475313
L 81.311131 241.19091
L 81.639131 241.19091
L 81.967131 241.474279
L 82.295131 241.19091
L 82.951131 241.19091
L 83.279132 238.347919
L 83.607132 241.19091
L 84.591132 241.19091
L 84.919132 241.475313
L 85.247132 241.19091
L 85.575133 241.19091
L 85.903133 241.475313
L 86.559133 241.474279
L 86.887133 241.19091
L 87.215133 241.19091
L 87.543133 238.347919
L 87.871134 238.347919
L 88.199134 238.632322
L 88.527134 238.632322
L 88.855134 241.19091
L 89.183134 241.474279
L 89.511134 241.474279
L 89.839134 238.632322
L 90.167135 241.19091
L 90.823135 241.19091
L 91.151135 238.347919
L 91.479135 241.19091
L 91.807135 238.347919
L 92.135135 238.347919
L 92.463136 238.632322
L 92.791136 241.19091
L 93.119136 241.19091
L 93.447136 238.347919
L 94.103136 238.347919
L 94.759137 235.789331
L 95.415137 238.632322
L 96.071137 238.632322
L 96.727138 238.347919
L 97.383138 238.632322
L 98.039138 241.189876
L 100.007139 241.189876
L 100.663139 238.632322
L 101.31914 241.19091
L 101.97514 238.632322
L 102.63114 241.189876
L 103.28714 238.347919
L 103.943141 241.19091
L 104.599141 238.632322
L 105.255141 241.189876
L 105.911142 238.347919
L 106.567142 238.632322
L 107.223142 238.347919
L 107.879143 238.347919
L 108.535143 241.19091
L 109.191143 238.347919
L 109.847143 241.475313
L 110.503144 241.19091
L 111.159144 241.189876
L 111.815144 238.347919
L 112.471145 238.632322
L 113.783145 238.632322
L 114.439145 241.19091
L 115.095146 238.632322
L 115.751146 238.347919
L 116.407146 238.632322
L 117.063147 241.19091
L 117.719147 238.632322
L 118.375147 241.19091
L 119.687148 241.19091
L 120.343148 238.347919
L 120.999148 241.189876
L 121.655149 241.475313
L 122.311149 241.19091
L 122.967149 238.631288
L 124.93515 238.632322
L 125.59115 241.19091
L 126.903151 241.19091
L 127.559151 238.347919
L 128.215152 241.475313
L 128.871152 241.19091
L 130.183153 241.189876
L 130.839153 241.474279
L 131.495153 238.347919
L 132.151153 238.347919
L 132.807154 241.19091
L 133.463154 235.505963
L 134.119154 241.475313
L 134.775155 238.632322
L 135.431155 238.632322
L 136.087155 238.347919
L 136.743155 241.189876
L 137.399156 238.347919
L 138.055156 241.19091
L 138.711156 238.632322
L 139.367157 238.632322
L 140.023157 241.189876
L 141.991158 241.189876
L 142.647158 238.347919
L 143.959159 244.032867
L 144.615159 238.347919
L 145.271159 241.19091
L 145.92716 241.475313
L 146.58316 238.632322
L 147.23916 238.632322
L 147.89516 241.189876
L 148.551161 238.632322
L 149.207161 241.189876
L 149.863161 241.19091
L 150.519162 238.632322
L 151.175162 238.631288
L 151.831162 241.189876
L 152.487163 241.19091
L 153.143163 238.632322
L 153.799163 238.347919
L 154.455163 241.19091
L 155.111164 238.632322
L 155.767164 241.19091
L 157.079165 241.189876
L 157.735165 238.632322
L 158.391165 238.632322
L 159.047165 241.19091
L 159.703166 241.475313
L 160.359166 241.19091
L 161.671167 241.189876
L 162.327167 238.632322
L 164.295168 238.632322
L 164.951168 238.347919
L 165.607168 238.632322
L 166.263169 241.474279
L 166.919169 241.19091
L 167.575169 238.632322
L 168.23117 241.19091
L 170.19917 241.19091
L 170.855171 238.631288
L 171.511171 241.19091
L 172.167171 241.474279
L 173.479172 235.504929
L 174.135172 238.632322
L 174.791173 238.347919
L 175.447173 241.475313
L 176.103173 241.19091
L 176.759173 238.632322
L 182.007176 238.632322
L 185.287177 241.19091
L 188.567179 241.19091
L 191.84718 238.347919
L 195.127182 241.19091
L 198.407183 241.474279
L 201.687185 241.19091
L 204.967186 232.661938
L 208.247187 235.505963
L 211.527189 241.189876
L 214.80719 241.19091
L 218.087192 238.347919
L 221.367193 241.19091
L 227.927196 241.19091
L 231.207198 238.632322
L 234.487199 241.19091
L 237.767201 241.475313
L 241.047202 241.189876
L 244.327204 241.19091
L 247.607205 238.347919
L 250.887207 238.632322
L 254.167208 238.632322
L 257.44721 238.347919
L 260.727211 238.347919
L 264.007212 241.475313
L 267.287214 238.347919
L 270.567215 238.632322
L 273.847217 238.631288
L 277.127218 241.19091
L 280.40722 241.19091
L 283.687221 238.631288
L 286.967223 238.347919
L 290.247224 241.19091
L 293.527226 238.632322
L 296.807227 241.19091
L 300.087229 238.347919
L 303.36723 238.632322
L 306.647232 238.347919
L 309.927233 238.347919
L 313.207235 241.19091
L 316.487236 238.347919
L 319.767237 238.631288
L 323.047239 241.19091
L 326.32724 238.347919
L 329.607242 238.632322
L 332.887243 241.189876
L 336.167245 241.189876
L 339.447246 238.347919
L 342.727248 241.19091
L 346.007249 241.19091
L 349.287251 238.347919
L 352.567252 241.19091
L 355.847254 238.347919
L 359.127255 241.19091
L 362.407257 238.632322
L 365.687258 235.504929
L 368.96726 241.19091
L 372.247261 241.19091
L 375.527262 238.347919
L 378.807264 241.19091
L 382.087265 238.347919
L 385.367267 238.347919
L 388.647268 235.789331
L 391.92727 241.19091
L 395.207271 241.19091
L 398.487273 238.347919
L 398.487273 238.347919
" clip-path="url(#p56447a3114)" style="fill: none; stroke-dasharray: 5.55,2.4; stroke-dashoffset: 0; stroke: #18c0c4; stroke-width: 1.5"/>
   </g>
   <g id="line2d_24">
    <path d="M 73.832727 286.959028
L 73.963927 295.202563
L 74.095127 295.486966
L 74.357528 295.486966
L 74.423128 295.202563
L 74.554328 295.486966
L 74.619928 292.360607
L 74.685528 292.643975
L 74.816728 295.486966
L 74.947928 295.203598
L 75.079128 295.486966
L 75.144728 295.486966
L 75.210328 295.202563
L 75.275928 295.486966
L 75.407128 295.202563
L 75.603928 295.202563
L 75.735128 295.486966
L 76.719129 295.486966
L 77.047129 292.645009
L 77.375129 295.486966
L 78.031129 295.486966
L 78.359129 295.202563
L 78.687129 292.643975
L 79.01513 295.202563
L 79.34313 295.203598
L 79.67113 295.486966
L 79.99913 292.645009
L 80.32713 295.486966
L 80.65513 295.202563
L 80.98313 295.486966
L 81.639131 295.486966
L 81.967131 295.202563
L 82.623131 295.202563
L 82.951131 295.486966
L 83.279132 295.486966
L 83.607132 295.203598
L 83.935132 295.486966
L 84.263132 295.202563
L 84.591132 295.486966
L 85.247132 295.486966
L 85.575133 292.645009
L 85.903133 295.486966
L 86.231133 295.202563
L 87.215133 295.202563
L 87.543133 295.486966
L 87.871134 295.202563
L 88.855134 295.203598
L 89.183134 292.643975
L 89.511134 295.486966
L 90.167135 295.488
L 90.495135 295.203598
L 90.823135 295.486966
L 91.151135 295.486966
L 91.479135 292.645009
L 91.807135 292.645009
L 92.135135 295.203598
L 92.463136 295.202563
L 92.791136 295.488
L 98.039138 295.486966
L 98.695138 295.203598
L 99.351139 295.488
L 100.663139 295.486966
L 101.31914 292.645009
L 101.97514 295.486966
L 102.63114 292.645009
L 103.28714 295.486966
L 105.255141 295.486966
L 105.911142 295.203598
L 106.567142 295.203598
L 107.223142 295.486966
L 107.879143 295.486966
L 108.535143 295.202563
L 109.191143 295.486966
L 113.127145 295.486966
L 113.783145 292.645009
L 114.439145 295.203598
L 115.095146 295.486966
L 115.751146 295.486966
L 116.407146 295.202563
L 117.063147 295.486966
L 117.719147 295.486966
L 118.375147 295.202563
L 119.031148 295.486966
L 120.343148 295.486966
L 120.999148 295.202563
L 121.655149 295.486966
L 122.311149 295.486966
L 122.967149 295.203598
L 123.62315 292.645009
L 124.27915 295.203598
L 124.93515 295.488
L 125.59115 295.486966
L 126.247151 295.203598
L 126.903151 295.486966
L 127.559151 295.203598
L 128.871152 295.203598
L 129.527152 295.488
L 130.183153 295.203598
L 130.839153 292.645009
L 131.495153 295.486966
L 133.463154 295.486966
L 134.119154 295.203598
L 134.775155 295.486966
L 135.431155 295.202563
L 136.087155 295.488
L 136.743155 295.488
L 137.399156 295.202563
L 138.055156 295.486966
L 138.711156 295.203598
L 139.367157 295.486966
L 140.023157 295.486966
L 140.679157 295.203598
L 141.335158 295.203598
L 141.991158 295.486966
L 144.615159 295.486966
L 145.271159 295.203598
L 145.92716 292.645009
L 146.58316 295.202563
L 147.23916 295.488
L 151.175162 295.486966
L 151.831162 295.203598
L 152.487163 295.486966
L 156.423164 295.486966
L 157.079165 295.203598
L 157.735165 295.203598
L 158.391165 295.486966
L 167.575169 295.488
L 168.23117 295.203598
L 168.88717 295.486966
L 175.447173 295.486966
L 176.103173 264.21717
L 176.759173 263.932768
L 177.415174 295.486966
L 201.687185 295.486966
L 204.967186 292.645009
L 208.247187 292.645009
L 211.527189 295.486966
L 237.767201 295.486966
L 241.047202 295.202563
L 244.327204 295.486966
L 306.647232 295.486966
L 309.927233 295.203598
L 313.207235 295.486966
L 323.047239 295.486966
L 326.32724 295.203598
L 329.607242 295.486966
L 359.127255 295.486966
L 362.407257 295.203598
L 365.687258 295.486966
L 368.96726 295.203598
L 372.247261 295.486966
L 375.527262 295.203598
L 378.807264 295.486966
L 382.087265 295.203598
L 385.367267 295.486966
L 388.647268 295.203598
L 395.207271 295.203598
L 398.487273 295.486966
L 398.487273 295.486966
" clip-path="url(#p56447a3114)" style="fill: none; stroke: #f62196; stroke-width: 1.5; stroke-linecap: round"/>
   </g>
   <g id="line2d_25">
    <path d="M 73.832727 269.903152
L 73.858967 267.060161
L 73.885207 272.745108
L 73.911447 269.618749
L 73.963927 269.617715
L 74.029527 272.745108
L 74.095127 275.588099
L 74.160727 269.902118
L 74.226327 275.303697
L 74.291927 272.745108
L 74.423128 275.303697
L 74.554328 269.618749
L 74.685528 275.303697
L 74.947928 275.303697
L 75.079128 269.903152
L 75.275928 275.303697
L 75.341528 272.46174
L 75.472728 275.303697
L 75.538328 275.588099
L 75.603928 272.745108
L 75.669528 275.588099
L 75.735128 272.745108
L 76.063128 275.303697
L 76.391128 272.745108
L 76.719129 275.304731
L 77.047129 275.303697
L 77.375129 272.745108
L 77.703129 275.303697
L 78.031129 269.618749
L 78.359129 275.303697
L 78.687129 272.746142
L 79.01513 272.746142
L 79.34313 269.902118
L 79.67113 275.303697
L 79.99913 269.903152
L 80.32713 275.588099
L 80.65513 272.460706
L 80.98313 272.746142
L 81.311131 275.303697
L 81.639131 272.745108
L 81.967131 275.303697
L 82.295131 272.745108
L 82.623131 275.303697
L 83.279132 269.903152
L 83.935132 269.902118
L 84.263132 272.745108
L 84.591132 269.903152
L 84.919132 275.588099
L 85.247132 272.745108
L 85.575133 272.745108
L 85.903133 275.303697
L 86.231133 275.587065
L 86.559133 269.618749
L 87.215133 275.588099
L 87.543133 269.902118
L 87.871134 269.902118
L 88.199134 272.46174
L 88.527134 272.745108
L 88.855134 272.745108
L 89.183134 275.588099
L 89.511134 269.902118
L 89.839134 275.303697
L 90.167135 269.902118
L 90.495135 272.745108
L 90.823135 269.903152
L 91.479135 275.588099
L 91.807135 275.303697
L 92.135135 275.303697
L 92.463136 275.588099
L 92.791136 272.746142
L 93.119136 275.303697
L 93.447136 269.903152
L 94.103136 275.588099
L 95.415137 269.902118
L 96.071137 269.618749
L 97.383138 275.303697
L 98.039138 272.745108
L 98.695138 275.303697
L 99.351139 272.745108
L 100.007139 275.303697
L 100.663139 269.903152
L 101.31914 269.902118
L 101.97514 269.618749
L 102.63114 266.775758
L 103.28714 267.060161
L 103.943141 264.21717
L 104.599141 267.059127
L 105.255141 272.745108
L 105.911142 267.060161
L 106.567142 267.059127
L 107.223142 272.460706
L 107.879143 272.745108
L 108.535143 275.588099
L 109.191143 272.745108
L 109.847143 272.46174
L 110.503144 272.460706
L 111.159144 255.403796
L 111.815144 275.588099
L 112.471145 269.903152
L 113.127145 275.304731
L 113.783145 272.746142
L 114.439145 275.304731
L 115.095146 275.303697
L 115.751146 272.745108
L 116.407146 275.303697
L 117.063147 272.460706
L 117.719147 272.745108
L 118.375147 275.588099
L 119.031148 272.746142
L 119.687148 275.588099
L 120.343148 269.903152
L 120.999148 269.902118
L 121.655149 275.588099
L 122.311149 275.303697
L 122.967149 275.588099
L 123.62315 275.303697
L 124.27915 272.460706
L 124.93515 275.588099
L 125.59115 272.745108
L 126.247151 275.303697
L 126.903151 275.303697
L 127.559151 275.588099
L 128.215152 275.303697
L 128.871152 269.618749
L 129.527152 275.303697
L 130.183153 275.587065
L 130.839153 275.303697
L 131.495153 275.588099
L 132.151153 275.303697
L 132.807154 272.745108
L 133.463154 275.303697
L 134.119154 275.303697
L 134.775155 272.460706
L 135.431155 275.303697
L 136.743155 275.303697
L 137.399156 272.460706
L 138.055156 275.303697
L 138.711156 272.460706
L 139.367157 272.745108
L 140.023157 275.303697
L 140.679157 275.588099
L 141.335158 275.303697
L 141.991158 275.588099
L 142.647158 272.460706
L 143.303158 269.902118
L 143.959159 269.903152
L 144.615159 275.303697
L 145.271159 272.460706
L 145.92716 275.588099
L 146.58316 272.745108
L 147.23916 275.304731
L 147.89516 275.303697
L 148.551161 272.745108
L 149.207161 272.745108
L 149.863161 275.303697
L 154.455163 275.303697
L 155.111164 275.588099
L 155.767164 272.46174
L 156.423164 272.46174
L 157.079165 275.303697
L 158.391165 275.303697
L 159.047165 269.902118
L 159.703166 275.303697
L 161.015166 275.303697
L 161.671167 269.902118
L 162.327167 275.588099
L 162.983167 275.303697
L 163.639168 269.617715
L 164.295168 275.304731
L 164.951168 252.561839
L 166.919169 244.032867
L 167.575169 249.718848
L 168.23117 252.561839
L 168.88717 272.460706
L 169.54317 275.303697
L 170.19917 272.745108
L 170.855171 272.745108
L 171.511171 275.303697
L 172.823172 275.303697
L 173.479172 275.588099
L 174.135172 275.303697
L 174.791173 269.902118
L 175.447173 275.303697
L 176.103173 275.303697
L 176.759173 275.588099
L 177.415174 272.460706
L 178.071174 275.303697
L 188.567179 275.303697
L 191.84718 275.588099
L 195.127182 275.303697
L 198.407183 275.304731
L 201.687185 272.746142
L 204.967186 267.059127
L 208.247187 275.303697
L 211.527189 275.588099
L 214.80719 269.903152
L 218.087192 269.902118
L 221.367193 275.303697
L 231.207198 275.303697
L 234.487199 269.903152
L 237.767201 275.588099
L 241.047202 269.903152
L 244.327204 272.745108
L 247.607205 272.745108
L 250.887207 275.303697
L 254.167208 275.303697
L 257.44721 275.587065
L 260.727211 275.303697
L 264.007212 272.746142
L 267.287214 272.746142
L 270.567215 275.303697
L 273.847217 272.745108
L 277.127218 275.303697
L 293.527226 275.303697
L 296.807227 272.745108
L 300.087229 275.304731
L 303.36723 272.745108
L 309.927233 272.745108
L 313.207235 275.588099
L 316.487236 275.304731
L 319.767237 275.303697
L 323.047239 269.903152
L 326.32724 275.303697
L 329.607242 269.618749
L 332.887243 275.303697
L 339.447246 275.303697
L 342.727248 275.588099
L 346.007249 272.460706
L 349.287251 275.588099
L 359.127255 275.588099
L 362.407257 275.303697
L 365.687258 275.588099
L 368.96726 275.588099
L 372.247261 275.304731
L 385.367267 275.303697
L 388.647268 269.618749
L 391.92727 275.588099
L 395.207271 275.303697
L 398.487273 275.303697
L 398.487273 275.303697
" clip-path="url(#p56447a3114)" style="fill: none; stroke: #a267f5; stroke-width: 1.5; stroke-linecap: round"/>
   </g>
   <g id="line2d_26">
    <path d="M 73.832727 178.650285
L 73.937687 172.964303
L 73.963927 70.340508
L 74.016407 192.864204
L 74.029527 187.178223
L 74.160727 187.178223
L 74.291927 184.335232
L 74.357528 187.178223
L 74.423128 184.335232
L 74.554328 187.178223
L 74.619928 184.335232
L 74.685528 190.020179
L 74.751128 187.178223
L 74.816728 184.336266
L 74.947928 187.178223
L 75.013528 184.336266
L 75.144728 187.178223
L 75.210328 187.178223
L 75.275928 190.021214
L 75.341528 187.178223
L 75.407128 190.021214
L 75.603928 184.335232
L 75.735128 190.021214
L 76.063128 190.021214
L 76.391128 187.178223
L 76.719129 192.864204
L 77.047129 187.178223
L 77.703129 187.178223
L 78.031129 184.336266
L 78.359129 187.178223
L 78.687129 184.335232
L 79.01513 187.178223
L 79.34313 187.178223
L 79.67113 190.021214
L 80.65513 190.020179
L 80.98313 187.178223
L 81.639131 187.178223
L 81.967131 184.335232
L 82.295131 190.021214
L 82.623131 181.776644
L 83.279132 187.178223
L 83.607132 187.178223
L 83.935132 190.020179
L 84.263132 187.178223
L 84.591132 190.020179
L 84.919132 184.335232
L 85.575133 190.021214
L 85.903133 190.021214
L 86.231133 187.178223
L 86.559133 190.021214
L 86.887133 187.178223
L 87.215133 190.020179
L 87.543133 187.178223
L 87.871134 190.021214
L 88.199134 181.492241
L 88.527134 187.178223
L 88.855134 190.021214
L 89.511134 190.021214
L 89.839134 184.336266
L 90.167135 187.178223
L 90.495135 187.178223
L 90.823135 190.021214
L 91.151135 190.021214
L 91.479135 187.178223
L 92.463136 187.178223
L 92.791136 190.021214
L 93.119136 187.178223
L 93.447136 190.021214
L 94.103136 187.178223
L 95.415137 187.178223
L 96.071137 190.021214
L 96.727138 187.178223
L 99.351139 187.177189
L 100.007139 184.335232
L 100.663139 190.020179
L 101.31914 184.335232
L 101.97514 187.178223
L 102.63114 184.335232
L 103.28714 184.336266
L 103.943141 187.178223
L 104.599141 187.178223
L 105.255141 190.021214
L 105.911142 187.178223
L 106.567142 187.178223
L 107.223142 181.493276
L 107.879143 184.336266
L 108.535143 190.021214
L 109.191143 187.178223
L 110.503144 187.178223
L 111.159144 190.021214
L 111.815144 187.178223
L 112.471145 187.178223
L 113.127145 187.461591
L 113.783145 190.020179
L 114.439145 187.178223
L 115.095146 187.178223
L 115.751146 184.336266
L 116.407146 187.178223
L 117.063147 184.335232
L 117.719147 190.021214
L 118.375147 187.178223
L 119.031148 190.021214
L 119.687148 187.178223
L 120.343148 190.020179
L 121.655149 190.020179
L 122.311149 133.165536
L 122.967149 187.178223
L 123.62315 184.335232
L 124.27915 190.021214
L 124.93515 187.178223
L 125.59115 187.178223
L 126.247151 184.335232
L 126.903151 190.021214
L 127.559151 187.178223
L 128.215152 187.461591
L 128.871152 190.021214
L 130.183153 190.021214
L 131.495153 184.335232
L 132.151153 190.021214
L 132.807154 187.178223
L 133.463154 190.020179
L 134.119154 184.335232
L 134.775155 187.178223
L 136.087155 187.178223
L 136.743155 184.619635
L 137.399156 187.178223
L 138.055156 187.178223
L 138.711156 190.021214
L 139.367157 187.178223
L 140.023157 190.021214
L 140.679157 187.178223
L 141.335158 53.568
L 141.991158 187.178223
L 142.647158 184.335232
L 143.303158 190.021214
L 143.959159 187.178223
L 144.615159 187.178223
L 145.271159 190.020179
L 145.92716 187.178223
L 146.58316 187.178223
L 147.23916 190.020179
L 147.89516 190.021214
L 148.551161 187.178223
L 149.207161 190.304582
L 149.863161 184.335232
L 150.519162 190.021214
L 153.143163 190.021214
L 153.799163 187.178223
L 154.455163 190.304582
L 155.111164 187.178223
L 155.767164 190.021214
L 156.423164 187.462625
L 157.079165 190.021214
L 157.735165 187.178223
L 158.391165 190.021214
L 159.047165 187.178223
L 160.359166 187.178223
L 161.015166 190.020179
L 161.671167 187.178223
L 162.327167 190.021214
L 163.639168 190.020179
L 164.295168 184.335232
L 164.951168 184.335232
L 165.607168 187.178223
L 166.919169 187.178223
L 167.575169 192.86317
L 168.23117 187.178223
L 168.88717 184.335232
L 169.54317 184.335232
L 170.19917 192.86317
L 171.511171 187.178223
L 172.823172 187.178223
L 173.479172 190.020179
L 174.135172 187.178223
L 174.791173 187.178223
L 175.447173 192.864204
L 176.103173 192.86317
L 176.759173 190.021214
L 177.415174 192.864204
L 178.071174 187.178223
L 178.727174 190.020179
L 182.007176 190.021214
L 185.287177 184.335232
L 188.567179 190.021214
L 191.84718 192.86317
L 195.127182 187.177189
L 198.407183 190.021214
L 204.967186 190.021214
L 208.247187 187.178223
L 211.527189 190.021214
L 214.80719 187.178223
L 218.087192 187.178223
L 224.647195 192.86317
L 227.927196 190.021214
L 231.207198 192.86317
L 234.487199 190.021214
L 241.047202 190.020179
L 244.327204 184.335232
L 247.607205 190.021214
L 250.887207 192.864204
L 254.167208 187.178223
L 257.44721 187.178223
L 260.727211 192.864204
L 264.007212 192.86317
L 267.287214 187.178223
L 270.567215 192.86317
L 273.847217 187.178223
L 277.127218 192.86317
L 280.40722 190.021214
L 283.687221 190.021214
L 286.967223 187.178223
L 290.247224 187.178223
L 293.527226 190.020179
L 296.807227 184.335232
L 300.087229 190.021214
L 303.36723 187.178223
L 306.647232 190.021214
L 313.207235 190.020179
L 316.487236 192.86317
L 319.767237 187.178223
L 323.047239 187.178223
L 326.32724 184.335232
L 329.607242 187.178223
L 332.887243 187.178223
L 336.167245 190.020179
L 339.447246 190.021214
L 342.727248 184.335232
L 352.567252 192.86317
L 355.847254 190.021214
L 359.127255 190.021214
L 362.407257 187.178223
L 365.687258 190.021214
L 368.96726 187.461591
L 372.247261 190.305616
L 375.527262 190.021214
L 385.367267 190.021214
L 388.647268 192.864204
L 391.92727 190.021214
L 398.487273 190.021214
L 398.487273 190.021214
" clip-path="url(#p56447a3114)" style="fill: none; stroke: #f3907e; stroke-width: 1.5; stroke-linecap: round"/>
   </g>
   <g id="line2d_27">
    <path d="M 73.832727 201.392142
L 74.029527 215.606062
L 74.160727 207.07709
L 74.226327 207.362526
L 74.291927 213.047474
L 74.357528 207.078124
L 74.488728 212.763071
L 74.619928 209.921115
L 74.685528 209.92008
L 74.751128 210.204483
L 74.816728 212.763071
L 74.947928 209.92008
L 75.210328 209.921115
L 75.275928 207.07709
L 75.341528 207.362526
L 75.472728 210.204483
L 75.538328 209.92008
L 75.603928 212.763071
L 75.735128 209.92008
L 76.063128 210.204483
L 76.391128 207.07709
L 77.375129 207.07709
L 78.031129 212.763071
L 78.359129 210.204483
L 78.687129 212.763071
L 79.01513 204.235133
L 79.34313 212.763071
L 79.67113 207.078124
L 79.99913 207.07709
L 80.32713 209.921115
L 80.65513 207.078124
L 80.98313 207.078124
L 81.311131 209.92008
L 81.639131 209.92008
L 81.967131 212.763071
L 82.623131 207.07709
L 82.951131 207.078124
L 83.279132 212.763071
L 83.607132 204.235133
L 83.935132 201.392142
L 84.263132 201.391108
L 84.919132 207.361492
L 85.247132 207.07709
L 85.575133 209.92008
L 85.903133 204.235133
L 86.231133 213.047474
L 86.559133 207.361492
L 86.887133 207.07709
L 87.215133 204.235133
L 87.543133 164.436365
L 87.871134 207.07709
L 88.199134 207.078124
L 88.527134 213.046439
L 88.855134 207.078124
L 89.183134 207.078124
L 89.511134 209.92008
L 89.839134 207.078124
L 90.167135 210.204483
L 90.495135 215.605028
L 90.823135 209.92008
L 91.151135 207.078124
L 91.479135 212.763071
L 91.807135 212.763071
L 92.135135 210.204483
L 92.463136 209.92008
L 92.791136 207.078124
L 93.119136 212.763071
L 93.447136 209.92008
L 94.103136 207.078124
L 94.759137 209.92008
L 95.415137 209.92008
L 96.071137 212.763071
L 96.727138 209.92008
L 97.383138 209.92008
L 98.039138 210.204483
L 98.695138 209.92008
L 99.351139 209.921115
L 100.007139 212.763071
L 101.31914 212.763071
L 101.97514 209.92008
L 102.63114 209.921115
L 103.28714 213.047474
L 103.943141 212.763071
L 104.599141 209.92008
L 105.255141 212.763071
L 105.911142 207.078124
L 106.567142 212.763071
L 107.223142 209.92008
L 107.879143 212.762037
L 108.535143 209.92008
L 109.191143 210.204483
L 109.847143 212.763071
L 110.503144 209.92008
L 111.159144 210.204483
L 111.815144 212.763071
L 113.783145 212.763071
L 114.439145 207.078124
L 115.095146 212.763071
L 116.407146 212.763071
L 117.063147 209.92008
L 117.719147 209.921115
L 118.375147 212.762037
L 119.031148 107.580687
L 119.687148 212.763071
L 120.343148 215.605028
L 121.655149 210.204483
L 122.311149 212.763071
L 122.967149 212.763071
L 123.62315 213.046439
L 124.27915 210.204483
L 124.93515 212.763071
L 127.559151 212.763071
L 128.215152 209.92008
L 129.527152 215.605028
L 130.183153 209.92008
L 131.495153 215.605028
L 132.151153 209.92008
L 132.807154 212.763071
L 134.119154 212.763071
L 134.775155 209.92008
L 136.743155 209.92008
L 137.399156 212.763071
L 138.055156 212.763071
L 138.711156 213.047474
L 139.367157 212.763071
L 140.023157 213.047474
L 140.679157 212.763071
L 141.335158 212.763071
L 141.991158 164.436365
L 142.647158 210.204483
L 143.303158 215.605028
L 143.959159 212.763071
L 144.615159 212.763071
L 145.271159 209.92008
L 145.92716 215.606062
L 146.58316 209.92008
L 147.23916 212.763071
L 148.551161 212.763071
L 149.207161 209.92008
L 149.863161 212.762037
L 150.519162 210.204483
L 151.175162 210.204483
L 151.831162 212.763071
L 153.143163 212.763071
L 153.799163 215.605028
L 154.455163 212.763071
L 155.111164 212.763071
L 155.767164 213.047474
L 156.423164 209.921115
L 157.079165 212.762037
L 161.015166 212.763071
L 161.671167 209.921115
L 162.327167 212.763071
L 162.983167 213.047474
L 163.639168 212.763071
L 164.295168 212.763071
L 164.951168 209.92008
L 165.607168 209.92008
L 166.263169 210.204483
L 166.919169 212.763071
L 168.88717 212.763071
L 169.54317 209.921115
L 170.855171 209.921115
L 171.511171 212.763071
L 172.167171 210.204483
L 172.823172 212.763071
L 173.479172 212.763071
L 174.135172 209.92008
L 174.791173 209.92008
L 175.447173 207.078124
L 176.103173 209.92008
L 176.759173 207.078124
L 177.415174 207.361492
L 178.071174 209.92008
L 185.287177 209.92008
L 188.567179 207.078124
L 191.84718 207.07709
L 195.127182 209.92008
L 198.407183 209.92008
L 201.687185 207.078124
L 204.967186 207.07709
L 208.247187 207.361492
L 211.527189 209.92008
L 214.80719 212.763071
L 218.087192 213.047474
L 221.367193 209.92008
L 224.647195 209.92008
L 227.927196 213.047474
L 231.207198 212.763071
L 234.487199 124.637598
L 237.767201 141.694508
L 241.047202 150.221412
L 244.327204 204.235133
L 247.607205 210.204483
L 250.887207 210.205517
L 254.167208 212.763071
L 257.44721 209.92008
L 260.727211 201.392142
L 264.007212 147.379455
L 267.287214 150.222446
L 270.567215 150.221412
L 273.847217 161.593375
L 277.127218 138.851517
L 280.40722 138.851517
L 283.687221 127.480588
L 286.967223 147.095053
L 290.247224 104.738731
L 293.527226 133.165536
L 296.807227 136.008526
L 300.087229 207.07709
L 303.36723 147.379455
L 306.647232 138.850483
L 309.927233 152.781034
L 313.207235 121.510204
L 316.487236 213.047474
L 319.767237 138.851517
L 323.047239 113.266669
L 326.32724 121.511239
L 329.607242 104.454328
L 332.887243 104.737697
L 336.167245 118.667214
L 339.447246 204.234099
L 342.727248 84.554427
L 346.007249 132.881133
L 349.287251 121.510204
L 352.567252 93.083399
L 355.847254 96.209759
L 359.127255 118.951616
L 362.407257 210.204483
L 365.687258 209.92008
L 368.96726 209.92008
L 372.247261 124.637598
L 375.527262 161.593375
L 378.807264 98.768347
L 382.087265 209.92008
L 385.367267 207.361492
L 388.647268 212.763071
L 391.92727 209.92008
L 395.207271 212.763071
L 398.487273 212.763071
L 398.487273 212.763071
" clip-path="url(#p56447a3114)" style="fill: none; stroke: #ffe46b; stroke-width: 1.5; stroke-linecap: round"/>
   </g>
   <g id="line2d_28">
    <path d="M 73.832727 289.802019
L 73.885207 289.517616
L 73.911447 289.800984
L 73.937687 286.959028
L 73.963927 292.643975
L 73.990167 292.360607
L 74.095127 292.643975
L 74.160727 289.802019
L 74.291927 292.360607
L 74.357528 292.645009
L 74.488728 289.802019
L 74.619928 292.643975
L 74.751128 292.360607
L 74.816728 289.517616
L 74.947928 292.643975
L 75.079128 289.800984
L 75.144728 292.643975
L 75.210328 289.802019
L 75.341528 292.360607
L 75.538328 292.360607
L 75.603928 289.802019
L 75.735128 292.360607
L 76.063128 292.643975
L 76.391128 292.360607
L 76.719129 292.360607
L 77.047129 292.643975
L 77.375129 289.802019
L 77.703129 292.359573
L 78.031129 292.359573
L 78.359129 289.802019
L 78.687129 292.360607
L 80.32713 292.359573
L 80.65513 289.517616
L 80.98313 292.359573
L 81.639131 292.360607
L 81.967131 292.645009
L 82.295131 292.360607
L 83.279132 292.360607
L 83.607132 292.643975
L 83.935132 292.360607
L 84.263132 292.643975
L 84.591132 292.360607
L 85.247132 292.360607
L 85.575133 292.643975
L 86.559133 292.643975
L 86.887133 292.359573
L 87.215133 292.645009
L 87.543133 292.360607
L 87.871134 292.643975
L 88.199134 292.360607
L 88.527134 292.643975
L 89.183134 292.645009
L 89.511134 289.802019
L 89.839134 292.643975
L 90.167135 292.359573
L 90.495135 292.643975
L 90.823135 292.360607
L 91.479135 292.360607
L 91.807135 289.802019
L 92.135135 292.359573
L 92.463136 292.643975
L 92.791136 292.360607
L 93.119136 292.359573
L 93.447136 289.802019
L 94.759137 289.802019
L 95.415137 292.643975
L 96.071137 292.360607
L 96.727138 292.643975
L 97.383138 292.360607
L 98.039138 292.360607
L 98.695138 289.802019
L 99.351139 292.360607
L 100.007139 292.643975
L 100.663139 292.360607
L 101.31914 289.802019
L 101.97514 292.359573
L 102.63114 292.360607
L 103.28714 289.802019
L 103.943141 292.645009
L 104.599141 292.360607
L 105.255141 292.643975
L 105.911142 292.360607
L 107.223142 292.360607
L 107.879143 289.802019
L 108.535143 292.643975
L 109.191143 292.360607
L 109.847143 289.802019
L 110.503144 292.643975
L 111.159144 292.359573
L 111.815144 292.643975
L 112.471145 292.643975
L 113.127145 292.360607
L 113.783145 292.643975
L 115.095146 292.643975
L 115.751146 292.360607
L 116.407146 292.643975
L 117.063147 292.360607
L 117.719147 292.643975
L 118.375147 292.643975
L 119.031148 289.802019
L 119.687148 292.643975
L 120.343148 292.359573
L 120.999148 292.643975
L 121.655149 292.643975
L 122.311149 292.360607
L 122.967149 292.645009
L 123.62315 292.359573
L 124.27915 292.643975
L 124.93515 292.360607
L 125.59115 292.643975
L 126.247151 292.643975
L 126.903151 292.360607
L 127.559151 292.643975
L 130.839153 292.645009
L 131.495153 292.360607
L 132.151153 289.802019
L 132.807154 292.360607
L 133.463154 292.643975
L 134.119154 292.360607
L 134.775155 292.643975
L 136.087155 292.643975
L 136.743155 292.359573
L 137.399156 292.645009
L 138.055156 292.360607
L 138.711156 292.643975
L 140.023157 292.645009
L 140.679157 292.360607
L 141.991158 292.360607
L 142.647158 292.643975
L 143.959159 292.643975
L 144.615159 289.802019
L 145.271159 292.643975
L 145.92716 292.360607
L 146.58316 292.643975
L 147.23916 292.360607
L 148.551161 292.360607
L 149.207161 289.802019
L 149.863161 292.360607
L 150.519162 292.643975
L 151.175162 292.360607
L 151.831162 292.643975
L 152.487163 292.360607
L 153.143163 292.360607
L 153.799163 292.643975
L 155.111164 292.643975
L 155.767164 292.359573
L 156.423164 289.802019
L 157.079165 292.360607
L 157.735165 292.645009
L 158.391165 292.360607
L 159.703166 286.959028
L 161.015166 292.360607
L 162.327167 292.360607
L 162.983167 289.517616
L 163.639168 292.643975
L 164.951168 292.645009
L 165.607168 289.802019
L 166.263169 292.643975
L 168.23117 292.643975
L 168.88717 292.360607
L 171.511171 292.359573
L 172.167171 292.645009
L 172.823172 292.360607
L 174.791173 292.360607
L 175.447173 292.645009
L 176.103173 292.360607
L 176.759173 292.643975
L 177.415174 292.360607
L 178.071174 292.643975
L 178.727174 292.643975
L 182.007176 278.146687
L 185.287177 275.588099
L 188.567179 275.303697
L 191.84718 278.43109
L 195.127182 278.145653
L 198.407183 272.745108
L 201.687185 281.27408
L 208.247187 269.903152
L 211.527189 269.902118
L 214.80719 286.959028
L 218.087192 292.360607
L 221.367193 292.643975
L 227.927196 292.643975
L 231.207198 292.360607
L 234.487199 292.643975
L 237.767201 292.643975
L 241.047202 289.802019
L 244.327204 292.645009
L 247.607205 289.802019
L 250.887207 292.643975
L 254.167208 289.517616
L 257.44721 292.643975
L 260.727211 289.802019
L 264.007212 292.643975
L 267.287214 292.360607
L 270.567215 292.643975
L 273.847217 289.802019
L 277.127218 292.360607
L 280.40722 255.689232
L 283.687221 284.116037
L 286.967223 292.360607
L 290.247224 289.517616
L 293.527226 289.802019
L 296.807227 289.802019
L 300.087229 292.359573
L 303.36723 292.359573
L 306.647232 289.802019
L 313.207235 289.802019
L 316.487236 292.359573
L 319.767237 289.802019
L 323.047239 289.802019
L 326.32724 292.643975
L 329.607242 292.360607
L 332.887243 289.802019
L 339.447246 289.802019
L 342.727248 292.643975
L 346.007249 292.360607
L 349.287251 292.360607
L 352.567252 289.802019
L 355.847254 292.643975
L 359.127255 292.643975
L 362.407257 292.360607
L 365.687258 289.802019
L 368.96726 292.360607
L 372.247261 292.643975
L 375.527262 292.643975
L 378.807264 292.360607
L 382.087265 289.802019
L 385.367267 289.802019
L 388.647268 292.643975
L 391.92727 289.802019
L 395.207271 289.802019
L 398.487273 289.517616
L 398.487273 289.517616
" clip-path="url(#p56447a3114)" style="fill: none; stroke-dasharray: 5.55,2.4; stroke-dashoffset: 0; stroke: #fefeff; stroke-width: 1.5"/>
   </g>
   <g id="patch_3">
    <path d="M 57.6 307.584
L 57.6 41.472
" style="fill: none"/>
   </g>
   <g id="patch_4">
    <path d="M 414.72 307.584
L 414.72 41.472
" style="fill: none"/>
   </g>
   <g id="patch_5">
    <path d="M 57.6 307.584
L 414.72 307.584
" style="fill: none"/>
   </g>
   <g id="patch_6">
    <path d="M 57.6 41.472
L 414.72 41.472
" style="fill: none"/>
   </g>
   <g id="legend_1">
    <g id="line2d_29">
     <path d="M 199.790469 54.218875
L 209.790469 54.218875
L 219.790469 54.218875
" style="fill: none; stroke-dasharray: 5.55,2.4; stroke-dashoffset: 0; stroke: #18c0c4; stroke-width: 1.5"/>
    </g>
    <g id="text_15">
     <!-- re2 -->
     <g style="fill: #e6e6e6" transform="translate(227.790469 57.718875) scale(0.1 -0.1)">
      <defs>
       <path id="LiberationSans-72" d="M 444 0
L 444 2594
Q 444 2950 425 3381
L 956 3381
Q 981 2806 981 2691
L 994 2691
Q 1128 3125 1303 3284
Q 1478 3444 1797 3444
Q 1909 3444 2025 3413
L 2025 2897
Q 1913 2928 1725 2928
Q 1375 2928 1190 2626
Q 1006 2325 1006 1763
L 1006 0
L 444 0
z
" transform="scale(0.015625)"/>
      </defs>
      <use xlink:href="#LiberationSans-72"/>
      <use xlink:href="#LiberationSans-65" x="33.300781"/>
      <use xlink:href="#LiberationSans-32" x="88.916016"/>
     </g>
    </g>
    <g id="line2d_30">
     <path d="M 199.790469 68.54075
L 209.790469 68.54075
L 219.790469 68.54075
" style="fill: none; stroke: #f62196; stroke-width: 1.5; stroke-linecap: round"/>
    </g>
    <g id="text_16">
     <!-- re -->
     <g style="fill: #e6e6e6" transform="translate(227.790469 72.04075) scale(0.1 -0.1)">
      <use xlink:href="#LiberationSans-72"/>
      <use xlink:href="#LiberationSans-65" x="33.300781"/>
     </g>
    </g>
    <g id="line2d_31">
     <path d="M 199.790469 82.862625
L 209.790469 82.862625
L 219.790469 82.862625
" style="fill: none; stroke: #a267f5; stroke-width: 1.5; stroke-linecap: round"/>
    </g>
    <g id="text_17">
     <!-- regex -->
     <g style="fill: #e6e6e6" transform="translate(227.790469 86.362625) scale(0.1 -0.1)">
      <defs>
       <path id="LiberationSans-67" d="M 1713 -1328
Q 1159 -1328 831 -1111
Q 503 -894 409 -494
L 975 -413
Q 1031 -647 1223 -773
Q 1416 -900 1728 -900
Q 2569 -900 2569 84
L 2569 628
L 2563 628
Q 2403 303 2125 139
Q 1847 -25 1475 -25
Q 853 -25 561 387
Q 269 800 269 1684
Q 269 2581 583 3007
Q 897 3434 1538 3434
Q 1897 3434 2161 3270
Q 2425 3106 2569 2803
L 2575 2803
Q 2575 2897 2587 3128
Q 2600 3359 2613 3381
L 3147 3381
Q 3128 3213 3128 2681
L 3128 97
Q 3128 -1328 1713 -1328
z
M 2569 1691
Q 2569 2103 2456 2401
Q 2344 2700 2139 2858
Q 1934 3016 1675 3016
Q 1244 3016 1047 2703
Q 850 2391 850 1691
Q 850 997 1034 694
Q 1219 391 1666 391
Q 1931 391 2137 547
Q 2344 703 2456 995
Q 2569 1288 2569 1691
z
" transform="scale(0.015625)"/>
       <path id="LiberationSans-78" d="M 2503 0
L 1594 1388
L 678 0
L 72 0
L 1275 1738
L 128 3381
L 750 3381
L 1594 2066
L 2431 3381
L 3059 3381
L 1913 1744
L 3131 0
L 2503 0
z
" transform="scale(0.015625)"/>
      </defs>
      <use xlink:href="#LiberationSans-72"/>
      <use xlink:href="#LiberationSans-65" x="33.300781"/>
      <use xlink:href="#LiberationSans-67" x="88.916016"/>
      <use xlink:href="#LiberationSans-65" x="144.53125"/>
      <use xlink:href="#LiberationSans-78" x="200.146484"/>
     </g>
    </g>
    <g id="line2d_32">
     <path d="M 199.790469 97.1845
L 209.790469 97.1845
L 219.790469 97.1845
" style="fill: none; stroke: #f3907e; stroke-width: 1.5; stroke-linecap: round"/>
    </g>
    <g id="text_18">
     <!-- pcre2 -->
     <g style="fill: #e6e6e6" transform="translate(227.790469 100.6845) scale(0.1 -0.1)">
      <defs>
       <path id="LiberationSans-70" d="M 3291 1706
Q 3291 -63 2047 -63
Q 1266 -63 997 525
L 981 525
Q 994 500 994 -6
L 994 -1328
L 431 -1328
L 431 2691
Q 431 3213 413 3381
L 956 3381
Q 959 3369 965 3292
Q 972 3216 980 3056
Q 988 2897 988 2838
L 1000 2838
Q 1150 3150 1397 3295
Q 1644 3441 2047 3441
Q 2672 3441 2981 3022
Q 3291 2603 3291 1706
z
M 2700 1694
Q 2700 2400 2509 2703
Q 2319 3006 1903 3006
Q 1569 3006 1380 2865
Q 1191 2725 1092 2426
Q 994 2128 994 1650
Q 994 984 1206 668
Q 1419 353 1897 353
Q 2316 353 2508 661
Q 2700 969 2700 1694
z
" transform="scale(0.015625)"/>
       <path id="LiberationSans-63" d="M 859 1706
Q 859 1031 1071 706
Q 1284 381 1713 381
Q 2013 381 2214 543
Q 2416 706 2463 1044
L 3031 1006
Q 2966 519 2616 228
Q 2266 -63 1728 -63
Q 1019 -63 645 385
Q 272 834 272 1694
Q 272 2547 647 2995
Q 1022 3444 1722 3444
Q 2241 3444 2583 3175
Q 2925 2906 3013 2434
L 2434 2391
Q 2391 2672 2212 2837
Q 2034 3003 1706 3003
Q 1259 3003 1059 2706
Q 859 2409 859 1706
z
" transform="scale(0.015625)"/>
      </defs>
      <use xlink:href="#LiberationSans-70"/>
      <use xlink:href="#LiberationSans-63" x="55.615234"/>
      <use xlink:href="#LiberationSans-72" x="105.615234"/>
      <use xlink:href="#LiberationSans-65" x="138.916016"/>
      <use xlink:href="#LiberationSans-32" x="194.53125"/>
     </g>
    </g>
    <g id="line2d_33">
     <path d="M 199.790469 111.506375
L 209.790469 111.506375
L 219.790469 111.506375
" style="fill: none; stroke: #ffe46b; stroke-width: 1.5; stroke-linecap: round"/>
    </g>
    <g id="text_19">
     <!-- pcre2+JIT -->
     <g style="fill: #e6e6e6" transform="translate(227.790469 115.006375) scale(0.1 -0.1)">
      <defs>
       <path id="LiberationSans-2b" d="M 2097 1900
L 2097 563
L 1638 563
L 1638 1900
L 313 1900
L 313 2356
L 1638 2356
L 1638 3694
L 2097 3694
L 2097 2356
L 3422 2356
L 3422 1900
L 2097 1900
z
" transform="scale(0.015625)"/>
       <path id="LiberationSans-4a" d="M 1428 -63
Q 309 -63 100 1094
L 684 1191
Q 741 828 937 625
Q 1134 422 1431 422
Q 1756 422 1943 645
Q 2131 869 2131 1300
L 2131 3916
L 1284 3916
L 1284 4403
L 2725 4403
L 2725 1313
Q 2725 672 2378 304
Q 2031 -63 1428 -63
z
" transform="scale(0.015625)"/>
       <path id="LiberationSans-49" d="M 591 0
L 591 4403
L 1188 4403
L 1188 0
L 591 0
z
" transform="scale(0.015625)"/>
       <path id="LiberationSans-54" d="M 2250 3916
L 2250 0
L 1656 0
L 1656 3916
L 144 3916
L 144 4403
L 3763 4403
L 3763 3916
L 2250 3916
z
" transform="scale(0.015625)"/>
      </defs>
      <use xlink:href="#LiberationSans-70"/>
      <use xlink:href="#LiberationSans-63" x="55.615234"/>
      <use xlink:href="#LiberationSans-72" x="105.615234"/>
      <use xlink:href="#LiberationSans-65" x="138.916016"/>
      <use xlink:href="#LiberationSans-32" x="194.53125"/>
      <use xlink:href="#LiberationSans-2b" x="250.146484"/>
      <use xlink:href="#LiberationSans-4a" x="308.544922"/>
      <use xlink:href="#LiberationSans-49" x="358.544922"/>
      <use xlink:href="#LiberationSans-54" x="386.328125"/>
     </g>
    </g>
    <g id="line2d_34">
     <path d="M 199.790469 125.82825
L 209.790469 125.82825
L 219.790469 125.82825
" style="fill: none; stroke-dasharray: 5.55,2.4; stroke-dashoffset: 0; stroke: #fefeff; stroke-width: 1.5"/>
    </g>
    <g id="text_20">
     <!-- flpc -->
     <g style="fill: #e6e6e6" transform="translate(227.790469 129.32825) scale(0.1 -0.1)">
      <defs>
       <path id="LiberationSans-66" d="M 1128 2972
L 1128 0
L 566 0
L 566 2972
L 91 2972
L 91 3381
L 566 3381
L 566 3763
Q 566 4225 769 4428
Q 972 4631 1391 4631
Q 1625 4631 1788 4594
L 1788 4166
Q 1647 4191 1538 4191
Q 1322 4191 1225 4081
Q 1128 3972 1128 3684
L 1128 3381
L 1788 3381
L 1788 2972
L 1128 2972
z
" transform="scale(0.015625)"/>
       <path id="LiberationSans-6c" d="M 431 0
L 431 4638
L 994 4638
L 994 0
L 431 0
z
" transform="scale(0.015625)"/>
      </defs>
      <use xlink:href="#LiberationSans-66"/>
      <use xlink:href="#LiberationSans-6c" x="27.783203"/>
      <use xlink:href="#LiberationSans-70" x="50"/>
      <use xlink:href="#LiberationSans-63" x="105.615234"/>
     </g>
    </g>
   </g>
  </g>
 </g>
 <defs>
  <clipPath id="p56447a3114">
   <rect x="57.6" y="41.472" width="357.12" height="266.112"/>
  </clipPath>
 </defs>
</svg>
